{
.formatVersion = 3;
axes = (
{
name = Weight;
tag = wght;
}
);
familyName = Noctambula;
customParameters = (
{
name = glyphOrder;
value = (
b,
d,
p,
a,
q,
e,
u,
c,
v,
w,
h,
m,
n,
o,
x,
s,
y,
space,
i,
j,
f,
r,
l,
t,
g,
z,
comma,
colon,
period,
k,
acute,
uacute,
oacute,
aacute,
eacute,
iacute,
dieresis,
udieresis,
odieresis,
edieresis,
idieresis,
adieresis,
ydieresis,
asciitilde,
tilde,
ntilde,
atilde,
semicolon,
A,
B,
C,
D,
E,
F,
H,
I,
L,
O,
Q,
R,
T,
U,
V,
W,
X,
M,
N,
J,
Y,
G,
K,
P,
S,
Z,
yacute,
fi,
fl,
zero,
one,
two,
three,
four,
five,
six,
seven,
eight,
nine,
exclamdown,
exclam,
asciicircum,
t_u,
t_i,
c_i,
c_l,
otilde,
T_U,
T_I,
T_T,
L_O,
L_I,
L_U,
at,
question,
questiondown,
ellipsis,
underscore,
braceright,
slash,
equal,
plus,
hyphen,
Aacute,
Eacute,
Iacute,
Oacute,
Uacute,
Adieresis,
Edieresis,
Idieresis,
Odieresis,
Udieresis,
Ydieresis,
Yacute,
Atilde,
Ntilde,
quotedbl,
quotedblleft,
quotedblright,
quotesingle,
quoteleft,
quoteright,
bar,
parenleft,
numbersign,
parenright,
dollar,
braceleft,
less,
greater,
bullet,
minus,
endash,
emdash,
percent,
asterisk,
oslash,
Oslash,
Otilde,
degree,
backslash,
Euro,
ampersand,
bracketleft,
bracketright,
quotesinglbase,
quotedblbase,
macron,
logicalnot,
trademark,
registered,
copyright,
currency,
cent,
yen,
plusminus,
multiply,
divide,
brokenbar,
periodcentered,
Eth,
Dcroat,
guillemotleft,
guillemotright,
guilsinglright,
guilsinglleft,
CR
);
}
);
featurePrefixes = (
{
code = "#> languagesystem
languagesystem DFLT dflt;
languagesystem latn dflt;
#< languagesystem
";
tag = Languagesystems;
}
);
features = (
{
code = "# Discretionary Ligatures

#> feature
  sub L I by L_I;
  sub L O by L_O;
  sub L U by L_U;
  sub T I by T_I;
  sub T T by T_T;
  sub T U by T_U;
  sub c i by c_i;
  sub c l by c_l;
  sub t i by t_i;
  sub t u by t_u;
#< feature";
tag = dlig;
},
{
code = "# Standard Ligatures

#> feature
  sub f i by fi;
  sub f l by fl;
#< feature";
tag = liga;
}
);
fontMaster = (
{
axesValues = (
400
);

glyphs = (
{
glyphname = b;
rightMetricsKey = n;
layers = (
{
background = {
shapes = (
{
closed = 1;
nodes = (
(204,326,o),
(242,391,o),
(290,463,cs),
(340,537,o),
(391,601,o),
(417,616,cs),
(440,629,o),
(470,616,o),
(475,589,cs),
(486,524,o),
(491,410,o),
(491,339,cs),
(491,263,o),
(484,70,o),
(469,23,cs),
(462,0,o),
(442,0,o),
(402,0,cs),
(356,0,o),
(349,10,o),
(362,29,cs),
(377,50,o),
(402,98,o),
(413,140,cs),
(428,199,o),
(436,263,o),
(436,332,cs),
(436,405,o),
(427,451,o),
(421,470,cs),
(415,487,o),
(409,495,o),
(387,485,cs),
(368,476,o),
(330,437,o),
(291,368,cs),
(236,272,o),
(169,116,o),
(166,83,cs),
(163,50,o),
(147,33,o),
(140,33,cs),
(133,33,o),
(170,249,o),
(170,249,c)
);
},
{
closed = 1;
nodes = (
(336,55,o),
(398,88,o),
(406,117,cs),
(414,146,o),
(432,120,o),
(436,81,cs),
(440,42,o),
(437,0,o),
(402,0,cs),
(367,0,o),
(167,0,o),
(135,0,cs),
(103,0,o),
(120,44,o),
(120,44,c),
(135,57,o),
(169,96,o),
(166,83,cs),
(163,70,o),
(215,55,o),
(270,55,cs)
);
},
{
closed = 1;
nodes = (
(92,97,o),
(92,121,o),
(97,150,cs),
(105,196,o),
(113,261,o),
(113,399,cs),
(113,455,o),
(110,539,o),
(92,634,cs),
(83,681,o),
(71,714,o),
(55,747,cs),
(46,766,o),
(52,773,o),
(71,773,cs),
(90,773,o),
(90,773,o),
(115,773,cs),
(136,773,o),
(143,769,o),
(148,756,cs),
(155,735,o),
(161,687,o),
(165,633,cs),
(173,517,o),
(172,281,o),
(166,32,cs),
(165,6,o),
(158,0,o),
(140,0,cs),
(122,0,o),
(93,0,o),
(72,0,cs),
(52,0,o),
(52,11,o),
(64,37,cs)
);
}
);
};
layerId = "7BB6E1F7-E231-4E79-9496-BA3D1CB9CE3C";
shapes = (
{
closed = 1;
nodes = (
(340,537,o),
(387.207,608.002,o),
(417.223,608.002,cs),
(452.093,608.002,o),
(472,607,o),
(476.24,578.85,c),
(486.058,513.661,o),
(491,410,o),
(491,339,cs),
(491,263,o),
(481,94,o),
(473,40,cs),
(466,-5,o),
(442,0,o),
(402,0,cs),
(83,0,ls),
(43,0,o),
(57.335,11.301,o),
(74,59,cs),
(84.048,87.758,o),
(91,117,o),
(101,183,cs),
(111,249,o),
(113,333,o),
(113,399,cs),
(114,563,o),
(100.341,686.128,o),
(64.126,747,cs),
(53.341,765.129,o),
(61.126,773,o),
(80.126,773,cs),
(96.411,773,ls),
(117.411,773,o),
(124.776,769.134,o),
(129.411,756,cs),
(136.779,735.126,o),
(142.411,687,o),
(146.411,633,cs),
(152.411,552,o),
(153.411,411,o),
(151.411,249,c),
(215.064,350.151,o),
(242,391,o),
(290,463,cs)
);
},
{
closed = 1;
nodes = (
(415.277,52.817,o),
(420.531,67.49,o),
(429.138,97.001,cs),
(450.479,170.17,o),
(454.975,275,o),
(454.975,332,cs),
(454.975,405,o),
(448.929,505.613,o),
(442.628,524.516,cs),
(436.927,541.618,o),
(423.745,552.532,o),
(403.756,539.516,cs),
(380.745,524.532,o),
(337.622,471.393,o),
(286.502,393.955,cs),
(256.209,348.066,o),
(205.345,260.658,o),
(166.133,196.786,cs),
(147.779,166.891,o),
(144.662,158.534,o),
(142.06,136.924,cs),
(138.421,106.71,o),
(135.816,83.706,o),
(132.427,59.108,cs),
(130.198,42.928,o),
(142.264,41.234,o),
(171.066,38.563,cs),
(225.021,33.561,o),
(337.917,33.561,o),
(383.654,44.946,cs)
);
}
);
width = 563;
},
{
background = {
};
layerId = "EB85BB17-2D13-4234-8B6F-29F99969393B";
shapes = (
{
closed = 1;
nodes = (
(319.774,539.152,o),
(364.163,608.151,o),
(403.55,608.151,cs),
(446.572,608.151,o),
(470.675,604.922,o),
(473,576.827,cs),
(478.61,509.036,o),
(477,410,o),
(477,339,cs),
(477,263,o),
(467,94,o),
(459,40,cs),
(452,-5,o),
(428,0,o),
(388,0,cs),
(69,0,ls),
(29,0,o),
(42,18,o),
(60,59,cs),
(72,87,o),
(77,117,o),
(87,183,cs),
(97,249,o),
(99,333,o),
(99,399,cs),
(100,563,o),
(77,686,o),
(41,747,cs),
(30,765,o),
(38,773,o),
(57,773,cs),
(101,773,ls),
(122,773,o),
(129,769,o),
(134,756,cs),
(141,735,o),
(147,687,o),
(151,633,cs),
(157,552,o),
(158,411,o),
(156,249,c),
(190,326,o),
(221.773,393.152,o),
(270,465,cs)
);
},
{
closed = 1;
nodes = (
(310,54,o),
(380,83,o),
(390,112,cs),
(415,184,o),
(422,275,o),
(422,332,cs),
(422,405,o),
(413,451,o),
(407,470,cs),
(401,487,o),
(393,498,o),
(373,485,cs),
(350,470,o),
(316,437,o),
(277,368,cs),
(225,278,o),
(156,130,o),
(153,85,cs),
(151,57,o),
(202,56,o),
(256,55,cs)
);
}
);
width = 548;
}
);
unicode = 98;
},
{
glyphname = d;
layers = (
{
background = {
shapes = (
{
closed = 1;
nodes = (
(437,741,o),
(462,606,o),
(462,371,cs),
(462,133,o),
(440,25,o),
(438,19,cs),
(436,12,o),
(430,1,o),
(422,1,cs),
(414,1,o),
(359,1,o),
(345,1,cs),
(332,1,o),
(326,13,o),
(331,23,cs),
(338,37,o),
(348,67,o),
(358,93,cs),
(388,172,o),
(403,272,o),
(403,371,cs),
(403,470,o),
(401,535,o),
(376,622,cs),
(354,699,o),
(333,749,o),
(333,749,c),
(326,763,o),
(321,773,o),
(343,775,cs),
(360,777,o),
(372,776,o),
(387,776,c),
(410,775,o),
(417,772,o),
(423,763,cs)
);
},
{
closed = 1;
nodes = (
(221,553,o),
(174,538,o),
(166,515,cs),
(161,500,o),
(118,560,o),
(102,573,c),
(102,573,o),
(88,608,o),
(142,608,cs),
(176,608,o),
(388,607,o),
(426,607,cs),
(463,607,o),
(453,566,o),
(443,528,cs),
(441,522,o),
(400,423,o),
(382,516,cs),
(376,547,o),
(326,549,o),
(279,551,cs)
);
},
{
closed = 1;
nodes = (
(159,496,o),
(149,423,o),
(149,330,cs),
(149,237,o),
(146,201,o),
(157,140,cs),
(163,107,o),
(178,84,o),
(208,111,cs),
(225,125,o),
(261,163,o),
(308,255,cs),
(356,349,o),
(394,468,o),
(382,516,cs),
(369,568,o),
(415,513,o),
(424,479,cs),
(435,438,o),
(435,407,o),
(433,356,c),
(398,285,o),
(364,227,o),
(312,145,cs),
(261,65,o),
(207,-1,o),
(163,-1,cs),
(139,-1,o),
(138,-1,o),
(115,-1,cs),
(92,-1,o),
(76,-1,o),
(83,45,cs),
(90,94,o),
(92,242,o),
(93,329,cs),
(94,416,o),
(87,507,o),
(76,566,cs),
(69,603,o),
(76,608,o),
(130,608,cs),
(158,608,o),
(174,537,o),
(166,515,cs)
);
}
);
};
layerId = "7BB6E1F7-E231-4E79-9496-BA3D1CB9CE3C";
shapes = (
{
closed = 1;
nodes = (
(437,741,o),
(462,606,o),
(462,371,cs),
(462,133,o),
(440,25,o),
(438,19,cs),
(436,12,o),
(430,1,o),
(422,1,cs),
(345,1,ls),
(332,1,o),
(326,13,o),
(331,23,cs),
(365,88,o),
(393,203,o),
(400,292,c),
(375,246,o),
(348,201,o),
(312,145,cs),
(261,65,o),
(207,-1,o),
(163,-1,cs),
(115,-1,ls),
(92,-1,o),
(77,-1,o),
(83,45,cs),
(99,163,o),
(95,465,o),
(76,566,cs),
(69,603,o),
(76,608,o),
(130,608,cs),
(213,608,o),
(297,607,o),
(380,607,c),
(367,655,o),
(353,704,o),
(333,749,cs),
(327,763,o),
(321,775,o),
(343,775,cs),
(362,775,o),
(372,776,o),
(387,776,c),
(410,775,o),
(417,772,o),
(423,763,cs)
);
},
{
closed = 1;
nodes = (
(207,551,o),
(168,545,o),
(158,481,cs),
(148,416,o),
(144,212,o),
(157,140,cs),
(163,107,o),
(179,77,o),
(222,126,cs),
(302,220,o),
(354,336,o),
(380,457,cs),
(400,547,o),
(348,551,o),
(279,551,cs)
);
}
);
width = 546;
},
{
background = {
shapes = (
{
closed = 1;
nodes = (
(437,741,o),
(462,606,o),
(462,371,cs),
(462,133,o),
(440,25,o),
(438,19,cs),
(436,12,o),
(430,1,o),
(422,1,cs),
(414,1,o),
(359,1,o),
(345,1,cs),
(332,1,o),
(326,13,o),
(331,23,cs),
(338,37,o),
(348,67,o),
(358,93,cs),
(388,172,o),
(403,272,o),
(403,371,cs),
(403,470,o),
(401,535,o),
(376,622,cs),
(354,699,o),
(333,749,o),
(333,749,cs),
(326,763,o),
(321,773,o),
(343,775,cs),
(360,777,o),
(372,776,o),
(387,776,cs),
(410,775,o),
(417,772,o),
(423,763,cs)
);
},
{
closed = 1;
nodes = (
(221,553,o),
(174,538,o),
(166,515,cs),
(161,500,o),
(118,560,o),
(102,573,cs),
(102,573,o),
(88,608,o),
(142,608,cs),
(176,608,o),
(388,607,o),
(426,607,cs),
(463,607,o),
(453,566,o),
(443,528,cs),
(441,522,o),
(400,423,o),
(382,516,cs),
(376,547,o),
(326,549,o),
(279,551,c)
);
},
{
closed = 1;
nodes = (
(159,496,o),
(149,423,o),
(149,330,cs),
(149,237,o),
(146,201,o),
(157,140,cs),
(163,107,o),
(178,84,o),
(208,111,cs),
(225,125,o),
(261,163,o),
(308,255,cs),
(356,349,o),
(394,468,o),
(382,516,cs),
(369,568,o),
(415,513,o),
(424,479,cs),
(435,438,o),
(435,407,o),
(433,356,c),
(398,285,o),
(364,227,o),
(312,145,cs),
(261,65,o),
(207,-1,o),
(163,-1,cs),
(139,-1,o),
(138,-1,o),
(115,-1,cs),
(92,-1,o),
(76,-1,o),
(83,45,cs),
(90,94,o),
(92,242,o),
(93,329,cs),
(94,416,o),
(87,507,o),
(76,566,cs),
(69,603,o),
(76,608,o),
(130,608,cs),
(158,608,o),
(174,537,o),
(166,515,cs)
);
}
);
};
layerId = "EB85BB17-2D13-4234-8B6F-29F99969393B";
shapes = (
{
closed = 1;
nodes = (
(437,741,o),
(462,606,o),
(462,371,cs),
(462,133,o),
(440,25,o),
(438,19,cs),
(436,12,o),
(430,1,o),
(422,1,cs),
(345,1,ls),
(332,1,o),
(326,13,o),
(331,23,cs),
(365,88,o),
(393,203,o),
(400,292,c),
(375,246,o),
(348,201,o),
(312,145,cs),
(261,65,o),
(207,-1,o),
(163,-1,cs),
(115,-1,ls),
(92,-1,o),
(77,-1,o),
(83,45,cs),
(99,163,o),
(95,465,o),
(76,566,cs),
(69,603,o),
(76,608,o),
(130,608,cs),
(213,608,o),
(297,607,o),
(380,607,c),
(367,655,o),
(353,704,o),
(333,749,cs),
(327,763,o),
(321,775,o),
(343,775,cs),
(362,775,o),
(372,776,o),
(387,776,cs),
(410,775,o),
(417,772,o),
(423,763,cs)
);
},
{
closed = 1;
nodes = (
(207,551,o),
(168,545,o),
(158,481,cs),
(148,416,o),
(144,212,o),
(157,140,cs),
(163,107,o),
(179,77,o),
(222,126,cs),
(302,220,o),
(354,336,o),
(380,457,cs),
(400,547,o),
(348,551,o),
(279,551,cs)
);
}
);
width = 536;
}
);
unicode = 100;
},
{
glyphname = p;
rightMetricsKey = n;
layers = (
{
background = {
shapes = (
{
closed = 1;
nodes = (
(155,571,o),
(173,403,o),
(165,168,cs),
(156,-69,o),
(130,-177,o),
(128,-182,cs),
(125,-189,o),
(119,-200,o),
(111,-200,cs),
(103,-200,o),
(48,-201,o),
(34,-200,c),
(21,-200,o),
(16,-184,o),
(21,-174,cs),
(28,-161,o),
(40,-131,o),
(50,-106,cs),
(83,-28,o),
(102,72,o),
(106,171,cs),
(109,270,o),
(111,367,o),
(89,454,cs),
(70,532,o),
(51,583,o),
(51,583,c),
(44,597,o),
(40,607,o),
(62,609,cs),
(79,610,o),
(95,609,o),
(110,608,cs),
(133,607,o),
(136,603,o),
(141,594,cs)
);
},
{
closed = 1;
nodes = (
(195,316,o),
(242,392,o),
(290,464,cs),
(340,538,o),
(391,602,o),
(417,617,cs),
(440,630,o),
(470,617,o),
(475,590,cs),
(486,525,o),
(491,411,o),
(491,340,cs),
(491,264,o),
(484,71,o),
(469,24,cs),
(462,1,o),
(442,1,o),
(402,1,cs),
(356,1,o),
(349,11,o),
(362,30,cs),
(377,51,o),
(402,99,o),
(413,141,cs),
(428,200,o),
(436,264,o),
(436,333,cs),
(436,406,o),
(427,452,o),
(421,471,cs),
(415,488,o),
(409,496,o),
(387,486,cs),
(368,477,o),
(330,438,o),
(291,369,cs),
(236,273,o),
(169,117,o),
(166,84,cs),
(163,51,o),
(147,34,o),
(140,34,cs),
(133,34,o),
(161,239,o),
(161,239,c)
);
},
{
closed = 1;
nodes = (
(335,59,o),
(398,89,o),
(406,118,cs),
(414,147,o),
(432,121,o),
(436,82,cs),
(440,43,o),
(437,1,o),
(402,1,cs),
(367,1,o),
(167,1,o),
(135,1,cs),
(103,1,o),
(120,45,o),
(120,45,c),
(135,58,o),
(169,97,o),
(166,84,cs),
(163,71,o),
(214,59,o),
(269,59,cs)
);
}
);
};
layerId = "7BB6E1F7-E231-4E79-9496-BA3D1CB9CE3C";
shapes = (
{
closed = 1;
nodes = (
(156,535,o),
(169,442,o),
(167,252,c),
(200,324,o),
(245,396,o),
(290,464,cs),
(340,538,o),
(391,602,o),
(417,617,cs),
(440,630,o),
(470,617,o),
(475,590,cs),
(486,525,o),
(489,400,o),
(489,329,cs),
(489,253,o),
(484,124,o),
(479,75,cs),
(470,-10,o),
(429,1,o),
(389,1,cs),
(155,1,l),
(144,-121,o),
(129,-178,o),
(128,-182,cs),
(125,-189,o),
(125,-200,o),
(95,-200,cs),
(71,-200,o),
(48,-201,o),
(34,-200,c),
(21,-200,o),
(8,-195,o),
(36,-140,cs),
(74,-66,o),
(103,75,o),
(107,202,cs),
(111,340,o),
(83,510,o),
(58,567,cs),
(44,600,o),
(40,609,o),
(62,609,cs),
(81,609,o),
(95,609,o),
(110,608,cs),
(133,607,o),
(141,604,o),
(151,558,cs)
);
},
{
closed = 1;
nodes = (
(331,59,o),
(388,71,o),
(404,113,cs),
(422,162,o),
(436,280,o),
(436,333,cs),
(436,406,o),
(427,452,o),
(421,471,cs),
(415,488,o),
(409,496,o),
(387,486,cs),
(368,477,o),
(330,438,o),
(291,369,cs),
(237,274,o),
(170,122,o),
(166,83,cs),
(165,70,o),
(216,59,o),
(269,59,cs)
);
}
);
width = 561;
},
{
background = {
shapes = (
{
closed = 1;
nodes = (
(137.606,535,o),
(150.606,442,o),
(148.606,252,c),
(181.606,324,o),
(226.606,396,o),
(271.606,464,cs),
(321.606,538,o),
(372.475,602.23,o),
(398.606,617,cs),
(424.369,631.562,o),
(451.606,617,o),
(456.606,590,cs),
(467.606,525,o),
(470.606,400,o),
(470.606,329,cs),
(470.606,253,o),
(465.606,124,o),
(460.606,75,cs),
(451.606,-10,o),
(410.606,1,o),
(370.606,1,cs),
(136.606,1,l),
(125.606,-121,o),
(110.606,-178,o),
(109.606,-182,cs),
(106.606,-189,o),
(106.606,-200,o),
(76.606,-200,cs),
(52.606,-200,o),
(29.606,-201,o),
(15.606,-200,cs),
(2.606,-200,o),
(-10.394,-195,o),
(17.606,-140,cs),
(55.606,-66,o),
(84.606,75,o),
(88.606,202,cs),
(92.606,340,o),
(64.606,510,o),
(39.606,567,cs),
(25.606,600,o),
(21.606,609,o),
(43.606,609,cs),
(62.606,609,o),
(76.606,609,o),
(91.606,608,cs),
(114.606,607,o),
(122.606,604,o),
(132.606,558,cs)
);
},
{
closed = 1;
nodes = (
(312.606,59,o),
(369.606,71,o),
(385.606,113,cs),
(403.606,162,o),
(417.606,280,o),
(417.606,333,cs),
(417.606,406,o),
(408.606,452,o),
(402.606,471,cs),
(396.606,488,o),
(390.606,496,o),
(368.606,486,cs),
(349.606,477,o),
(311.606,438,o),
(272.606,369,cs),
(218.606,274,o),
(151.606,122,o),
(147.606,83,cs),
(146.606,70,o),
(197.606,59,o),
(250.606,59,cs)
);
}
);
};
layerId = "EB85BB17-2D13-4234-8B6F-29F99969393B";
shapes = (
{
closed = 1;
nodes = (
(143,535,o),
(156,442,o),
(154,252,c),
(187,324,o),
(229.992,397.354,o),
(274,466,cs),
(329.525,552.611,o),
(366.271,608.64,o),
(404,608.64,cs),
(440.46,608.64,o),
(463.709,612.447,o),
(466.765,583.803,cs),
(473.759,518.251,o),
(476,400,o),
(476,329,cs),
(476,253,o),
(471,124,o),
(466,75,cs),
(457,-10,o),
(416,1,o),
(376,1,cs),
(142,1,l),
(131,-121,o),
(116,-178,o),
(115,-182,cs),
(112,-189,o),
(112,-200,o),
(82,-200,cs),
(58,-200,o),
(35,-201,o),
(21,-200,cs),
(8,-200,o),
(-5,-195,o),
(23,-140,cs),
(61,-66,o),
(90,75,o),
(94,202,cs),
(98,340,o),
(70,510,o),
(45,567,cs),
(31,600,o),
(27,609,o),
(49,609,cs),
(68,609,o),
(82,609,o),
(97,608,cs),
(120,607,o),
(128,604,o),
(138,558,cs)
);
},
{
closed = 1;
nodes = (
(318,59,o),
(375,71,o),
(391,113,cs),
(409,162,o),
(423,280,o),
(423,333,cs),
(423,406,o),
(414,452,o),
(408,471,cs),
(402,488,o),
(396,496,o),
(374,486,cs),
(355,477,o),
(317,438,o),
(278,369,cs),
(224,274,o),
(157,122,o),
(153,83,cs),
(152,70,o),
(203,59,o),
(256,59,cs)
);
}
);
width = 546;
}
);
unicode = 112;
},
{
glyphname = a;
layers = (
{
background = {
shapes = (
{
closed = 1;
nodes = (
(310,-2,o),
(300,9,o),
(313,27,cs),
(326,45,o),
(352,102,o),
(364,140,cs),
(376,177,o),
(385,255,o),
(385,332,cs),
(385,387,o),
(383,432,o),
(378,471,cs),
(373,509,o),
(370,518,o),
(362,539,cs),
(356,555,o),
(341,562,o),
(356,586,cs),
(381,626,o),
(353,609,o),
(371,619,c),
(378,622,o),
(385,622,o),
(392,622,c),
(414,621,o),
(424,608,o),
(426,592,cs),
(429,574,o),
(442,489,o),
(442,339,cs),
(442,189,o),
(426,36,o),
(420,21,cs),
(414,6,o),
(410,-2,o),
(354,-2,cs)
);
},
{
closed = 1;
nodes = (
(357,550,o),
(347,556,o),
(332,555,cs),
(290,552,o),
(217,510,o),
(166,471,cs),
(145,455,o),
(143,448,o),
(128,460,cs),
(119,467,o),
(112,475,o),
(102,487,cs),
(91,501,o),
(88,508,o),
(102,516,cs),
(185,568,o),
(304,626,o),
(392,622,cs),
(413,621,o),
(373,515,o),
(365,532,cs)
);
},
{
closed = 1;
nodes = (
(211,300,o),
(143,298,o),
(143,277,cs),
(143,257,o),
(87,306,o),
(71,319,c),
(71,319,o),
(86,354,o),
(116,354,cs),
(134,354,o),
(158,354,o),
(167,354,cs),
(201,354,o),
(369,353,o),
(407,353,cs),
(444,353,o),
(436,356,o),
(426,318,cs),
(424,312,o),
(323,263,o),
(333,283,cs),
(341,301,o),
(261,300,o),
(235,300,cs)
);
},
{
closed = 1;
nodes = (
(154,305,o),
(145,301,o),
(143,277,cs),
(140,240,o),
(132,189,o),
(140,123,cs),
(144,90,o),
(159,71,o),
(191,94,cs),
(220,116,o),
(248,150,o),
(279,192,cs),
(310,234,o),
(355,316,o),
(351,341,c),
(416,343,l),
(448,315,o),
(423,321,o),
(406,283,cs),
(385,236,o),
(362,205,o),
(310,140,cs),
(263,81,o),
(189,1,o),
(147,1,cs),
(123,1,o),
(113,1,o),
(99,1,cs),
(81,1,o),
(69,4,o),
(74,49,cs),
(79,96,o),
(81,119,o),
(81,159,cs),
(81,199,o),
(80,259,o),
(69,311,cs),
(61,348,o),
(62,354,o),
(116,354,cs),
(144,354,o),
(167,354,o),
(159,325,cs)
);
}
);
};
layerId = "7BB6E1F7-E231-4E79-9496-BA3D1CB9CE3C";
shapes = (
{
closed = 1;
nodes = (
(358.302,-0.531,o),
(347.425,0.155,o),
(359.423,18.838,cs),
(375.193,43.393,o),
(385.629,76.958,o),
(392.618,122.628,cs),
(400.497,174.117,o),
(401.576,235.765,o),
(404.668,282.137,c),
(388.668,255.137,o),
(344.066,193.457,o),
(305.876,146.848,cs),
(251.678,80.702,o),
(198.941,29.501,o),
(150.38,6.122,cs),
(137.665,0.001,o),
(115.986,1,o),
(99,1,cs),
(73.01,1,o),
(73.52,10.271,o),
(76.478,47.245,cs),
(82.943,128.032,o),
(85.562,232.707,o),
(69,311,cs),
(61,348,o),
(57.901,361.056,o),
(101.183,361.056,cs),
(199.537,361.056,o),
(309.914,360.854,o),
(408.033,360.854,c),
(407.033,415.854,o),
(402.885,492.7,o),
(388.25,553.275,cs),
(382.086,578.787,o),
(369.187,582.698,o),
(322.881,573.906,cs),
(264.895,562.896,o),
(191.322,529.344,o),
(153.457,486.148,cs),
(130.841,460.349,o),
(121.183,464.18,o),
(107.961,479.385,cs),
(95.665,493.526,o),
(85.828,506.437,o),
(105.502,518.733,cs),
(205.695,581.354,o),
(284,616,o),
(392,622,cs),
(414,623,o),
(422,608,o),
(426,592,cs),
(433,566,o),
(442,487.764,o),
(442,339,cs),
(442,190.236,o),
(430.636,97.557,o),
(425.2,30.585,cs),
(423.339,7.657,o),
(420.388,-1.065,o),
(389.345,-0.798,cs)
);
},
{
closed = 1;
nodes = (
(118.744,325.051,o),
(115.892,317.663,o),
(115.15,298.678,cs),
(113.697,261.491,o),
(115.936,113.355,o),
(114.798,78.018,cs),
(113.561,39.651,o),
(124.108,33.554,o),
(154.75,52.847,cs),
(187.68,73.581,o),
(220.083,99.921,o),
(266.686,155.453,cs),
(309.754,206.774,o),
(350.756,263.272,o),
(370.905,303.228,cs),
(382.059,325.348,o),
(346.368,324.794,o),
(254.43,324.898,cs)
);
}
);
width = 510;
},
{
background = {
shapes = (
{
closed = 1;
nodes = (
(310,-2,o),
(300,9,o),
(313,27,cs),
(326,45,o),
(352,102,o),
(364,140,cs),
(376,177,o),
(385,255,o),
(385,332,cs),
(385,387,o),
(383,432,o),
(378,471,cs),
(373,509,o),
(370,518,o),
(362,539,cs),
(356,555,o),
(341,562,o),
(356,586,cs),
(381,626,o),
(353,609,o),
(371,619,c),
(378,622,o),
(385,622,o),
(392,622,cs),
(414,621,o),
(424,608,o),
(426,592,cs),
(429,574,o),
(442,489,o),
(442,339,cs),
(442,189,o),
(426,36,o),
(420,21,cs),
(414,6,o),
(410,-2,o),
(354,-2,cs)
);
},
{
closed = 1;
nodes = (
(357,550,o),
(347,556,o),
(332,555,cs),
(290,552,o),
(217,510,o),
(166,471,cs),
(145,455,o),
(143,448,o),
(128,460,cs),
(119,467,o),
(112,475,o),
(102,487,cs),
(91,501,o),
(88,508,o),
(102,516,cs),
(185,568,o),
(304,626,o),
(392,622,cs),
(413,621,o),
(373,515,o),
(365,532,cs)
);
},
{
closed = 1;
nodes = (
(211,300,o),
(143,298,o),
(143,277,cs),
(143,257,o),
(87,306,o),
(71,319,cs),
(71,319,o),
(86,354,o),
(116,354,cs),
(134,354,o),
(158,354,o),
(167,354,cs),
(201,354,o),
(369,353,o),
(407,353,cs),
(444,353,o),
(436,356,o),
(426,318,cs),
(424,312,o),
(323,263,o),
(333,283,cs),
(341,301,o),
(261,300,o),
(235,300,c)
);
},
{
closed = 1;
nodes = (
(154,305,o),
(145,301,o),
(143,277,cs),
(140,240,o),
(132,189,o),
(140,123,cs),
(144,90,o),
(159,71,o),
(191,94,cs),
(220,116,o),
(248,150,o),
(279,192,cs),
(310,234,o),
(355,316,o),
(351,341,c),
(416,343,l),
(448,315,o),
(423,321,o),
(406,283,cs),
(385,236,o),
(362,205,o),
(310,140,cs),
(263,81,o),
(189,1,o),
(147,1,cs),
(123,1,o),
(113,1,o),
(99,1,cs),
(81,1,o),
(69,4,o),
(74,49,cs),
(79,96,o),
(81,119,o),
(81,159,cs),
(81,199,o),
(80,259,o),
(69,311,cs),
(61,348,o),
(62,354,o),
(116,354,cs),
(144,354,o),
(167,354,o),
(159,325,cs)
);
}
);
};
layerId = "EB85BB17-2D13-4234-8B6F-29F99969393B";
shapes = (
{
closed = 1;
nodes = (
(289,-2,o),
(279,9,o),
(292,27,cs),
(305,45,o),
(331,102,o),
(343,140,cs),
(350,161,o),
(356,195,o),
(359,235,c),
(343,208,o),
(322,181,o),
(289,140,cs),
(242,81,o),
(168,1,o),
(126,1,cs),
(78,1,ls),
(60,1,o),
(48,4,o),
(53,49,cs),
(58,96,o),
(60,119,o),
(60,159,cs),
(60,199,o),
(59,259,o),
(48,311,cs),
(40,348,o),
(41,354,o),
(95,354,cs),
(146,354,ls),
(175,354,o),
(305,353,o),
(364,353,c),
(363,408,o),
(361.962,476.984,o),
(341,529,cs),
(334.961,543.985,o),
(324.041,549.685,o),
(310,548,cs),
(274.036,543.684,o),
(201,519,o),
(145,471,cs),
(125,454,o),
(122,448,o),
(107,460,cs),
(98,467,o),
(91,475,o),
(81,487,cs),
(70,501,o),
(67,507,o),
(81,516,cs),
(179,582,o),
(263,616,o),
(371,622,cs),
(393,623,o),
(401,608,o),
(405,592,cs),
(412,566,o),
(421,489,o),
(421,339,cs),
(421,189,o),
(405,36,o),
(399,21,cs),
(393,6,o),
(389,-2,o),
(333,-2,cs)
);
},
{
closed = 1;
nodes = (
(191,300,o),
(124,298,o),
(122,276,cs),
(118,239,o),
(114,158,o),
(119,123,cs),
(123,90,o),
(138,71,o),
(170,94,cs),
(223,134,o),
(283,221,o),
(312,283,cs),
(320,301,o),
(240,300,o),
(214,300,cs)
);
}
);
width = 479;
}
);
leftKerningGroup = a;
rightKerningGroup = a1;
unicode = 97;
},
{
glyphname = q;
leftMetricsKey = d;
layers = (
{
background = {
shapes = (
{
closed = 1;
nodes = (
(459,572,o),
(484,437,o),
(484,202,cs),
(484,-36,o),
(451,-176,o),
(449,-182,cs),
(447,-189,o),
(441,-200,o),
(433,-200,cs),
(425,-200,o),
(370,-200,o),
(356,-200,cs),
(343,-200,o),
(337,-188,o),
(342,-178,cs),
(349,-164,o),
(359,-134,o),
(369,-108,cs),
(399,-29,o),
(425,103,o),
(425,202,cs),
(425,301,o),
(423,366,o),
(398,453,cs),
(376,530,o),
(355,580,o),
(355,580,c),
(348,594,o),
(343,604,o),
(365,606,cs),
(382,608,o),
(394,607,o),
(409,607,c),
(432,606,o),
(439,603,o),
(445,594,cs)
);
},
{
closed = 1;
nodes = (
(207,553,o),
(160,538,o),
(152,515,cs),
(147,500,o),
(99,560,o),
(83,573,c),
(83,573,o),
(83,608,o),
(128,608,cs),
(162,608,o),
(374,607,o),
(412,607,cs),
(449,607,o),
(439,566,o),
(429,528,cs),
(427,522,o),
(386,423,o),
(368,516,cs),
(362,547,o),
(312,549,o),
(265,551,cs)
);
},
{
closed = 1;
nodes = (
(145,496,o),
(136,393,o),
(136,320,cs),
(136,227,o),
(132,201,o),
(143,140,cs),
(149,107,o),
(164,84,o),
(194,111,cs),
(211,125,o),
(248,163,o),
(294,255,cs),
(351,369,o),
(380,468,o),
(368,516,cs),
(355,568,o),
(401,513,o),
(410,479,cs),
(421,438,o),
(420,433,o),
(418,382,c),
(383,311,o),
(355,240,o),
(303,158,cs),
(252,78,o),
(193,-1,o),
(149,-1,cs),
(125,-1,o),
(126,-1,o),
(103,-1,cs),
(88,-1,o),
(76,-1,o),
(76,45,cs),
(76,92,o),
(79,267,o),
(79,356,cs),
(79,427,o),
(77,512,o),
(74,566,cs),
(72,604,o),
(83,608,o),
(128,608,cs),
(156,608,o),
(160,537,o),
(152,515,cs)
);
}
);
};
layerId = "7BB6E1F7-E231-4E79-9496-BA3D1CB9CE3C";
shapes = (
{
closed = 1;
nodes = (
(466,525,o),
(483,406,o),
(484,202,cs),
(485,50,o),
(469,-102,o),
(449,-182,cs),
(447,-189,o),
(441,-200,o),
(433,-200,cs),
(356,-200,ls),
(343,-200,o),
(337,-188,o),
(342,-178,cs),
(349,-164,o),
(359,-134,o),
(369,-108,cs),
(399,-29,o),
(425,103,o),
(425,202,cs),
(425,270,o),
(424,322,o),
(415,376,c),
(382,307,o),
(354,238,o),
(303,158,cs),
(252,78,o),
(193,-1,o),
(149,-1,cs),
(108,-1,ls),
(86,-1,o),
(76,-1,o),
(76,45,cs),
(76,92,o),
(79,267,o),
(79,356,cs),
(79,427,o),
(77,512,o),
(74,566,cs),
(72,604,o),
(83,608,o),
(128,608,cs),
(172,608,o),
(306,608,o),
(395,608,cs),
(444,608,o),
(444,604,o),
(459,550,cs)
);
},
{
closed = 1;
nodes = (
(161,538,o),
(150,517,o),
(145,483,cs),
(142,463,o),
(136,395,o),
(136,320,cs),
(136,228,o),
(136,197,o),
(143,140,cs),
(147,107,o),
(163,90,o),
(194,111,cs),
(217,126,o),
(248,163,o),
(294,255,cs),
(349,365,o),
(361,419,o),
(368,464,cs),
(374,504,o),
(368,536,o),
(333,544,cs),
(309,549,o),
(249,554,o),
(210,547,cs)
);
}
);
width = 544;
},
{
background = {
shapes = (
{
closed = 1;
nodes = (
(459,572,o),
(484,437,o),
(484,202,cs),
(484,-36,o),
(451,-176,o),
(449,-182,cs),
(447,-189,o),
(441,-200,o),
(433,-200,cs),
(425,-200,o),
(370,-200,o),
(356,-200,cs),
(343,-200,o),
(337,-188,o),
(342,-178,cs),
(349,-164,o),
(359,-134,o),
(369,-108,cs),
(399,-29,o),
(425,103,o),
(425,202,cs),
(425,301,o),
(423,366,o),
(398,453,cs),
(376,530,o),
(355,580,o),
(355,580,cs),
(348,594,o),
(343,604,o),
(365,606,cs),
(382,608,o),
(394,607,o),
(409,607,cs),
(432,606,o),
(439,603,o),
(445,594,cs)
);
},
{
closed = 1;
nodes = (
(207,553,o),
(160,538,o),
(152,515,cs),
(147,500,o),
(99,560,o),
(83,573,cs),
(83,573,o),
(83,608,o),
(128,608,cs),
(162,608,o),
(374,607,o),
(412,607,cs),
(449,607,o),
(439,566,o),
(429,528,cs),
(427,522,o),
(386,423,o),
(368,516,cs),
(362,547,o),
(312,549,o),
(265,551,c)
);
},
{
closed = 1;
nodes = (
(145,496,o),
(136,393,o),
(136,320,cs),
(136,227,o),
(132,201,o),
(143,140,cs),
(149,107,o),
(164,84,o),
(194,111,cs),
(211,125,o),
(248,163,o),
(294,255,cs),
(351,369,o),
(380,468,o),
(368,516,cs),
(355,568,o),
(401,513,o),
(410,479,cs),
(421,438,o),
(420,433,o),
(418,382,c),
(383,311,o),
(355,240,o),
(303,158,cs),
(252,78,o),
(193,-1,o),
(149,-1,cs),
(125,-1,o),
(126,-1,o),
(103,-1,cs),
(88,-1,o),
(76,-1,o),
(76,45,cs),
(76,92,o),
(79,267,o),
(79,356,cs),
(79,427,o),
(77,512,o),
(74,566,cs),
(72,604,o),
(83,608,o),
(128,608,cs),
(156,608,o),
(160,537,o),
(152,515,cs)
);
}
);
};
layerId = "EB85BB17-2D13-4234-8B6F-29F99969393B";
shapes = (
{
closed = 1;
nodes = (
(466,525,o),
(483,406,o),
(484,202,cs),
(485,50,o),
(469,-102,o),
(449,-182,cs),
(447,-189,o),
(441,-200,o),
(433,-200,cs),
(356,-200,ls),
(343,-200,o),
(337,-188,o),
(342,-178,cs),
(349,-164,o),
(359,-134,o),
(369,-108,cs),
(399,-29,o),
(425,103,o),
(425,202,cs),
(425,270,o),
(424,322,o),
(415,376,c),
(382,307,o),
(354,238,o),
(303,158,cs),
(252,78,o),
(193,-1,o),
(149,-1,cs),
(108,-1,ls),
(86,-1,o),
(76,-1,o),
(76,45,cs),
(76,92,o),
(79,267,o),
(79,356,cs),
(79,427,o),
(77,512,o),
(74,566,cs),
(72,604,o),
(83,608,o),
(128,608,cs),
(172,608,o),
(306,608,o),
(395,608,cs),
(444,608,o),
(444,604,o),
(459,550,cs)
);
},
{
closed = 1;
nodes = (
(161,538,o),
(150,517,o),
(145,483,cs),
(142,463,o),
(136,395,o),
(136,320,cs),
(136,228,o),
(136,197,o),
(143,140,cs),
(147,107,o),
(163,90,o),
(194,111,cs),
(217,126,o),
(248,163,o),
(294,255,cs),
(349,365,o),
(361,419,o),
(368,464,cs),
(374,504,o),
(368,536,o),
(333,544,cs),
(309,549,o),
(249,554,o),
(210,547,cs)
);
}
);
width = 544;
}
);
unicode = 113;
},
{
glyphname = e;
leftMetricsKey = o;
layers = (
{
layerId = "7BB6E1F7-E231-4E79-9496-BA3D1CB9CE3C";
shapes = (
{
closed = 1;
nodes = (
(395,620,o),
(379,634,o),
(326,607,cs),
(234,560,o),
(181,528,o),
(106,474,cs),
(69,447,o),
(61,433,o),
(67,405,cs),
(84,330,o),
(84,131,o),
(63,26,c),
(57,0,o),
(68,0,o),
(101,0,cs),
(377,0,ls),
(399,0,o),
(398,26,o),
(400,45,cs),
(404,81,o),
(403,123,o),
(401,167,cs),
(400,183,o),
(396,188,o),
(359,188,cs),
(318,188,o),
(312,179,o),
(318,164,cs),
(324,149,o),
(331,131,o),
(336,106,cs),
(340,83,o),
(334,72,o),
(327,66,cs),
(314,54,o),
(185,53,o),
(165,63,cs),
(136,77,o),
(138,238,o),
(138,270,c),
(370,270,ls),
(389,270,o),
(394,280,o),
(395,299,cs),
(397,362,o),
(400,488,o),
(397,568,cs)
);
},
{
closed = 1;
nodes = (
(139,391,o),
(143,416,o),
(148,424,cs),
(160,442,o),
(196,470,o),
(245,497,cs),
(326,541,o),
(337,518,o),
(340,488,cs),
(343,448,o),
(341,420,o),
(331,370,cs),
(324,333,o),
(326,329,o),
(230,325,cs),
(188,323,o),
(139,327,o),
(139,353,cs)
);
}
);
width = 469;
},
{
background = {
shapes = (
{
closed = 1;
nodes = (
(392,625,o),
(378,635,o),
(326,607,cs),
(240,560,o),
(179,528,o),
(106,474,cs),
(69,447,o),
(61,433,o),
(67,405,cs),
(78,352,o),
(81,316,o),
(81,230,cs),
(81,158,o),
(67,46,o),
(63,26,cs),
(57,0,o),
(68,0,o),
(101,0,cs),
(127,0,o),
(368,0,o),
(377,0,cs),
(399,0,o),
(398,26,o),
(400,45,cs),
(404,81,o),
(403,165,o),
(400,178,cs),
(397,191,o),
(321,193,o),
(317,176,cs),
(314,163,o),
(330,141,o),
(336,106,cs),
(340,83,o),
(334,72,o),
(327,66,cs),
(314,54,o),
(185,53,o),
(165,63,cs),
(145,73,o),
(138,164,o),
(138,234,cs),
(138,287,o),
(137,407,o),
(148,424,cs),
(160,442,o),
(182,462,o),
(231,489,cs),
(312,533,o),
(334,529,o),
(340,493,cs),
(348,448,o),
(335,380,o),
(327,351,cs),
(320,325,o),
(298,270,o),
(322,270,cs),
(330,270,o),
(356,270,o),
(370,270,cs),
(389,270,o),
(396,280,o),
(395,299,cs),
(393,341,o),
(404,494,o),
(397,573,cs)
);
},
{
closed = 1;
nodes = (
(354,270,o),
(355,315,o),
(355,347,cs),
(355,379,o),
(331,377,o),
(327,351,cs),
(323,325,o),
(268,325,o),
(225,325,cs),
(182,325,o),
(138,323,o),
(139,358,cs),
(140,393,o),
(93,293,o),
(103,280,cs),
(113,267,o),
(116,270,o),
(138,270,cs),
(161,270,o),
(322,270,o),
(322,270,cs)
);
}
);
};
layerId = "EB85BB17-2D13-4234-8B6F-29F99969393B";
shapes = (
{
closed = 1;
nodes = (
(395,620,o),
(379,634,o),
(326,607,cs),
(234,560,o),
(181,528,o),
(106,474,cs),
(69,447,o),
(61,433,o),
(67,405,cs),
(84,330,o),
(84,131,o),
(63,26,cs),
(57,0,o),
(68,0,o),
(101,0,cs),
(377,0,ls),
(399,0,o),
(398,26,o),
(400,45,cs),
(404,81,o),
(403,123,o),
(401,167,cs),
(400,183,o),
(396,188,o),
(359,188,cs),
(318,188,o),
(312,179,o),
(318,164,cs),
(324,149,o),
(331,131,o),
(336,106,cs),
(340,83,o),
(334,72,o),
(327,66,cs),
(314,54,o),
(185,53,o),
(165,63,cs),
(136,77,o),
(138,238,o),
(138,270,c),
(370,270,ls),
(389,270,o),
(394,280,o),
(395,299,cs),
(397,362,o),
(400,488,o),
(397,568,cs)
);
},
{
closed = 1;
nodes = (
(139,391,o),
(143,416,o),
(148,424,cs),
(160,442,o),
(196,470,o),
(245,497,cs),
(326,541,o),
(337,518,o),
(340,488,cs),
(343,448,o),
(341,420,o),
(331,370,cs),
(324,333,o),
(326,329,o),
(230,325,cs),
(188,323,o),
(139,327,o),
(139,353,cs)
);
}
);
width = 469;
}
);
leftKerningGroup = c;
rightKerningGroup = e;
unicode = 101;
},
{
glyphname = u;
layers = (
{
background = {
shapes = (
{
closed = 1;
nodes = (
(320,0,o),
(308,4,o),
(318,24,cs),
(328,44,o),
(350,102,o),
(362,140,cs),
(374,177,o),
(385,255,o),
(385,332,cs),
(385,387,o),
(382,390,o),
(370,470,cs),
(364,508,o),
(347,543,o),
(334,564,cs),
(315,595,o),
(318,607,o),
(340,607,cs),
(359,607,o),
(375,607,o),
(395,607,cs),
(417,607,o),
(424,592,o),
(429,572,cs),
(433,554,o),
(440,489,o),
(440,339,cs),
(440,189,o),
(424,38,o),
(418,23,cs),
(412,8,o),
(406,0,o),
(363,0,cs)
);
},
{
closed = 1;
nodes = (
(152,391,o),
(140,319,o),
(138,296,cs),
(135,258,o),
(134,201,o),
(145,140,cs),
(151,107,o),
(166,85,o),
(196,111,cs),
(213,126,o),
(249,163,o),
(296,255,cs),
(344,349,o),
(378,421,o),
(370,470,cs),
(362,524,o),
(389,435,o),
(398,401,cs),
(409,360,o),
(423,407,o),
(421,356,c),
(386,285,o),
(352,227,o),
(300,145,cs),
(249,65,o),
(195,-1,o),
(151,-1,cs),
(127,-1,o),
(124,-1,o),
(101,-1,cs),
(78,-1,o),
(67,0,o),
(72,45,cs),
(77,92,o),
(79,133,o),
(79,222,cs),
(79,293,o),
(74,354,o),
(66,407,cs),
(62,431,o),
(78,431,o),
(112,431,cs),
(140,431,o),
(158,432,o),
(155,412,cs)
);
}
);
};
layerId = "7BB6E1F7-E231-4E79-9496-BA3D1CB9CE3C";
shapes = (
{
closed = 1;
nodes = (
(348.857,0.542,o),
(351.565,6.897,o),
(362.283,33.865,cs),
(366.988,45.703,o),
(377.16,68.731,o),
(386.457,113.36,cs),
(395.755,157.989,o),
(404.767,199.712,o),
(407.94,304.434,c),
(366.289,232.668,o),
(339.79,195.563,o),
(296.066,140.909,cs),
(240.776,71.796,o),
(170.084,-1,o),
(119.389,-1,cs),
(90.501,-1,ls),
(67.501,-1,o),
(71.163,12.33,o),
(73.952,57.521,cs),
(76.842,104.349,o),
(79,133,o),
(79,222,cs),
(79,293,o),
(75.549,354.257,o),
(66,407,cs),
(62.793,424.713,o),
(73.255,430.418,o),
(90.501,431,cs),
(113.324,431.77,o),
(126.664,430.701,o),
(124.335,408.568,cs),
(114.046,310.796,o),
(110.968,234.925,o),
(116.042,106.382,cs),
(117.886,59.656,o),
(119.316,37.488,o),
(162.157,62.925,cs),
(192.893,81.175,o),
(223.684,110.994,o),
(272.97,172.228,cs),
(326.634,238.902,o),
(401.695,369.298,o),
(400.703,418.785,cs),
(399.648,471.398,o),
(385.003,538.705,o),
(371.09,569.873,cs),
(356.419,602.74,o),
(357.939,607,o),
(379.939,607,cs),
(395,607,ls),
(417,607,o),
(425.523,592.32,o),
(429,572,cs),
(436.989,525.315,o),
(443.075,462.214,o),
(443.075,318.123,cs),
(443.075,194.462,o),
(428.932,91.243,o),
(422,38,cs),
(417.563,3.922,o),
(414.826,-0.542,o),
(381.841,0,cs)
);
}
);
width = 508;
},
{
background = {
shapes = (
{
closed = 1;
nodes = (
(320,0,o),
(308,4,o),
(318,24,cs),
(328,44,o),
(350,102,o),
(362,140,cs),
(374,177,o),
(385,255,o),
(385,332,cs),
(385,387,o),
(382,390,o),
(370,470,cs),
(364,508,o),
(347,543,o),
(334,564,cs),
(315,595,o),
(318,607,o),
(340,607,cs),
(359,607,o),
(375,607,o),
(395,607,cs),
(417,607,o),
(424,592,o),
(429,572,cs),
(433,554,o),
(440,489,o),
(440,339,cs),
(440,189,o),
(424,38,o),
(418,23,cs),
(412,8,o),
(406,0,o),
(363,0,cs)
);
},
{
closed = 1;
nodes = (
(152,391,o),
(140,319,o),
(138,296,cs),
(135,258,o),
(134,201,o),
(145,140,cs),
(151,107,o),
(166,85,o),
(196,111,cs),
(213,126,o),
(249,163,o),
(296,255,cs),
(344,349,o),
(378,421,o),
(370,470,cs),
(362,524,o),
(389,435,o),
(398,401,cs),
(409,360,o),
(423,407,o),
(421,356,c),
(386,285,o),
(352,227,o),
(300,145,cs),
(249,65,o),
(195,-1,o),
(151,-1,cs),
(127,-1,o),
(124,-1,o),
(101,-1,cs),
(78,-1,o),
(67,0,o),
(72,45,cs),
(77,92,o),
(79,133,o),
(79,222,cs),
(79,293,o),
(74,354,o),
(66,407,cs),
(62,431,o),
(78,431,o),
(112,431,cs),
(140,431,o),
(158,432,o),
(155,412,cs)
);
}
);
};
layerId = "EB85BB17-2D13-4234-8B6F-29F99969393B";
shapes = (
{
closed = 1;
nodes = (
(320,0,o),
(304,-3,o),
(324,39,cs),
(355,105,o),
(378,193,o),
(384,284,c),
(360,241,o),
(334,198,o),
(300,145,cs),
(249,65,o),
(195,-1,o),
(151,-1,cs),
(101,-1,ls),
(78,-1,o),
(67,0,o),
(72,45,cs),
(77,92,o),
(79,133,o),
(79,222,cs),
(79,293,o),
(74.254,411.792,o),
(66,464.753,cs),
(62.253,488.794,o),
(78,488.753,o),
(112,488.753,cs),
(140,488.753,o),
(162.165,495.721,o),
(153,448.753,cs),
(138.164,372.721,o),
(130,211,o),
(145,140,cs),
(152,107,o),
(166,85,o),
(196,111,cs),
(221,132,o),
(249,163,o),
(296,255,cs),
(343,347,o),
(377,419,o),
(370,468,cs),
(366,501,o),
(352,535,o),
(334,564,cs),
(315,595,o),
(318,607,o),
(340,607,cs),
(395,607,ls),
(417,607,o),
(424,592,o),
(429,572,cs),
(433,554,o),
(440,447,o),
(440,297,cs),
(440,147,o),
(426,63,o),
(422,38,cs),
(417,4,o),
(406,0,o),
(363,0,cs)
);
}
);
width = 508;
}
);
leftKerningGroup = u;
rightKerningGroup = u1;
unicode = 117;
},
{
glyphname = c;
leftMetricsKey = o;
layers = (
{
background = {
shapes = (
{
closed = 1;
nodes = (
(392,625,o),
(381,635,o),
(329,607,cs),
(243,560,o),
(182,528,o),
(109,474,cs),
(72,447,o),
(61,433,o),
(67,405,cs),
(78,352,o),
(81,316,o),
(81,230,cs),
(81,158,o),
(67,46,o),
(63,26,cs),
(57,0,o),
(71,0,o),
(104,0,cs),
(130,0,o),
(361,0,o),
(370,0,cs),
(392,0,o),
(393,26,o),
(395,45,cs),
(399,81,o),
(399,164,o),
(396,178,cs),
(395,184,o),
(373,187,o),
(355,187,cs),
(328,187,o),
(310,180,o),
(313,172,cs),
(329,129,o),
(341,79,o),
(328,67,cs),
(315,55,o),
(188,53,o),
(168,63,cs),
(148,73,o),
(138,164,o),
(138,234,cs),
(138,287,o),
(140,402,o),
(151,419,cs),
(163,437,o),
(188,463,o),
(237,490,cs),
(318,534,o),
(335,529,o),
(338,493,cs),
(342,450,o),
(327,422,o),
(314,395,cs),
(305,376,o),
(312,370,o),
(330,368,cs),
(347,366,o),
(386,364,o),
(395,372,cs),
(404,380,o),
(404,494,o),
(397,573,cs)
);
}
);
};
layerId = "7BB6E1F7-E231-4E79-9496-BA3D1CB9CE3C";
shapes = (
{
closed = 1;
nodes = (
(392,625,o),
(382,633,o),
(329,607,cs),
(233,560,o),
(182,528,o),
(109,474,cs),
(72,447,o),
(61,433,o),
(67,405,cs),
(78,352,o),
(81,316,o),
(81,230,cs),
(81,158,o),
(67,46,o),
(63,26,cs),
(57,0,o),
(71,0,o),
(104,0,cs),
(151,0,o),
(334,0,o),
(366,0,cs),
(388,0,o),
(393,26,o),
(395,45,cs),
(399,81,o),
(399,164,o),
(396,178,cs),
(395,184,o),
(386.808,187,o),
(367.33,187,cs),
(336.861,187,o),
(333.792,181.043,o),
(343.487,158,cs),
(354.36,132.159,o),
(367.457,47.591,o),
(336.529,40.281,cs),
(312.454,34.59,o),
(210.236,33.38,o),
(144.643,36.41,cs),
(108.419,38.083,o),
(111.075,52.484,o),
(113.127,75.658,cs),
(115.459,102.004,o),
(115.997,160.07,o),
(117.704,223.002,cs),
(119.252,280.062,o),
(117.072,355.92,o),
(116.038,388.319,cs),
(115.106,417.509,o),
(117.748,426.332,o),
(134.865,441.581,cs),
(149.968,455.036,o),
(182.555,481.661,o),
(227.072,509.485,cs),
(271.59,537.308,o),
(293.311,548.314,o),
(312.479,555.734,cs),
(343.749,567.839,o),
(358.345,573.865,o),
(361.377,537.867,cs),
(369.334,443.407,o),
(353.804,406.529,o),
(340.714,382.898,cs),
(330.527,364.507,o),
(349.1,367,o),
(367.33,367,cs),
(385.559,367,o),
(398,369,o),
(400,389,cs),
(402,417,o),
(404,494,o),
(397,573,cs)
);
}
);
width = 461;
},
{
background = {
shapes = (
{
closed = 1;
nodes = (
(392,625,o),
(381,635,o),
(329,607,cs),
(243,560,o),
(182,528,o),
(109,474,cs),
(72,447,o),
(61,433,o),
(67,405,cs),
(78,352,o),
(81,316,o),
(81,230,cs),
(81,158,o),
(67,46,o),
(63,26,cs),
(57,0,o),
(71,0,o),
(104,0,cs),
(130,0,o),
(361,0,o),
(370,0,cs),
(392,0,o),
(393,26,o),
(395,45,cs),
(399,81,o),
(399,164,o),
(396,178,cs),
(395,184,o),
(373,187,o),
(355,187,cs),
(328,187,o),
(310,180,o),
(313,172,cs),
(329,129,o),
(341,79,o),
(328,67,cs),
(315,55,o),
(188,53,o),
(168,63,cs),
(148,73,o),
(138,164,o),
(138,234,c),
(138,287,o),
(140,402,o),
(151,419,cs),
(163,437,o),
(188,463,o),
(237,490,cs),
(318,534,o),
(335,529,o),
(338,493,cs),
(342,450,o),
(327,422,o),
(314,395,cs),
(305,376,o),
(312,370,o),
(330,368,cs),
(347,366,o),
(386,364,o),
(395,372,cs),
(404,380,o),
(404,494,o),
(397,573,cs)
);
}
);
};
layerId = "EB85BB17-2D13-4234-8B6F-29F99969393B";
shapes = (
{
closed = 1;
nodes = (
(392,625,o),
(382,633,o),
(329,607,cs),
(233,560,o),
(182,528,o),
(109,474,cs),
(72,447,o),
(61,433,o),
(67,405,cs),
(78,352,o),
(81,316,o),
(81,230,cs),
(81,158,o),
(67,46,o),
(63,26,cs),
(57,0,o),
(71,0,o),
(104,0,cs),
(151,0,o),
(334,0,o),
(366,0,cs),
(388,0,o),
(393,26,o),
(395,45,cs),
(399,81,o),
(399,164,o),
(396,178,cs),
(395,184,o),
(373,187,o),
(355,187,cs),
(315,187,o),
(311,182,o),
(318,158,cs),
(340,78,o),
(338,68,o),
(307,61,cs),
(283,55,o),
(243,54,o),
(198,58,cs),
(175,60,o),
(164,60,o),
(157,80,cs),
(149,101,o),
(138,157,o),
(138,234,cs),
(138,311,o),
(142,376,o),
(144,396,cs),
(147,423,o),
(161,445,o),
(227,485,cs),
(308,534,o),
(335,529,o),
(338,493,cs),
(342,450,o),
(328,418,o),
(315,391,cs),
(306,372,o),
(318,367,o),
(345,367,cs),
(390,367,o),
(398,369,o),
(400,389,cs),
(402,417,o),
(404,494,o),
(397,573,cs)
);
}
);
width = 460;
}
);
leftKerningGroup = c;
unicode = 99;
},
{
glyphname = v;
layers = (
{
background = {
shapes = (
{
closed = 1;
nodes = (
(339,506,o),
(333,542,o),
(325,582,cs),
(321,602,o),
(344,607,o),
(374,607,cs),
(404,607,o),
(413,607,o),
(415,589,cs),
(417,568,o),
(364,332,o),
(338,240,cs),
(324,190,o),
(293,65,o),
(275,26,cs),
(266,6,o),
(256,0,o),
(237,0,cs),
(214,0,o),
(189,0,o),
(181,0,cs),
(172,0,o),
(217,52,o),
(224,68,cs),
(231,84,o),
(244,130,o),
(263,195,cs),
(291,291,o),
(315,376,o),
(330,459,cs)
);
},
{
closed = 1;
nodes = (
(237,0,l),
(181,0,ls),
(172,0,o),
(169,8,o),
(168,16,cs),
(165,33,o),
(147,151,o),
(119,231,cs),
(91,311,o),
(43,393,o),
(33,407,cs),
(23,421,o),
(20,433,o),
(40,433,cs),
(60,433,o),
(77,433,o),
(91,433,cs),
(114,433,o),
(118,410,o),
(125,394,cs),
(136,370,o),
(155,307,o),
(170,255,cs),
(185,203,o),
(215,100,o),
(223,100,cs),
(231,100,o),
(244,131,o),
(263,195,cs),
(269,215,o),
(253,118,o),
(264,123,c)
);
}
);
};
layerId = "7BB6E1F7-E231-4E79-9496-BA3D1CB9CE3C";
shapes = (
{
closed = 1;
nodes = (
(339,506,o),
(333,542,o),
(325,582,cs),
(321,602,o),
(338,607,o),
(368,607,cs),
(398,607,o),
(416,607,o),
(415,589,cs),
(411,540,o),
(367,342,o),
(342,250,cs),
(319,164,o),
(293,65,o),
(275,26,cs),
(266,6,o),
(256,0,o),
(237,0,cs),
(181,0,ls),
(172,0,o),
(169,8,o),
(168,16,cs),
(162,69,o),
(142,164,o),
(119,231,cs),
(96,298,o),
(55,374,o),
(33,407,cs),
(23,421,o),
(20,433,o),
(40,433,cs),
(91,433,ls),
(114,433,o),
(119,410,o),
(125,394,cs),
(136,364,o),
(155,307,o),
(170,255,cs),
(185,203,o),
(212,119,o),
(216,112,cs),
(223,99,o),
(225,92,o),
(233,113,cs),
(263,190,o),
(310,354,o),
(330,459,cs)
);
}
);
width = 442;
},
{
background = {
shapes = (
{
closed = 1;
nodes = (
(339,506,o),
(333,542,o),
(325,582,cs),
(321,602,o),
(344,607,o),
(374,607,cs),
(404,607,o),
(413,607,o),
(415,589,cs),
(417,568,o),
(364,332,o),
(338,240,cs),
(324,190,o),
(293,65,o),
(275,26,cs),
(266,6,o),
(256,0,o),
(237,0,cs),
(214,0,o),
(189,0,o),
(181,0,cs),
(172,0,o),
(217,52,o),
(224,68,cs),
(231,84,o),
(244,130,o),
(263,195,cs),
(291,291,o),
(315,376,o),
(330,459,cs)
);
},
{
closed = 1;
nodes = (
(237,0,l),
(181,0,ls),
(172,0,o),
(169,8,o),
(168,16,cs),
(165,33,o),
(147,151,o),
(119,231,cs),
(91,311,o),
(43,393,o),
(33,407,cs),
(23,421,o),
(20,433,o),
(40,433,cs),
(60,433,o),
(77,433,o),
(91,433,cs),
(114,433,o),
(118,410,o),
(125,394,cs),
(136,370,o),
(155,307,o),
(170,255,cs),
(185,203,o),
(215,100,o),
(223,100,cs),
(231,100,o),
(244,131,o),
(263,195,cs),
(269,215,o),
(253,118,o),
(264,123,c)
);
}
);
};
layerId = "EB85BB17-2D13-4234-8B6F-29F99969393B";
shapes = (
{
closed = 1;
nodes = (
(302,506,o),
(296,542,o),
(288,582,cs),
(284,602,o),
(301,607,o),
(331,607,cs),
(361,607,o),
(379,607,o),
(378,589,cs),
(374,540,o),
(330,342,o),
(305,250,cs),
(282,164,o),
(256,65,o),
(238,26,cs),
(229,6,o),
(219,0,o),
(200,0,cs),
(144,0,ls),
(135,0,o),
(132,8,o),
(131,16,cs),
(125,69,o),
(105,164,o),
(82,231,cs),
(59,298,o),
(18.321,415.216,o),
(-4,448,cs),
(-13.683,462.221,o),
(-17,474,o),
(3,474,cs),
(54,474,ls),
(77,474,o),
(82.076,451.028,o),
(88,435,cs),
(99.077,405.028,o),
(125.725,307.047,o),
(140.725,255.047,cs),
(155.725,203.047,o),
(170.73,133.063,o),
(179,112,cs),
(184.396,98.257,o),
(188,92,o),
(196,113,cs),
(226,190,o),
(273,354,o),
(293,459,cs)
);
}
);
width = 377;
}
);
unicode = 118;
},
{
glyphname = w;
leftMetricsKey = v;
rightMetricsKey = v;
layers = (
{
background = {
shapes = (
{
closed = 1;
nodes = (
(302,428,o),
(302,433,o),
(324,433,cs),
(412,433,o),
(403,394,o),
(388,364,cs),
(361,311,o),
(356,290,o),
(338,240,cs),
(321,191,o),
(285,65,o),
(267,26,cs),
(258,6,o),
(248,0,o),
(229,0,cs),
(206,0,o),
(189,0,o),
(181,0,cs),
(172,0,o),
(201,38,o),
(218,78,cs),
(238,126,o),
(256,179,o),
(260,189,cs),
(289,269,o),
(325,374,o),
(311,407,cs)
);
},
{
closed = 1;
nodes = (
(623,506,o),
(617,542,o),
(609,582,cs),
(605,602,o),
(628,607,o),
(658,607,cs),
(688,607,o),
(697,607,o),
(699,589,cs),
(701,568,o),
(648,332,o),
(622,240,cs),
(608,190,o),
(577,65,o),
(559,26,cs),
(550,6,o),
(540,0,o),
(521,0,cs),
(498,0,o),
(473,0,o),
(465,0,cs),
(456,0,o),
(501,52,o),
(508,68,cs),
(515,84,o),
(528,130,o),
(547,195,cs),
(575,291,o),
(599,376,o),
(614,459,cs)
);
},
{
closed = 1;
nodes = (
(521,0,l),
(465,0,ls),
(456,0,o),
(453,8,o),
(452,16,cs),
(449,33,o),
(431,151,o),
(403,231,cs),
(375,311,o),
(327,393,o),
(317,407,cs),
(307,421,o),
(312,433,o),
(324,433,cs),
(344,433,o),
(361,433,o),
(375,433,cs),
(398,433,o),
(402,410,o),
(409,394,cs),
(420,370,o),
(439,307,o),
(454,255,cs),
(469,203,o),
(499,100,o),
(507,100,cs),
(515,100,o),
(528,131,o),
(547,195,cs),
(553,215,o),
(537,118,o),
(548,123,c)
);
},
{
closed = 1;
nodes = (
(237,0,l),
(181,0,ls),
(172,0,o),
(169,8,o),
(168,16,cs),
(165,33,o),
(147,151,o),
(119,231,cs),
(91,311,o),
(43,393,o),
(33,407,cs),
(23,421,o),
(20,433,o),
(40,433,cs),
(60,433,o),
(77,433,o),
(91,433,cs),
(114,433,o),
(118,410,o),
(125,394,cs),
(136,370,o),
(155,307,o),
(170,255,cs),
(185,203,o),
(215,100,o),
(223,100,cs),
(231,100,o),
(244,131,o),
(263,195,cs),
(269,215,o),
(253,118,o),
(264,123,c)
);
}
);
};
layerId = "7BB6E1F7-E231-4E79-9496-BA3D1CB9CE3C";
shapes = (
{
closed = 1;
nodes = (
(302,428,o),
(302,433,o),
(324,433,cs),
(375,433,ls),
(398,433,o),
(403,410,o),
(409,394,cs),
(419,368,o),
(439,307,o),
(454,255,cs),
(469,203,o),
(498,116,o),
(502,109,cs),
(508,99,o),
(511,97,o),
(518,113,cs),
(537,156,o),
(595,356,o),
(608,427,cs),
(621,498,o),
(617,542,o),
(609,582,cs),
(605,602,o),
(628,607,o),
(658,607,cs),
(688,607,o),
(699,603,o),
(699,585,cs),
(699,550,o),
(656,370,o),
(632,278,cs),
(614,209,o),
(577,65,o),
(559,26,cs),
(550,6,o),
(540,0,o),
(521,0,cs),
(465,0,ls),
(456,0,o),
(453,8,o),
(452,16,cs),
(433,137,o),
(405,235,o),
(366,318,c),
(327,209,o),
(304,142,o),
(267,26,cs),
(261,8,o),
(251,2,o),
(237,0,c),
(237,0,l),
(181,0,ls),
(172,0,o),
(169,14,o),
(163,56,cs),
(157,97,o),
(141,171,o),
(119,231,cs),
(99,285,o),
(61,364,o),
(33,407,cs),
(24,421,o),
(20,433,o),
(40,433,cs),
(91,433,ls),
(114,433,o),
(118,410,o),
(125,394,cs),
(136,370,o),
(155,307,o),
(170,255,cs),
(180,219,o),
(201,145,o),
(215,112,cs),
(221,98,o),
(225,95,o),
(233,114,cs),
(244,140,o),
(267,206,o),
(282,249,cs),
(297,292,o),
(323,379,o),
(311,407,cs)
);
}
);
width = 725;
},
{
background = {
shapes = (
{
closed = 1;
nodes = (
(302,428,o),
(302,433,o),
(324,433,cs),
(412,433,o),
(403,394,o),
(388,364,cs),
(361,311,o),
(356,290,o),
(338,240,cs),
(321,191,o),
(285,65,o),
(267,26,cs),
(258,6,o),
(248,0,o),
(229,0,cs),
(206,0,o),
(189,0,o),
(181,0,cs),
(172,0,o),
(201,38,o),
(218,78,cs),
(238,126,o),
(256,179,o),
(260,189,cs),
(289,269,o),
(325,374,o),
(311,407,cs)
);
},
{
closed = 1;
nodes = (
(623,506,o),
(617,542,o),
(609,582,cs),
(605,602,o),
(628,607,o),
(658,607,cs),
(688,607,o),
(697,607,o),
(699,589,cs),
(701,568,o),
(648,332,o),
(622,240,cs),
(608,190,o),
(577,65,o),
(559,26,cs),
(550,6,o),
(540,0,o),
(521,0,cs),
(498,0,o),
(473,0,o),
(465,0,cs),
(456,0,o),
(501,52,o),
(508,68,cs),
(515,84,o),
(528,130,o),
(547,195,cs),
(575,291,o),
(599,376,o),
(614,459,cs)
);
},
{
closed = 1;
nodes = (
(521,0,l),
(465,0,ls),
(456,0,o),
(453,8,o),
(452,16,cs),
(449,33,o),
(431,151,o),
(403,231,cs),
(375,311,o),
(327,393,o),
(317,407,cs),
(307,421,o),
(312,433,o),
(324,433,cs),
(344,433,o),
(361,433,o),
(375,433,cs),
(398,433,o),
(402,410,o),
(409,394,cs),
(420,370,o),
(439,307,o),
(454,255,cs),
(469,203,o),
(499,100,o),
(507,100,cs),
(515,100,o),
(528,131,o),
(547,195,cs),
(553,215,o),
(537,118,o),
(548,123,c)
);
},
{
closed = 1;
nodes = (
(237,0,l),
(181,0,ls),
(172,0,o),
(169,8,o),
(168,16,cs),
(165,33,o),
(147,151,o),
(119,231,cs),
(91,311,o),
(43,393,o),
(33,407,cs),
(23,421,o),
(20,433,o),
(40,433,cs),
(60,433,o),
(77,433,o),
(91,433,cs),
(114,433,o),
(118,410,o),
(125,394,cs),
(136,370,o),
(155,307,o),
(170,255,cs),
(185,203,o),
(215,100,o),
(223,100,cs),
(231,100,o),
(244,131,o),
(263,195,cs),
(269,215,o),
(253,118,o),
(264,123,c)
);
}
);
};
layerId = "EB85BB17-2D13-4234-8B6F-29F99969393B";
shapes = (
{
closed = 1;
nodes = (
(264,428,o),
(264,433,o),
(286,433,cs),
(337,433,ls),
(360,433,o),
(365,410,o),
(371,394,cs),
(381,368,o),
(401,307,o),
(416,255,cs),
(431,203,o),
(460,116,o),
(464,109,cs),
(470,99,o),
(473,97,o),
(480,113,cs),
(499,156,o),
(557,356,o),
(570,427,cs),
(583,498,o),
(579,542,o),
(571,582,cs),
(567,602,o),
(590,607,o),
(620,607,cs),
(650,607,o),
(661,603,o),
(661,585,cs),
(661,550,o),
(618,370,o),
(594,278,cs),
(576,209,o),
(539,65,o),
(521,26,cs),
(512,6,o),
(502,0,o),
(483,0,cs),
(427,0,ls),
(418,0,o),
(415,8,o),
(414,16,cs),
(395,137,o),
(367,235,o),
(328,318,c),
(289,209,o),
(266,142,o),
(229,26,cs),
(223,8,o),
(213,2,o),
(199,0,c),
(199,0,l),
(143,0,ls),
(134,0,o),
(131,14,o),
(125,56,cs),
(119,97,o),
(102.628,162.728,o),
(81,231,cs),
(63.609,285.896,o),
(23.938,398.96,o),
(-4,442,cs),
(-13.062,455.96,o),
(-17,468,o),
(3,468,cs),
(54,468,ls),
(77,468,o),
(80.833,444.926,o),
(88,429,cs),
(98.834,404.925,o),
(120.845,315.576,o),
(138.147,252.854,cs),
(155.45,190.133,o),
(163,145,o),
(177,112,cs),
(183,98,o),
(187,95,o),
(195,114,cs),
(206,140,o),
(229,206,o),
(244,249,cs),
(259,292,o),
(285,379,o),
(273,407,cs)
);
}
);
width = 659;
}
);
unicode = 119;
},
{
glyphname = h;
leftMetricsKey = b;
rightMetricsKey = n;
layers = (
{
background = {
shapes = (
{
closed = 1;
nodes = (
(76,59,o),
(87,87,o),
(92,116,cs),
(100,162,o),
(113,261,o),
(113,399,cs),
(113,455,o),
(110,539,o),
(92,634,cs),
(83,681,o),
(71,714,o),
(55,747,cs),
(46,766,o),
(52,773,o),
(71,773,cs),
(90,773,o),
(90,773,o),
(115,773,cs),
(136,773,o),
(143,769,o),
(148,756,cs),
(155,735,o),
(161,687,o),
(165,633,cs),
(173,517,o),
(172,281,o),
(166,32,cs),
(165,6,o),
(158,0,o),
(140,0,cs),
(122,0,o),
(93,0,o),
(72,0,cs),
(52,0,o),
(50,12,o),
(64,37,cs)
);
},
{
closed = 1;
nodes = (
(158,222,l),
(210,327,o),
(236,374,o),
(295,463,cs),
(357,557,o),
(389,594,o),
(422,616,cs),
(447,632,o),
(480,619,o),
(486,578,cs),
(491,544,o),
(499,445,o),
(496,339,cs),
(493,233,o),
(484,63,o),
(482,41,cs),
(478,0,o),
(464,0,o),
(442,0,cs),
(430,0,o),
(408,0,o),
(389,0,cs),
(362,0,o),
(362,11,o),
(369,21,cs),
(382,41,o),
(404,84,o),
(416,134,cs),
(428,184,o),
(441,247,o),
(441,332,cs),
(441,410,o),
(435,447,o),
(426,470,cs),
(418,490,o),
(405,495,o),
(390,484,cs),
(367,467,o),
(337,430,o),
(293,357,cs),
(252,290,o),
(223,231,o),
(190,145,cs),
(178,113,o),
(167,85,o),
(167,73,c),
(166,29,o),
(149,34,o),
(133,42,c)
);
}
);
};
guides = (
{
position = "{0, 845}";
}
);
layerId = "7BB6E1F7-E231-4E79-9496-BA3D1CB9CE3C";
shapes = (
{
closed = 1;
nodes = (
(111,182,o),
(119,280,o),
(119,398,cs),
(119,541,o),
(102,661,o),
(72,724,cs),
(53,764,o),
(53,773,o),
(72,773,cs),
(116,773,ls),
(137,773,o),
(153,773,o),
(159,736,cs),
(178,622,o),
(178,340,o),
(177,246,c),
(224,353,o),
(365,570,o),
(408,603,cs),
(454,639,o),
(487,619,o),
(493,578,cs),
(511,452,o),
(498,124,o),
(489,41,cs),
(485,0,o),
(471,0,o),
(449,0,cs),
(396,0,ls),
(369,0,o),
(366,6,o),
(394,53,cs),
(432,118,o),
(458,326,o),
(439,445,cs),
(432,491,o),
(412,495,o),
(397,484,cs),
(374,467,o),
(344,430,o),
(300,357,cs),
(259,290,o),
(230,231,o),
(197,145,cs),
(185,113,o),
(174,85,o),
(174,73,cs),
(174,72,o),
(174,70,o),
(174,69,cs),
(174,57,o),
(173,44,o),
(173,32,c),
(172,6,o),
(165,0,o),
(147,0,cs),
(80,0,ls),
(42,0,o),
(85,44,o),
(100,122,cs)
);
}
);
width = 575;
},
{
background = {
shapes = (
{
closed = 1;
nodes = (
(76,59,o),
(87,87,o),
(92,116,cs),
(100,162,o),
(113,261,o),
(113,399,cs),
(113,455,o),
(110,539,o),
(92,634,cs),
(83,681,o),
(71,714,o),
(55,747,cs),
(46,766,o),
(52,773,o),
(71,773,cs),
(90,773,o),
(90,773,o),
(115,773,cs),
(136,773,o),
(143,769,o),
(148,756,cs),
(155,735,o),
(161,687,o),
(165,633,cs),
(173,517,o),
(172,281,o),
(166,32,cs),
(165,6,o),
(158,0,o),
(140,0,cs),
(122,0,o),
(93,0,o),
(72,0,cs),
(52,0,o),
(50,12,o),
(64,37,cs)
);
},
{
closed = 1;
nodes = (
(158,222,l),
(210,327,o),
(236,374,o),
(295,463,cs),
(357,557,o),
(389,594,o),
(422,616,cs),
(447,632,o),
(480,619,o),
(486,578,cs),
(491,544,o),
(499,445,o),
(496,339,cs),
(493,233,o),
(484,63,o),
(482,41,cs),
(478,0,o),
(464,0,o),
(442,0,cs),
(430,0,o),
(408,0,o),
(389,0,cs),
(362,0,o),
(362,11,o),
(369,21,cs),
(382,41,o),
(404,84,o),
(416,134,cs),
(428,184,o),
(441,247,o),
(441,332,cs),
(441,410,o),
(435,447,o),
(426,470,cs),
(418,490,o),
(405,495,o),
(390,484,cs),
(367,467,o),
(337,430,o),
(293,357,cs),
(252,290,o),
(223,231,o),
(190,145,cs),
(178,113,o),
(167,85,o),
(167,73,c),
(166,29,o),
(149,34,o),
(133,42,c)
);
},
{
closed = 1;
nodes = (
(95,182,o),
(103,280,o),
(103,398,cs),
(103,541,o),
(86,661,o),
(56,724,cs),
(37,764,o),
(37,773,o),
(56,773,cs),
(100,773,ls),
(121,773,o),
(137,773,o),
(143,736,cs),
(162,622,o),
(162,340,o),
(161,246,c),
(208,353,o),
(349,570,o),
(392,603,cs),
(438,639,o),
(471,619,o),
(477,578,cs),
(495,452,o),
(482,124,o),
(473,41,cs),
(469,0,o),
(455,0,o),
(433,0,cs),
(380,0,ls),
(353,0,o),
(350,6,o),
(378,53,cs),
(416,118,o),
(442,326,o),
(423,445,cs),
(416,491,o),
(396,495,o),
(381,484,cs),
(358,467,o),
(328,430,o),
(284,357,cs),
(243,290,o),
(214,231,o),
(181,145,cs),
(169,113,o),
(158,85,o),
(158,73,c),
(158,72,o),
(158,70,o),
(158,69,c),
(158,57,o),
(157,44,o),
(157,32,cs),
(156,6,o),
(149,0,o),
(131,0,cs),
(64,0,ls),
(26,0,o),
(69,44,o),
(84,122,cs)
);
}
);
};
guides = (
{
position = "{0, 845}";
}
);
layerId = "EB85BB17-2D13-4234-8B6F-29F99969393B";
shapes = (
{
closed = 1;
nodes = (
(90,182,o),
(98,280,o),
(98,398,cs),
(98,541,o),
(81,661,o),
(51,724,cs),
(32,764,o),
(32,773,o),
(51,773,cs),
(95,773,ls),
(116,773,o),
(132,773,o),
(138,736,cs),
(157,622,o),
(157,340,o),
(156,246,c),
(203,353,o),
(347.779,603,o),
(401.983,603,cs),
(444.61,603,o),
(474.288,611.251,o),
(476.762,569.825,cs),
(484.347,442.772,o),
(477,124,o),
(468,41,cs),
(464,0,o),
(450,0,o),
(428,0,cs),
(375,0,ls),
(348,0,o),
(345,6,o),
(373,53,cs),
(411,118,o),
(437,326,o),
(418,445,cs),
(411,491,o),
(391,495,o),
(376,484,cs),
(353,467,o),
(323,430,o),
(279,357,cs),
(238,290,o),
(209,231,o),
(176,145,cs),
(164,113,o),
(153,85,o),
(153,73,c),
(153,72,o),
(153,70,o),
(153,69,c),
(153,57,o),
(152,44,o),
(152,32,cs),
(151,6,o),
(144,0,o),
(126,0,cs),
(59,0,ls),
(21,0,o),
(64,44,o),
(79,122,cs)
);
}
);
width = 550;
}
);
unicode = 104;
},
{
glyphname = m;
leftMetricsKey = n;
rightMetricsKey = n;
layers = (
{
background = {
shapes = (
{
closed = 1;
nodes = (
(470,114,o),
(474,215,o),
(477,339,cs),
(480,445,o),
(475,540,o),
(467,578,cs),
(458,618,o),
(428,632,o),
(403,616,cs),
(370,594,o),
(330.387,544.934,o),
(251.864,437.35,cs),
(208.988,378.607,o),
(186.152,339,o),
(137,264,c),
(137,274,o),
(137,284,o),
(137,294,cs),
(137,364,o),
(125,404,o),
(120,417,cs),
(115,430,o),
(111.866,434,o),
(93.866,434,cs),
(75.015,434,ls),
(56.015,434,o),
(54,427,o),
(64,408,cs),
(89,360,o),
(105,303,o),
(101,209,cs),
(98,127,o),
(88.747,88.418,o),
(64.216,35.268,cs),
(55.587,16.572,o),
(43,0,o),
(68,0,cs),
(96,0,ls),
(122,0,o),
(119.429,12.065,o),
(122,32,cs),
(127.901,77.755,o),
(130.992,96.413,o),
(137,162.571,c),
(158,236.571,o),
(229.219,334.073,o),
(269.794,396.687,cs),
(324.603,481.267,o),
(367.928,529.94,o),
(390.953,546.906,cs),
(405.928,557.94,o),
(428.491,553.384,o),
(432.757,523.52,cs),
(441.618,461.494,o),
(446.267,401.932,o),
(439.961,284,cs),
(433.654,166.068,o),
(422.091,86.229,o),
(388.896,21,cs),
(383.359,10.121,o),
(381.896,0,o),
(408.896,0,cs),
(440.358,0,ls),
(458.358,0,o),
(462,14,o),
(466,65,cs)
);
},
{
closed = 1;
nodes = (
(788.465,114.006,o),
(792.309,215.006,o),
(795.544,339,cs),
(798.309,445.006,o),
(793.814,540.058,o),
(785.544,578,cs),
(776.813,618.06,o),
(746.372,632.266,o),
(721.544,616,cs),
(688.369,594.265,o),
(648.932,544.934,o),
(570.408,437.35,cs),
(527.533,378.607,o),
(504.696,339,o),
(455.544,264,c),
(455.544,274,o),
(455.544,284,o),
(455.544,294,cs),
(455.544,364,o),
(443.544,404,o),
(438.544,417,cs),
(433.544,430,o),
(430.41,434,o),
(412.41,434,cs),
(393.559,434,ls),
(374.559,434,o),
(372.603,427.031,o),
(382.544,408,cs),
(407.603,360.031,o),
(423.283,303.011,o),
(419.544,209,cs),
(416.283,127.01,o),
(407.291,88.418,o),
(382.76,35.268,cs),
(374.131,16.572,o),
(361.544,0,o),
(386.544,0,cs),
(414.544,0,ls),
(440.544,0,o),
(437.973,12.065,o),
(440.544,32,cs),
(446.445,77.755,o),
(449.536,96.413,o),
(455.544,162.571,c),
(476.544,236.571,o),
(547.763,334.073,o),
(588.338,396.687,cs),
(643.147,481.267,o),
(686.472,529.94,o),
(709.497,546.906,cs),
(724.472,557.94,o),
(747.035,553.384,o),
(751.301,523.52,cs),
(760.162,461.494,o),
(764.811,401.932,o),
(758.505,284,cs),
(752.198,166.068,o),
(740.635,86.229,o),
(707.44,21,cs),
(701.903,10.121,o),
(700.44,0,o),
(727.44,0,cs),
(758.902,0,ls),
(776.902,0,o),
(780.465,14.006,o),
(784.544,65,cs)
);
}
);
};
layerId = "7BB6E1F7-E231-4E79-9496-BA3D1CB9CE3C";
shapes = (
{
closed = 1;
nodes = (
(125.361,52,o),
(135.184,143.268,o),
(136.184,161.268,c),
(157.395,229.496,o),
(202.998,295.25,o),
(268.752,397.415,cs),
(314.064,467.82,o),
(358.877,521.451,o),
(389.303,544.851,cs),
(406.011,557.703,o),
(427.404,548.998,o),
(433.245,523.176,cs),
(438.694,499.086,o),
(444.63,381.275,o),
(439.085,282.479,cs),
(436.494,236.313,o),
(432.68,185.271,o),
(407.793,113.456,cs),
(394.669,75.583,o),
(386.462,55.151,o),
(375.085,28.131,cs),
(367.423,9.934,o),
(372.263,0,o),
(394.213,0,cs),
(410.987,0,o),
(398.328,0.52,o),
(425.143,0.52,cs),
(454.819,0.52,o),
(449.651,20.014,o),
(463.901,136.959,c),
(465.901,165.959,o),
(549.367,325.023,o),
(591,392,cs),
(635.669,463.86,o),
(680.745,522.399,o),
(703,541,cs),
(730.238,563.766,o),
(747.346,545.032,o),
(751.754,523.947,cs),
(762.507,472.519,o),
(763.847,361.468,o),
(758.157,283.515,cs),
(747.347,135.391,o),
(729.581,61.055,o),
(707.712,21,cs),
(701.862,10.286,o),
(700.712,0,o),
(727.712,0,cs),
(746,0,ls),
(768,0,o),
(777.475,0.521,o),
(782.411,41.419,cs),
(786.034,71.437,o),
(794.839,232.295,o),
(797.839,338.295,cs),
(800.839,444.295,o),
(796.09,508.36,o),
(790.448,567.602,cs),
(786.519,608.852,o),
(764.43,608.037,o),
(735.1,608.037,cs),
(687,608.037,o),
(648.391,542.208,o),
(603,475.747,cs),
(553.954,403.933,o),
(503.657,317.693,o),
(474.572,263.808,c),
(477.782,350.463,o),
(481.002,472.844,o),
(471,569.033,cs),
(466.76,609.813,o),
(446.072,607.212,o),
(413.029,607.212,cs),
(373.368,607.212,o),
(294.912,502.056,o),
(251.076,436.655,cs),
(207.24,371.255,o),
(181.434,335.904,o),
(137.438,264,c),
(137.438,274,o),
(137.438,284,o),
(137.438,294,cs),
(137.438,364,o),
(125.507,404.027,o),
(120.438,417,cs),
(114.106,433.202,o),
(105.438,434,o),
(87.438,434,cs),
(75.985,434,ls),
(56.985,434,o),
(52.665,426.295,o),
(63.585,407.808,cs),
(84.21,372.89,o),
(108,306.925,o),
(100.74,208.13,cs),
(93.48,109.335,o),
(82.563,70.466,o),
(61.446,30.905,cs),
(51.749,12.74,o),
(47,0,o),
(72,0,cs),
(97.361,0,ls),
(123.361,0,o),
(121.361,12,o),
(123.361,32,cs)
);
}
);
width = 871;
},
{
background = {
shapes = (
{
closed = 1;
nodes = (
(114,42,l),
(130,34,o),
(146,37,o),
(149,81,cs),
(150,95,o),
(159,113,o),
(171,145,cs),
(204,231,o),
(233,290,o),
(274,357,cs),
(318,430,o),
(348,467,o),
(371,484,cs),
(386,495,o),
(399,490,o),
(407,470,cs),
(416,447,o),
(422,410,o),
(422,332,cs),
(422,247,o),
(409,184,o),
(397,134,cs),
(385,84,o),
(363,41,o),
(350,21,cs),
(343,11,o),
(343,0,o),
(370,0,cs),
(389,0,o),
(438,0,o),
(450,0,cs),
(468,0,o),
(469,25,o),
(468,81,cs),
(467,137,o),
(474,233,o),
(477,339,cs),
(480,445,o),
(472,544,o),
(467,578,cs),
(461,619,o),
(428,632,o),
(403,616,cs),
(370,594,o),
(338,557,o),
(276,463,cs),
(217,374,o),
(191,327,o),
(139,222,c)
);
},
{
closed = 1;
nodes = (
(433,42,l),
(449,34,o),
(465,37,o),
(468,81,cs),
(469,95,o),
(478,113,o),
(490,145,cs),
(523,231,o),
(552,290,o),
(593,357,cs),
(637,430,o),
(667,467,o),
(690,484,cs),
(705,495,o),
(718,490,o),
(726,470,cs),
(735,447,o),
(741,410,o),
(741,332,cs),
(741,247,o),
(728,184,o),
(716,134,cs),
(704,84,o),
(682,41,o),
(669,21,cs),
(662,11,o),
(662,0,o),
(689,0,cs),
(708,0,o),
(730,0,o),
(742,0,cs),
(764,0,o),
(778,0,o),
(782,41,cs),
(784,63,o),
(793,233,o),
(796,339,cs),
(799,445,o),
(791,544,o),
(786,578,cs),
(780,619,o),
(747,632,o),
(722,616,cs),
(689,594,o),
(657,557,o),
(595,463,cs),
(536,374,o),
(510,327,o),
(458,222,c)
);
},
{
closed = 1;
nodes = (
(156,148,o),
(160,224,o),
(160,294,cs),
(160,364,o),
(148,404,o),
(143,417,cs),
(138,430,o),
(128,434,o),
(110,434,cs),
(92,434,o),
(99,434,o),
(80,434,cs),
(61,434,o),
(55,427,o),
(64,408,cs),
(73,389,o),
(95,342,o),
(99,303,cs),
(105,248,o),
(104,188,o),
(94,134,cs),
(86,94,o),
(77,65,o),
(58,35,cs),
(47,18,o),
(43,0,o),
(68,0,cs),
(93,0,o),
(93,0,o),
(119,0,cs),
(145,0,o),
(143,12,o),
(145,32,cs)
);
},
{
closed = 1;
nodes = (
(147,52,o),
(149,70,o),
(150,88,c),
(171,162,o),
(229,279,o),
(262,337,cs),
(303,410,o),
(348,467,o),
(371,484,cs),
(386,495,o),
(399,490,o),
(407,470,cs),
(416,447,o),
(424,362,o),
(419,284,cs),
(412,175,o),
(392,79,o),
(350,21,cs),
(343,11,o),
(343,0,o),
(370,0,cs),
(450,0,ls),
(468,0,o),
(469,25,o),
(468,81,c),
(470,110,o),
(527,240,o),
(574,326,cs),
(621,412,o),
(667,467,o),
(690,484,cs),
(705,495,o),
(718,490,o),
(726,470,cs),
(735,447,o),
(743,358,o),
(738,280,cs),
(731,159,o),
(705,75,o),
(669,21,cs),
(662,11,o),
(662,0,o),
(689,0,cs),
(742,0,ls),
(764,0,o),
(778,0,o),
(782,41,cs),
(784,63,o),
(793,233,o),
(796,339,cs),
(799,445,o),
(791,544,o),
(786,578,cs),
(780,619,o),
(747,632,o),
(722,616,cs),
(689,594,o),
(644,538,o),
(599,470,cs),
(554,402,o),
(516,338,o),
(474,254,c),
(475,281,o),
(476,310,o),
(477,339,cs),
(480,445,o),
(475,540,o),
(467,578,cs),
(458,618,o),
(428,632,o),
(403,616,cs),
(370,594,o),
(338,557,o),
(276,463,cs),
(225,387,o),
(199,341,o),
(160,264,c),
(160,274,o),
(160,284,o),
(160,294,cs),
(160,364,o),
(150,455,o),
(145,468,cs),
(140,481,o),
(130,485,o),
(112,485,cs),
(82,485,ls),
(63,485,o),
(56.059,478.031,o),
(66,459,cs),
(91.059,411.031,o),
(105,303,o),
(101,209,cs),
(98,127,o),
(86,84,o),
(58,35,cs),
(48,17,o),
(43,0,o),
(68,0,cs),
(119,0,ls),
(145,0,o),
(143,12,o),
(145,32,cs)
);
}
);
};
layerId = "EB85BB17-2D13-4234-8B6F-29F99969393B";
shapes = (
{
closed = 1;
nodes = (
(140,52,o),
(142,70,o),
(143,88,c),
(164,162,o),
(222,279,o),
(255,337,cs),
(296,410,o),
(341,467,o),
(364,484,cs),
(379,495,o),
(392,490,o),
(400,470,cs),
(409,447,o),
(417,362,o),
(412,284,cs),
(405,175,o),
(385,79,o),
(343,21,cs),
(336,11,o),
(336,0,o),
(363,0,cs),
(443,0,ls),
(461,0,o),
(462,25,o),
(461,81,c),
(463,110,o),
(520,240,o),
(567,326,cs),
(614,412,o),
(660,467,o),
(683,484,cs),
(698,495,o),
(711,490,o),
(719,470,cs),
(728,447,o),
(736,358,o),
(731,280,cs),
(724,159,o),
(698,75,o),
(662,21,cs),
(655,11,o),
(655,0,o),
(682,0,cs),
(735,0,ls),
(757,0,o),
(771,0,o),
(775,41,cs),
(777,63,o),
(786,233,o),
(789,339,cs),
(792,445,o),
(788.705,529.506,o),
(786.134,563.775,cs),
(782.908,606.787,o),
(754.726,606.787,o),
(710.863,606.787,cs),
(674.805,606.787,o),
(634,538,o),
(589,470,cs),
(544,402,o),
(509,338,o),
(467,254,c),
(468,281,o),
(469,310,o),
(470,339,cs),
(473,445,o),
(470.911,512.294,o),
(467.18,563.282,cs),
(464.188,604.173,o),
(448.538,606.614,o),
(398.049,606.614,cs),
(349.155,606.614,o),
(326.335,556.778,o),
(264,463,cs),
(213.334,386.777,o),
(192,341,o),
(153,264,c),
(153,274,o),
(153,284,o),
(153,294,cs),
(153,364,o),
(143,455,o),
(138,468,cs),
(133,481,o),
(123,485,o),
(105,485,cs),
(75,485,ls),
(56,485,o),
(49.059,478.031,o),
(59,459,cs),
(84.059,411.031,o),
(98,303,o),
(94,209,cs),
(91,127,o),
(79,84,o),
(51,35,cs),
(41,17,o),
(36,0,o),
(61,0,cs),
(112,0,ls),
(138,0,o),
(136,12,o),
(138,32,cs)
);
}
);
width = 861;
}
);
rightKerningGroup = m;
unicode = 109;
},
{
glyphname = n;
layers = (
{
background = {
shapes = (
{
closed = 1;
nodes = (
(114,42,l),
(130,34,o),
(146,37,o),
(149,81,cs),
(150,95,o),
(159,113,o),
(171,145,cs),
(204,231,o),
(233,290,o),
(274,357,cs),
(318,430,o),
(348,467,o),
(371,484,cs),
(386,495,o),
(399,490,o),
(407,470,cs),
(416,447,o),
(422,410,o),
(422,332,cs),
(422,247,o),
(409,184,o),
(397,134,cs),
(385,84,o),
(363,41,o),
(350,21,cs),
(343,11,o),
(343,0,o),
(370,0,cs),
(389,0,o),
(411,0,o),
(423,0,cs),
(445,0,o),
(459,0,o),
(463,41,cs),
(465,63,o),
(474,233,o),
(477,339,cs),
(480,445,o),
(472,544,o),
(467,578,cs),
(461,619,o),
(428,632,o),
(403,616,cs),
(370,594,o),
(338,557,o),
(276,463,cs),
(217,374,o),
(191,327,o),
(139,222,c)
);
},
{
closed = 1;
nodes = (
(156,148,o),
(160,224,o),
(160,294,cs),
(160,364,o),
(148,404,o),
(143,417,cs),
(138,430,o),
(128,434,o),
(110,434,cs),
(92,434,o),
(99,434,o),
(80,434,cs),
(61,434,o),
(55,427,o),
(64,408,cs),
(73,389,o),
(95,342,o),
(99,303,cs),
(105,248,o),
(104,188,o),
(94,134,cs),
(86,94,o),
(77,65,o),
(58,35,cs),
(47,18,o),
(43,0,o),
(68,0,cs),
(93,0,o),
(93,0,o),
(119,0,cs),
(145,0,o),
(143,12,o),
(145,32,cs)
);
}
);
};
layerId = "7BB6E1F7-E231-4E79-9496-BA3D1CB9CE3C";
shapes = (
{
closed = 1;
nodes = (
(470,114,o),
(474,215,o),
(477,339,cs),
(480,445,o),
(474.328,513.985,o),
(471.189,557.936,cs),
(467.918,603.727,o),
(458.343,605.362,o),
(418.201,605.362,cs),
(378.54,605.362,o),
(330.524,547.584,o),
(252,440,cs),
(209.125,381.258,o),
(186.152,339,o),
(137,264,c),
(137,274,o),
(137,284,o),
(137,294,cs),
(137,364,o),
(125,404,o),
(120,417,cs),
(115,430,o),
(111.866,434,o),
(93.866,434,cs),
(75.015,434,ls),
(56.015,434,o),
(54,427,o),
(64,408,cs),
(89,360,o),
(105,303,o),
(101,209,cs),
(98,127,o),
(88.747,88.418,o),
(64.216,35.268,cs),
(55.587,16.572,o),
(43,0,o),
(68,0,cs),
(96,0,ls),
(122,0,o),
(119.429,12.065,o),
(122,32,cs),
(127.901,77.755,o),
(130.992,96.413,o),
(137,162.571,c),
(158,236.571,o),
(229.219,334.073,o),
(269.794,396.687,cs),
(324.603,481.267,o),
(367.928,529.94,o),
(390.953,546.906,cs),
(405.928,557.94,o),
(428.491,553.384,o),
(432.757,523.52,cs),
(441.618,461.494,o),
(446.267,401.932,o),
(439.961,284,cs),
(433.654,166.068,o),
(422.091,86.229,o),
(388.896,21,cs),
(383.359,10.121,o),
(381.896,0,o),
(408.896,0,cs),
(440.358,0,ls),
(458.358,0,o),
(462,14,o),
(466,65,cs)
);
}
);
width = 550;
},
{
background = {
shapes = (
{
closed = 1;
nodes = (
(114,42,l),
(130,34,o),
(146,37,o),
(149,81,cs),
(150,95,o),
(159,113,o),
(171,145,cs),
(204,231,o),
(233,290,o),
(274,357,cs),
(318,430,o),
(348,467,o),
(371,484,cs),
(386,495,o),
(399,490,o),
(407,470,cs),
(416,447,o),
(422,410,o),
(422,332,cs),
(422,247,o),
(409,184,o),
(397,134,cs),
(385,84,o),
(363,41,o),
(350,21,cs),
(343,11,o),
(343,0,o),
(370,0,cs),
(389,0,o),
(411,0,o),
(423,0,cs),
(445,0,o),
(459,0,o),
(463,41,cs),
(465,63,o),
(474,233,o),
(477,339,cs),
(480,445,o),
(472,544,o),
(467,578,cs),
(461,619,o),
(428,632,o),
(403,616,cs),
(370,594,o),
(338,557,o),
(276,463,cs),
(217,374,o),
(191,327,o),
(139,222,c)
);
},
{
closed = 1;
nodes = (
(156,148,o),
(160,224,o),
(160,294,cs),
(160,364,o),
(148,404,o),
(143,417,cs),
(138,430,o),
(128,434,o),
(110,434,cs),
(92,434,o),
(99,434,o),
(80,434,cs),
(61,434,o),
(55,427,o),
(64,408,cs),
(73,389,o),
(95,342,o),
(99,303,cs),
(105,248,o),
(104,188,o),
(94,134,cs),
(86,94,o),
(77,65,o),
(58,35,cs),
(47,18,o),
(43,0,o),
(68,0,cs),
(93,0,o),
(93,0,o),
(119,0,cs),
(145,0,o),
(143,12,o),
(145,32,cs)
);
},
{
closed = 1;
nodes = (
(470,114,o),
(474,215,o),
(477,339,cs),
(480,445,o),
(475,540,o),
(467,578,cs),
(458,618,o),
(428,632,o),
(403,616,cs),
(370,594,o),
(338,557,o),
(276,463,cs),
(225,387,o),
(199,341,o),
(160,264,c),
(160,274,o),
(160,284,o),
(160,294,cs),
(160,364,o),
(152,451,o),
(147,464,cs),
(142,477,o),
(132,481,o),
(114,481,cs),
(84,481,ls),
(65,481,o),
(58.059,474.031,o),
(68,455,cs),
(93.059,407.031,o),
(105,303,o),
(101,209,cs),
(98,127,o),
(86,84,o),
(58,35,cs),
(48,17,o),
(43,0,o),
(68,0,cs),
(119,0,ls),
(145,0,o),
(143,12,o),
(145,32,cs),
(147,52,o),
(149,70,o),
(150,88,c),
(171,162,o),
(229,279,o),
(262,337,cs),
(303,410,o),
(348,467,o),
(371,484,cs),
(386,495,o),
(399,490,o),
(407,470,cs),
(416,447,o),
(424,362,o),
(419,284,cs),
(412,175,o),
(392,79,o),
(350,21,cs),
(343,11,o),
(343,0,o),
(370,0,cs),
(430,0,ls),
(448,0,o),
(462,14,o),
(466,65,cs)
);
}
);
};
layerId = "EB85BB17-2D13-4234-8B6F-29F99969393B";
shapes = (
{
closed = 1;
nodes = (
(463,114,o),
(467,215,o),
(470,339,cs),
(473,445,o),
(472.463,497.495,o),
(472.463,536.328,cs),
(472.463,608.703,o),
(458.662,606.793,o),
(396.899,606.793,cs),
(357.86,606.793,o),
(319.975,563.98,o),
(263.457,466.666,cs),
(217.49,387.519,o),
(192,341,o),
(153,264,c),
(153,274,o),
(153,284,o),
(153,294,cs),
(153,364,o),
(145,451,o),
(140,464,cs),
(135,477,o),
(125,481,o),
(107,481,cs),
(77,481,ls),
(58,481,o),
(51.059,474.031,o),
(61,455,cs),
(86.059,407.031,o),
(98,303,o),
(94,209,cs),
(91,127,o),
(79,84,o),
(51,35,cs),
(41,17,o),
(36,0,o),
(61,0,cs),
(112,0,ls),
(138,0,o),
(136,12,o),
(138,32,cs),
(140,52,o),
(142,70,o),
(143,88,c),
(164,162,o),
(222,279,o),
(255,337,cs),
(296,410,o),
(331.588,453.836,o),
(358.752,481,cs),
(377.301,499.549,o),
(398.659,492.727,o),
(404.224,466.14,cs),
(409.283,441.965,o),
(417,362,o),
(412,284,cs),
(405,175,o),
(385,79,o),
(343,21,cs),
(336,11,o),
(336,0,o),
(363,0,cs),
(423,0,ls),
(441,0,o),
(455,14,o),
(459,65,cs)
);
}
);
width = 543;
}
);
rightKerningGroup = m;
unicode = 110;
},
{
glyphname = o;
rightMetricsKey = n;
layers = (
{
background = {
shapes = (
{
closed = 1;
nodes = (
(403,625,o),
(390,633,o),
(337,607,cs),
(232,556,o),
(182,528,o),
(109,474,cs),
(72,447,o),
(61,433,o),
(67,405,cs),
(78,352,o),
(81,316,o),
(81,230,cs),
(81,158,o),
(67,46,o),
(63,26,cs),
(57,0,o),
(71,0,o),
(104,0,cs),
(130,0,o),
(371,0,o),
(380,0,cs),
(402,0,o),
(401,26,o),
(403,45,cs),
(409,117,o),
(358,86,o),
(322,70,cs),
(290,56,o),
(197,50,o),
(161,76,cs),
(143,88,o),
(139,172,o),
(139,242,cs),
(139,295,o),
(147,395,o),
(155,413,cs),
(162,429,o),
(186,465,o),
(235,491,cs),
(308,530,o),
(331,515,o),
(340,489,cs),
(347,468,o),
(358,394,o),
(358,301,cs),
(358,196,o),
(348,86,o),
(322,70,cs),
(293,51,o),
(317,39,o),
(335,37,cs),
(352,35,o),
(400,17,o),
(403,45,cs),
(410,117,o),
(413,187,o),
(415,301,cs),
(417,419,o),
(412,533,o),
(408,573,cs)
);
}
);
};
layerId = "7BB6E1F7-E231-4E79-9496-BA3D1CB9CE3C";
shapes = (
{
closed = 1;
nodes = (
(404,625,o),
(391,631,o),
(337,607,cs),
(235,561,o),
(173,525,o),
(109,475,cs),
(73,447,o),
(62.212,433.233,o),
(67,405,cs),
(77.255,344.529,o),
(80,300,o),
(80,214,cs),
(80,142,o),
(72,61,o),
(63,26,cs),
(56,0,o),
(71,0,o),
(104,0,cs),
(380,0,ls),
(402,0,o),
(401,26,o),
(403,45,cs),
(418,203,o),
(421,406,o),
(408,573,cs)
);
},
{
closed = 1;
nodes = (
(250.453,35.057,o),
(207.081,35.057,o),
(156.537,36.515,cs),
(107.915,37.917,o),
(114.034,51.052,o),
(113.029,87.74,cs),
(111.792,132.876,o),
(113.647,347.775,o),
(113.647,378.959,cs),
(113.647,405,o),
(114.83,418.373,o),
(130.959,434.605,cs),
(184.219,488.205,o),
(266.807,533.179,o),
(318.322,552.804,cs),
(358.626,568.158,o),
(369.241,558.59,o),
(375.182,518.397,cs),
(381.58,475.115,o),
(384.376,420.877,o),
(381.15,299.72,cs),
(377.925,178.563,o),
(372.494,114.084,o),
(366.58,74.835,cs),
(361.969,44.234,o),
(337.286,41.554,o),
(293.46,38.275,cs)
);
}
);
width = 489;
},
{
background = {
shapes = (
{
closed = 1;
nodes = (
(403,625,o),
(390,633,o),
(337,607,cs),
(232,556,o),
(182,528,o),
(109,474,cs),
(72,447,o),
(61,433,o),
(67,405,cs),
(78,352,o),
(81,316,o),
(81,230,cs),
(81,158,o),
(67,46,o),
(63,26,cs),
(57,0,o),
(71,0,o),
(104,0,cs),
(130,0,o),
(371,0,o),
(380,0,cs),
(402,0,o),
(401,26,o),
(403,45,cs),
(409,117,o),
(358,86,o),
(322,70,cs),
(290,56,o),
(197,50,o),
(161,76,cs),
(143,88,o),
(139,172,o),
(139,242,cs),
(139,295,o),
(147,395,o),
(155,413,cs),
(162,429,o),
(186,465,o),
(235,491,cs),
(308,530,o),
(331,515,o),
(340,489,cs),
(347,468,o),
(358,394,o),
(358,301,cs),
(358,196,o),
(348,86,o),
(322,70,cs),
(293,51,o),
(317,39,o),
(335,37,cs),
(352,35,o),
(400,17,o),
(403,45,cs),
(410,117,o),
(413,187,o),
(415,301,cs),
(417,419,o),
(412,533,o),
(408,573,cs)
);
}
);
};
layerId = "EB85BB17-2D13-4234-8B6F-29F99969393B";
shapes = (
{
closed = 1;
nodes = (
(404,625,o),
(391,631,o),
(337,607,cs),
(235,561,o),
(173,525,o),
(109,475,cs),
(73,447,o),
(61,433,o),
(67,405,cs),
(78,352,o),
(80,300,o),
(80,214,cs),
(80,142,o),
(72,61,o),
(63,26,cs),
(56,0,o),
(71,0,o),
(104,0,cs),
(380,0,ls),
(402,0,o),
(401,26,o),
(403,45,cs),
(418,203,o),
(421,406,o),
(408,573,cs)
);
},
{
closed = 1;
nodes = (
(265,57,o),
(226,56,o),
(194,63,cs),
(155,72,o),
(154,83,o),
(142,146,cs),
(134,187,o),
(139,324,o),
(147,373,cs),
(155,419,o),
(163,445,o),
(231,486,cs),
(303,529,o),
(333,516,o),
(340,489,cs),
(349,454,o),
(358,394,o),
(358,301,cs),
(358,236,o),
(356,180,o),
(346,127,cs),
(337,80,o),
(325,67,o),
(294,62,cs)
);
}
);
width = 487;
}
);
leftKerningGroup = c;
rightKerningGroup = i;
unicode = 111;
},
{
glyphname = x;
layers = (
{
background = {
shapes = (
{
closed = 1;
nodes = (
(355,604,o),
(362,607,o),
(384,607,cs),
(407,607,o),
(418,607,o),
(445,607,cs),
(464,607,o),
(467,596,o),
(446,556,cs),
(422,511,o),
(326,354,o),
(281,278,cs),
(249,223,o),
(225,183,o),
(179,91,cs),
(153,40,o),
(140,1,o),
(120,1,cs),
(91,1,o),
(79,0,o),
(54,0,cs),
(23,0,o),
(21,16,o),
(31,28,cs),
(46,46,o),
(62,43,o),
(95,86,cs),
(143,148,o),
(196,241,o),
(240,324,cs),
(289,415,o),
(341,511,o),
(352,581,cs)
);
},
{
closed = 1;
nodes = (
(213,335,o),
(231,304,o),
(275,241,cs),
(329,164,o),
(356,128,o),
(381,93,cs),
(406,58,o),
(435,44,o),
(450,26,cs),
(460,14,o),
(458,0,o),
(427,0,cs),
(399,0,o),
(386,1,o),
(357,1,cs),
(337,1,o),
(324,46,o),
(297,97,cs),
(267,154,o),
(256,169,o),
(220,222,cs),
(194,261,o),
(163,296,o),
(73,384,cs),
(44,412,o),
(33,432,o),
(63,432,cs),
(81,432,o),
(108,432,o),
(132,432,cs),
(150,432,o),
(154,415,o),
(173,389,cs)
);
}
);
};
layerId = "7BB6E1F7-E231-4E79-9496-BA3D1CB9CE3C";
shapes = (
{
closed = 1;
nodes = (
(358,604,o),
(362,607,o),
(384,607,cs),
(407,607,o),
(418,607,o),
(445,607,cs),
(464,607,o),
(470,594,o),
(446,556,cs),
(394,472,o),
(326,354,o),
(281,278,cs),
(249,223,o),
(222,184,o),
(179,91,cs),
(146,20,o),
(136,1,o),
(116,1,cs),
(83,1,o),
(77,0,o),
(52,0,cs),
(21,0,o),
(18,19,o),
(41,37,cs),
(101,84,o),
(157,174,o),
(236,315,cs),
(287,406,o),
(326,485,o),
(352,581,cs)
);
},
{
closed = 1;
nodes = (
(216,325,o),
(231,304,o),
(275,241,cs),
(326,167,o),
(364,112,o),
(450,26,cs),
(461,15,o),
(466,1,o),
(435,1,cs),
(407,1,o),
(396,1,o),
(367,1,cs),
(347,1,o),
(335,18,o),
(297,97,cs),
(258,177,o),
(165,304,o),
(73,384,cs),
(42,410,o),
(33,432,o),
(63,432,cs),
(81,432,o),
(101,432,o),
(125,432,cs),
(143,432,o),
(157,412,o),
(175,385,cs)
);
}
);
width = 501;
},
{
background = {
shapes = (
{
closed = 1;
nodes = (
(355,604,o),
(362,607,o),
(384,607,cs),
(407,607,o),
(418,607,o),
(445,607,cs),
(464,607,o),
(467,596,o),
(446,556,cs),
(422,511,o),
(326,354,o),
(281,278,cs),
(249,223,o),
(225,183,o),
(179,91,cs),
(153,40,o),
(140,1,o),
(120,1,cs),
(91,1,o),
(79,0,o),
(54,0,cs),
(23,0,o),
(21,16,o),
(31,28,cs),
(46,46,o),
(62,43,o),
(95,86,cs),
(143,148,o),
(196,241,o),
(240,324,cs),
(289,415,o),
(341,511,o),
(352,581,cs)
);
},
{
closed = 1;
nodes = (
(213,335,o),
(231,304,o),
(275,241,cs),
(329,164,o),
(356,128,o),
(381,93,cs),
(406,58,o),
(435,44,o),
(450,26,cs),
(460,14,o),
(458,0,o),
(427,0,cs),
(399,0,o),
(386,1,o),
(357,1,cs),
(337,1,o),
(324,46,o),
(297,97,cs),
(267,154,o),
(256,169,o),
(220,222,cs),
(194,261,o),
(163,296,o),
(73,384,cs),
(44,412,o),
(33,432,o),
(63,432,cs),
(81,432,o),
(108,432,o),
(132,432,cs),
(150,432,o),
(154,415,o),
(173,389,cs)
);
}
);
};
layerId = "EB85BB17-2D13-4234-8B6F-29F99969393B";
shapes = (
{
closed = 1;
nodes = (
(379.262,603.949,o),
(383.197,607,o),
(405.197,607,cs),
(428.197,607,o),
(439.197,607,o),
(466.197,607,cs),
(485.197,607,o),
(490.515,594.151,o),
(465.416,556,cs),
(410.254,472.15,o),
(338.126,354.148,o),
(290.708,278,cs),
(256.55,223.147,o),
(228.504,183.961,o),
(182.178,91,cs),
(146.777,19.961,o),
(136.035,1,o),
(116.035,1,cs),
(83.035,1,o),
(77,0,o),
(52,0,cs),
(21,0,o),
(18.669,18.993,o),
(42.292,37,cs),
(103.939,83.993,o),
(163.07,174.004,o),
(247,315,cs),
(301.171,406.004,o),
(343.106,484.948,o),
(372.289,581,cs)
);
},
{
closed = 1;
nodes = (
(218.992,347.766,o),
(241.835,304.145,o),
(283.416,241,cs),
(332.051,167.144,o),
(367.911,112,o),
(450.908,26,cs),
(461.524,15,o),
(466.035,1,o),
(435.035,1,cs),
(407.035,1,o),
(396.035,1,o),
(367.035,1,cs),
(347.035,1,o),
(335.843,18.096,o),
(300.387,97,cs),
(264.395,177.097,o),
(157.281,325.673,o),
(81.41,417,cs),
(55.997,447.59,o),
(43.086,465,o),
(73.086,465,cs),
(91.086,465,o),
(111.086,465,o),
(135.086,465,cs),
(153.086,465,o),
(163.029,434.767,o),
(180.306,407.908,cs)
);
}
);
width = 494;
}
);
unicode = 120;
},
{
glyphname = s;
layers = (
{
background = {
shapes = (
{
closed = 1;
nodes = (
(178,447,o),
(157,416,o),
(174,391,cs),
(200,353,o),
(136,337,o),
(110,365,cs),
(105,371,o),
(85,387,o),
(80,392,cs),
(58,410,o),
(51,422,o),
(68,437,cs),
(99,465,o),
(283,587,o),
(319,608,cs),
(347,625,o),
(350,578,o),
(350,578,c),
(345,559,o),
(348,483,o),
(339,507,cs),
(329,535,o),
(293,526,o),
(241,490,cs)
);
},
{
closed = 1;
nodes = (
(356,630,o),
(385,617,o),
(391,590,cs),
(399,552,o),
(399,483,o),
(394,432,cs),
(390,396,o),
(386,387,o),
(370,387,cs),
(357,387,o),
(332,387,o),
(314,387,cs),
(283,387,o),
(301,413,o),
(310,426,cs),
(333,458,o),
(344,493,o),
(335,517,cs),
(329,534,o),
(322,534,o),
(299,526,cs),
(184,483,o),
(283,590,o),
(333,617,cs)
);
},
{
closed = 1;
nodes = (
(257,61,o),
(311,64,o),
(288,113,c),
(382,44,l),
(382,44,o),
(399,0,o),
(367,0,cs),
(103,0,ls),
(68,0,o),
(47,0,o),
(43,41,cs),
(39,82,o),
(36,118,o),
(66,103,cs),
(94,89,o),
(132,58,o),
(202,61,c)
);
},
{
closed = 1;
nodes = (
(199,354,o),
(231,308,o),
(267,255,cs),
(319,179,o),
(367,109,o),
(419,28,cs),
(427,16,o),
(428,0,o),
(401,0,cs),
(381,0,o),
(379,0,o),
(356,0,cs),
(339,0,o),
(320,44,o),
(297,93,cs),
(279,132,o),
(271,151,o),
(217,230,cs),
(163,309,o),
(145,330,o),
(63,414,cs),
(57,420,o),
(65,435,o),
(71,437,cs),
(85,442,o),
(112,437,o),
(131,437,cs),
(147,437,o),
(148,430,o),
(165,405,cs)
);
}
);
};
layerId = "7BB6E1F7-E231-4E79-9496-BA3D1CB9CE3C";
shapes = (
{
closed = 1;
nodes = (
(251,500,o),
(204,470,o),
(181,438,cs),
(167,419,o),
(171,396,o),
(184,377,cs),
(261,260,o),
(371,102,o),
(419,28,cs),
(427,16,o),
(428,0,o),
(401,0,cs),
(103,0,ls),
(68,0,o),
(43,0,o),
(43,41,cs),
(43,87,o),
(41,113,o),
(71,98,cs),
(99,84,o),
(138,61,o),
(208,61,cs),
(261,61,o),
(308,64,o),
(290,107,cs),
(261,177,o),
(142,340,o),
(80,392,cs),
(58,411,o),
(50,423,o),
(68,437,cs),
(174,520,o),
(248,566,o),
(333,617,cs),
(377,643,o),
(391,638,o),
(394,590,cs),
(397,551,o),
(399,483,o),
(394,432,cs),
(390,396,o),
(386,387,o),
(370,387,cs),
(322,387,ls),
(291,387,o),
(292,399,o),
(310,426,cs),
(330,456,o),
(338,481,o),
(338,499,cs),
(338,517,o),
(330,531,o),
(284,513,cs)
);
}
);
width = 460;
},
{
background = {
shapes = (
{
closed = 1;
nodes = (
(178,447,o),
(157,416,o),
(174,391,cs),
(200,353,o),
(136,337,o),
(110,365,cs),
(105,371,o),
(85,387,o),
(80,392,cs),
(58,410,o),
(51,422,o),
(68,437,cs),
(99,465,o),
(283,587,o),
(319,608,cs),
(347,625,o),
(350,578,o),
(350,578,c),
(345,559,o),
(348,483,o),
(339,507,cs),
(329,535,o),
(293,526,o),
(241,490,c)
);
},
{
closed = 1;
nodes = (
(356,630,o),
(385,617,o),
(391,590,cs),
(399,552,o),
(399,483,o),
(394,432,cs),
(390,396,o),
(386,387,o),
(370,387,cs),
(357,387,o),
(332,387,o),
(314,387,cs),
(283,387,o),
(301,413,o),
(310,426,cs),
(333,458,o),
(344,493,o),
(335,517,cs),
(329,534,o),
(322,534,o),
(299,526,cs),
(184,483,o),
(283,590,o),
(333,617,cs)
);
},
{
closed = 1;
nodes = (
(257,61,o),
(311,64,o),
(288,113,c),
(382,44,l),
(382,44,o),
(399,0,o),
(367,0,c),
(103,0,l),
(68,0,o),
(47,0,o),
(43,41,cs),
(39,82,o),
(36,118,o),
(66,103,cs),
(94,89,o),
(132,58,o),
(202,61,c)
);
},
{
closed = 1;
nodes = (
(199,354,o),
(231,308,o),
(267,255,cs),
(319,179,o),
(367,109,o),
(419,28,cs),
(427,16,o),
(428,0,o),
(401,0,cs),
(381,0,o),
(379,0,o),
(356,0,cs),
(339,0,o),
(320,44,o),
(297,93,cs),
(279,132,o),
(271,151,o),
(217,230,cs),
(163,309,o),
(145,330,o),
(63,414,cs),
(57,420,o),
(65,435,o),
(71,437,cs),
(85,442,o),
(112,437,o),
(131,437,cs),
(147,437,o),
(148,430,o),
(165,405,cs)
);
}
);
};
layerId = "EB85BB17-2D13-4234-8B6F-29F99969393B";
shapes = (
{
closed = 1;
nodes = (
(240,500,o),
(193,470,o),
(170,438,cs),
(156,419,o),
(160,396,o),
(173,377,cs),
(250,260,o),
(360,102,o),
(408,28,cs),
(416,16,o),
(417,0,o),
(390,0,cs),
(92,0,ls),
(57,0,o),
(32,0,o),
(32,41,cs),
(32,87,o),
(30,113,o),
(60,98,cs),
(88,84,o),
(127,61,o),
(197,61,cs),
(250,61,o),
(297,64,o),
(279,107,cs),
(250,177,o),
(131,340,o),
(69,392,cs),
(47,411,o),
(39,423,o),
(57,437,cs),
(163,520,o),
(237,566,o),
(322,617,cs),
(366,643,o),
(380,638,o),
(383,590,cs),
(386,551,o),
(388,483,o),
(383,432,cs),
(379,396,o),
(375,387,o),
(359,387,cs),
(311,387,ls),
(280,387,o),
(281,399,o),
(299,426,cs),
(319,456,o),
(327,481,o),
(327,499,cs),
(327,517,o),
(319,531,o),
(273,513,cs)
);
}
);
width = 449;
}
);
unicode = 115;
},
{
glyphname = y;
layers = (
{
background = {
shapes = (
{
closed = 1;
nodes = (
(327,380,o),
(332,426,o),
(333,476,cs),
(334,526,o),
(334,548,o),
(323,582,cs),
(317,601,o),
(319,607,o),
(366,607,cs),
(396,607,o),
(405,606,o),
(411,586,cs),
(417,566,o),
(373,332,o),
(347,240,cs),
(318,139,o),
(250,-54,o),
(215,-125,cs),
(192,-172,o),
(178,-200,o),
(154,-200,cs),
(122,-200,o),
(130,-200,o),
(101,-200,cs),
(51,-200,o),
(67,-170,o),
(84,-154,cs),
(164,-83,o),
(206,19,o),
(226,66,cs),
(249,121,o),
(266,170,o),
(273,189,cs),
(280,208,o),
(297,269,o),
(311,322,cs)
);
},
{
closed = 1;
nodes = (
(237,0,l),
(204,-17,ls),
(196,-21,o),
(192,-9,o),
(191,-1,cs),
(188,16,o),
(147,151,o),
(119,231,cs),
(91,311,o),
(43,393,o),
(33,407,cs),
(23,421,o),
(20,433,o),
(40,433,cs),
(60,433,o),
(77,433,o),
(91,433,cs),
(114,433,o),
(118,410,o),
(125,394,cs),
(136,370,o),
(155,307,o),
(170,255,cs),
(185,203,o),
(221,100,o),
(229,100,cs),
(239,100,o),
(266,170,o),
(273,189,cs),
(280,208,o),
(256,118,o),
(267,123,c)
);
}
);
};
layerId = "7BB6E1F7-E231-4E79-9496-BA3D1CB9CE3C";
leftMetricsKey = v;
rightMetricsKey = v;
shapes = (
{
closed = 1;
nodes = (
(335,411,o),
(342,493,o),
(328,565,cs),
(320,604,o),
(319,607,o),
(366,607,cs),
(396,607,o),
(414,609,o),
(410,563,cs),
(404,498,o),
(385,377,o),
(347,240,cs),
(309,103,o),
(250,-54,o),
(215,-125,cs),
(192,-172,o),
(183,-200,o),
(143,-200,cs),
(101,-200,ls),
(64,-200,o),
(59,-183,o),
(91,-155,cs),
(119,-130,o),
(167,-67,o),
(192,-8,c),
(197,2,o),
(146,159,o),
(119,231,cs),
(92,303,o),
(65,357,o),
(33,407,cs),
(24,421,o),
(20,433,o),
(40,433,cs),
(91,433,ls),
(114,433,o),
(119,410,o),
(125,394,cs),
(139,356,o),
(155,307,o),
(170,255,cs),
(185,203,o),
(210,141,o),
(220,121,cs),
(230,101,o),
(233,101,o),
(244,124,cs),
(266,172,o),
(289,239,o),
(311,322,cs)
);
}
);
width = 437;
},
{
background = {
shapes = (
{
closed = 1;
nodes = (
(327,380,o),
(332,426,o),
(333,476,cs),
(334,526,o),
(334,548,o),
(323,582,cs),
(317,601,o),
(319,607,o),
(366,607,cs),
(396,607,o),
(405,606,o),
(411,586,cs),
(417,566,o),
(373,332,o),
(347,240,cs),
(318,139,o),
(250,-54,o),
(215,-125,cs),
(192,-172,o),
(178,-200,o),
(154,-200,cs),
(122,-200,o),
(130,-200,o),
(101,-200,cs),
(51,-200,o),
(67,-170,o),
(84,-154,cs),
(164,-83,o),
(206,19,o),
(226,66,cs),
(249,121,o),
(266,170,o),
(273,189,cs),
(280,208,o),
(297,269,o),
(311,322,cs)
);
},
{
closed = 1;
nodes = (
(237,0,l),
(204,-17,ls),
(196,-21,o),
(192,-9,o),
(191,-1,cs),
(188,16,o),
(147,151,o),
(119,231,cs),
(91,311,o),
(43,393,o),
(33,407,cs),
(23,421,o),
(20,433,o),
(40,433,cs),
(60,433,o),
(77,433,o),
(91,433,cs),
(114,433,o),
(118,410,o),
(125,394,cs),
(136,370,o),
(155,307,o),
(170,255,cs),
(185,203,o),
(221,100,o),
(229,100,cs),
(239,100,o),
(266,170,o),
(273,189,cs),
(280,208,o),
(256,118,o),
(267,123,c)
);
}
);
};
layerId = "EB85BB17-2D13-4234-8B6F-29F99969393B";
shapes = (
{
closed = 1;
nodes = (
(310.741,450.044,o),
(319.439,498.289,o),
(311,565,cs),
(306.003,604.497,o),
(302,607,o),
(349,607,cs),
(379,607,o),
(397,609,o),
(393,563,cs),
(387,498,o),
(371.692,440.97,o),
(333.692,303.97,cs),
(295.692,166.97,o),
(222.354,-56.761,o),
(187.436,-127.801,cs),
(164.354,-174.761,o),
(155.436,-202.801,o),
(115.436,-202.801,cs),
(73.436,-202.801,ls),
(36.436,-202.801,o),
(31.568,-185.951,o),
(63.436,-157.801,cs),
(91.568,-132.95,o),
(145.853,-64.672,o),
(175.31,47.634,cs),
(183.139,77.481,o),
(146.516,177.61,o),
(119.516,249.61,cs),
(92.516,321.61,o),
(69.298,374.752,o),
(43,440.617,cs),
(34.002,463.154,o),
(24.084,480.173,o),
(44.084,480.173,cs),
(95.084,480.173,ls),
(118.084,480.173,o),
(118.333,459.977,o),
(127.959,423.717,cs),
(145.47,357.751,o),
(183.139,243.315,o),
(213,183,cs),
(222.921,162.961,o),
(226.078,156.411,o),
(234,180.644,cs),
(252.384,236.877,o),
(264.741,278.044,o),
(286.925,360.995,cs)
);
}
);
width = 407;
}
);
leftKerningGroup = y;
rightKerningGroup = y1;
unicode = 121;
},
{
glyphname = i;
layers = (
{
background = {
shapes = (
{
closed = 1;
nodes = (
(163,213,o),
(164,354,o),
(162,467,cs),
(161,542,o),
(160,577,o),
(155,590,cs),
(150,603,o),
(140,607,o),
(122,607,cs),
(104,607,o),
(103,607,o),
(84,607,cs),
(65,607,o),
(61,601,o),
(68,581,cs),
(95,499,o),
(101,445,o),
(104,391,cs),
(107,334,o),
(103,243,o),
(97,186,cs),
(91,129,o),
(86,98,o),
(60,35,cs),
(53,18,o),
(45,0,o),
(70,0,cs),
(95,0,o),
(94,0,o),
(120,0,cs),
(146,0,o),
(150,12,o),
(151,32,cs)
);
},
{
closed = 1;
nodes = (
(114,770,o),
(112,775,o),
(92,775,cs),
(74,775,o),
(59,775,o),
(42,775,cs),
(29,775,o),
(23,765,o),
(30,751,cs),
(34,743,o),
(39,734,o),
(45,718,cs),
(50,703,o),
(51,696,o),
(62,696,cs),
(73,696,o),
(90,697,o),
(106,697,cs),
(119,697,o),
(123,707,o),
(123,717,cs),
(123,733,o),
(121,743,o),
(119,750,cs)
);
}
);
};
layerId = "7BB6E1F7-E231-4E79-9496-BA3D1CB9CE3C";
shapes = (
{
closed = 1;
nodes = (
(162,198,o),
(167,407,o),
(160,559,cs),
(158,605,o),
(140,607,o),
(122,607,cs),
(104,607,o),
(103,607,o),
(84,607,cs),
(65,607,o),
(58,601,o),
(77,551,cs),
(95,503,o),
(106,406,o),
(104,308,cs),
(102,201,o),
(86,94,o),
(67,49,cs),
(54,19,o),
(45,0,o),
(70,0,cs),
(95,0,o),
(94,0,o),
(120,0,cs),
(146,0,o),
(150,12,o),
(151,32,cs)
);
},
{
closed = 1;
nodes = (
(114,770,o),
(112,775,o),
(92,775,cs),
(74,775,o),
(59,775,o),
(42,775,cs),
(29,775,o),
(23,765,o),
(30,751,cs),
(34,743,o),
(39,734,o),
(45,718,cs),
(50,703,o),
(51,696,o),
(62,696,cs),
(77,696,o),
(90,696,o),
(107,696,cs),
(120,696,o),
(123,703,o),
(123,717,cs),
(123,733,o),
(122,742,o),
(118,756,cs)
);
}
);
width = 233;
},
{
background = {
shapes = (
{
closed = 1;
nodes = (
(163,213,o),
(164,354,o),
(162,467,cs),
(161,542,o),
(160,577,o),
(155,590,cs),
(150,603,o),
(140,607,o),
(122,607,cs),
(104,607,o),
(103,607,o),
(84,607,cs),
(65,607,o),
(61,601,o),
(68,581,cs),
(95,499,o),
(101,445,o),
(104,391,cs),
(107,334,o),
(103,243,o),
(97,186,cs),
(91,129,o),
(86,98,o),
(60,35,cs),
(53,18,o),
(45,0,o),
(70,0,cs),
(95,0,o),
(94,0,o),
(120,0,cs),
(146,0,o),
(150,12,o),
(151,32,cs)
);
},
{
closed = 1;
nodes = (
(114,770,o),
(112,775,o),
(92,775,cs),
(74,775,o),
(59,775,o),
(42,775,cs),
(29,775,o),
(23,765,o),
(30,751,cs),
(34,743,o),
(39,734,o),
(45,718,cs),
(50,703,o),
(51,696,o),
(62,696,cs),
(73,696,o),
(90,697,o),
(106,697,c),
(119,697,o),
(123,707,o),
(123,717,cs),
(123,733,o),
(121,743,o),
(119,750,cs)
);
}
);
};
layerId = "EB85BB17-2D13-4234-8B6F-29F99969393B";
shapes = (
{
closed = 1;
nodes = (
(162,198,o),
(167,407,o),
(160,559,cs),
(158,605,o),
(140,607,o),
(122,607,cs),
(104,607,o),
(103,607,o),
(84,607,cs),
(65,607,o),
(58,601,o),
(77,551,cs),
(95,503,o),
(106,406,o),
(104,308,cs),
(102,201,o),
(86,94,o),
(67,49,cs),
(54,19,o),
(45,0,o),
(70,0,cs),
(95,0,o),
(94,0,o),
(120,0,cs),
(146,0,o),
(150,12,o),
(151,32,cs)
);
},
{
closed = 1;
nodes = (
(114,770,o),
(112,775,o),
(92,775,cs),
(74,775,o),
(59,775,o),
(42,775,cs),
(29,775,o),
(23,765,o),
(30,751,cs),
(34,743,o),
(39,734,o),
(45,718,cs),
(50,703,o),
(51,696,o),
(62,696,cs),
(77,696,o),
(90,696,o),
(107,696,cs),
(120,696,o),
(123,703,o),
(123,717,cs),
(123,733,o),
(122,742,o),
(118,756,cs)
);
}
);
width = 233;
}
);
rightKerningGroup = i;
unicode = 105;
},
{
glyphname = j;
layers = (
{
background = {
shapes = (
{
closed = 1;
nodes = (
(101,770,o),
(99,775,o),
(79,775,cs),
(61,775,o),
(46,775,o),
(29,775,cs),
(16,775,o),
(10,765,o),
(17,751,cs),
(21,743,o),
(26,734,o),
(32,718,cs),
(37,703,o),
(38,696,o),
(49,696,cs),
(60,696,o),
(77,697,o),
(93,697,cs),
(106,697,o),
(110,707,o),
(110,717,cs),
(110,733,o),
(108,743,o),
(106,750,cs)
);
},
{
closed = 1;
nodes = (
(129,606,o),
(132,597,o),
(136,581,cs),
(141,560,o),
(144,489,o),
(147,405,cs),
(150,303,o),
(148,243,o),
(147,212,cs),
(145,142,o),
(138,50,o),
(122,-43,cs),
(107,-128,o),
(100,-200,o),
(45,-200,cs),
(15,-200,o),
(1,-200,o),
(-18,-200,cs),
(-28,-200,o),
(-36,-184,o),
(-20,-168,cs),
(-4,-152,o),
(18,-131,o),
(33,-111,cs),
(52,-85,o),
(65,-47,o),
(72,0,cs),
(87,94,o),
(91,215,o),
(91,303,cs),
(91,438,o),
(55,546,o),
(45,571,cs),
(36,595,o),
(36,607,o),
(57,607,cs),
(72,607,o),
(96,607,o),
(105,607,c)
);
}
);
};
layerId = "7BB6E1F7-E231-4E79-9496-BA3D1CB9CE3C";
shapes = (
{
closed = 1;
nodes = (
(129,606,o),
(137,597,o),
(143,536,cs),
(150,462,o),
(150,295,o),
(147,212,cs),
(145,142,o),
(138,50,o),
(122,-43,cs),
(107,-128,o),
(100,-200,o),
(45,-200,cs),
(15,-200,o),
(1,-200,o),
(-18,-200,cs),
(-28,-200,o),
(-37,-182,o),
(-20,-168,cs),
(28,-128,o),
(60,-80,o),
(72,0,cs),
(86,94,o),
(91,177,o),
(91,254,cs),
(91,400,o),
(72,496,o),
(53,545,cs),
(34,596,o),
(36,607,o),
(57,607,cs),
(72,607,o),
(96,607,o),
(105,607,c)
);
},
{
closed = 1;
nodes = (
(100,770,o),
(98,775,o),
(78,775,cs),
(60,775,o),
(45,775,o),
(28,775,cs),
(15,775,o),
(9,765,o),
(16,751,cs),
(20,743,o),
(25,734,o),
(31,718,cs),
(36,703,o),
(37,696,o),
(48,696,cs),
(63,696,o),
(76,696,o),
(93,696,cs),
(106,696,o),
(109,703,o),
(109,717,cs),
(109,733,o),
(108,742,o),
(104,756,cs)
);
}
);
width = 219;
},
{
background = {
shapes = (
{
closed = 1;
nodes = (
(101,770,o),
(99,775,o),
(79,775,cs),
(61,775,o),
(46,775,o),
(29,775,cs),
(16,775,o),
(10,765,o),
(17,751,cs),
(21,743,o),
(26,734,o),
(32,718,cs),
(37,703,o),
(38,696,o),
(49,696,cs),
(60,696,o),
(77,697,o),
(93,697,c),
(106,697,o),
(110,707,o),
(110,717,cs),
(110,733,o),
(108,743,o),
(106,750,cs)
);
},
{
closed = 1;
nodes = (
(129,606,o),
(132,597,o),
(136,581,cs),
(141,560,o),
(144,489,o),
(147,405,cs),
(150,303,o),
(148,243,o),
(147,212,cs),
(145,142,o),
(138,50,o),
(122,-43,cs),
(107,-128,o),
(100,-200,o),
(45,-200,cs),
(15,-200,o),
(1,-200,o),
(-18,-200,cs),
(-28,-200,o),
(-36,-184,o),
(-20,-168,cs),
(-4,-152,o),
(18,-131,o),
(33,-111,cs),
(52,-85,o),
(65,-47,o),
(72,0,cs),
(87,94,o),
(91,215,o),
(91,303,cs),
(91,438,o),
(55,546,o),
(45,571,cs),
(36,595,o),
(36,607,o),
(57,607,cs),
(72,607,o),
(96,607,o),
(105,607,cs)
);
}
);
};
layerId = "EB85BB17-2D13-4234-8B6F-29F99969393B";
shapes = (
{
closed = 1;
nodes = (
(134.079,606.273,o),
(142.037,597.01,o),
(146.847,536,cs),
(152.68,462.01,o),
(149.353,295.015,o),
(145.191,212,cs),
(141.683,142.014,o),
(133.553,49.964,o),
(115.74,-43,cs),
(99.446,-128.037,o),
(91,-200,o),
(36,-200,cs),
(6,-200,o),
(-8,-200,o),
(-27,-200,cs),
(-37,-200,o),
(-45.626,-182.073,o),
(-28.441,-168,cs),
(20.316,-128.073,o),
(53.139,-80.007,o),
(66.491,0,cs),
(82.177,93.993,o),
(88.581,177,o),
(89.925,254,cs),
(92.473,400,o),
(74.813,495.877,o),
(57.004,545,cs),
(38.558,595.879,o),
(41.086,607,o),
(62.086,607,cs),
(77.086,607,o),
(101.09,607.273,o),
(110.086,607,cs)
);
},
{
closed = 1;
nodes = (
(91,770,o),
(89,775,o),
(69,775,cs),
(51,775,o),
(36,775,o),
(19,775,cs),
(6,775,o),
(0,765,o),
(7,751,cs),
(11,743,o),
(16,734,o),
(22,718,cs),
(27,703,o),
(28,696,o),
(39,696,cs),
(54,696,o),
(67,696,o),
(84,696,cs),
(97,696,o),
(100,703,o),
(100,717,cs),
(100,733,o),
(99,742,o),
(95,756,cs)
);
}
);
width = 224;
}
);
unicode = 106;
},
{
glyphname = f;
layers = (
{
background = {
shapes = (
{
closed = 1;
nodes = (
(99,86,o),
(109,117,o),
(114,146,cs),
(124,202,o),
(130,260,o),
(130,398,cs),
(130,454,o),
(122,540,o),
(110,610,cs),
(100,668,o),
(82,716,o),
(66,749,cs),
(57,768,o),
(63,775,o),
(82,775,cs),
(101,775,o),
(105,775,o),
(130,775,cs),
(151,775,o),
(158,771,o),
(163,758,cs),
(170,737,o),
(176,663,o),
(180,609,cs),
(188,493,o),
(193,289,o),
(181,32,cs),
(180,6,o),
(173,0,o),
(155,0,cs),
(137,0,o),
(109,0,o),
(88,0,cs),
(68,0,o),
(67,14,o),
(83,50,cs)
);
},
{
closed = 1;
nodes = (
(308,726,o),
(359,765,o),
(398,785,cs),
(424,799,o),
(456,788,o),
(462,747,cs),
(467,713,o),
(464,657,o),
(460,551,cs),
(459,527,o),
(441,528,o),
(409,528,cs),
(370,527,o),
(355,535,o),
(369,557,cs),
(399,604,o),
(408,640,o),
(404,657,cs),
(399,678,o),
(385,678,o),
(368,671,cs),
(332,657,o),
(272,600,o),
(230,526,cs),
(202,476,o),
(192,438,o),
(191,411,cs),
(189,357,o),
(136,471,o),
(183,554,cs),
(201,586,o),
(208,597,o),
(244,644,cs)
);
},
{
closed = 1;
nodes = (
(394,432,o),
(400,424,o),
(400,405,cs),
(400,364,ls),
(400,339,o),
(384,348,o),
(365,354,cs),
(314,372,o),
(228,376,o),
(191,376,cs),
(152,376,o),
(99,362,o),
(77,353,cs),
(57,345,o),
(51,350,o),
(51,369,cs),
(51,388,o),
(51,384,o),
(51,402,cs),
(51,420,o),
(55,430,o),
(69,430,cs),
(99,430,o),
(157,432,o),
(193,432,cs),
(239,432,o),
(321,432,o),
(369,432,cs)
);
}
);
};
layerId = "7BB6E1F7-E231-4E79-9496-BA3D1CB9CE3C";
shapes = (
{
closed = 1;
nodes = (
(110,106,o),
(129,195,o),
(130,368,c),
(77,358,o),
(51,331,o),
(51,369,cs),
(51,402,ls),
(51,420,o),
(55,430,o),
(69,430,cs),
(84,430,o),
(106,431,o),
(129,431,c),
(127,485,o),
(120,553,o),
(110,610,cs),
(100,668,o),
(82,716,o),
(66,749,cs),
(57,768,o),
(63,775,o),
(82,775,cs),
(130,775,ls),
(151,775,o),
(163,768,o),
(167,745,cs),
(178,684,o),
(180,616,o),
(183,554,c),
(225,639,o),
(331,754,o),
(398,785,cs),
(425,798,o),
(456,788,o),
(462,747,cs),
(467,713,o),
(464,657,o),
(460,551,cs),
(459,527,o),
(444,528,o),
(412,528,cs),
(373,528,o),
(353,536,o),
(369,557,cs),
(387,580,o),
(407,627,o),
(404,654,cs),
(402,675,o),
(385,684,o),
(347,659,cs),
(281,615,o),
(209,512,o),
(193,432,c),
(369,432,ls),
(394,432,o),
(400,424,o),
(400,405,cs),
(400,369,ls),
(400,330,o),
(377,350,o),
(332,363,cs),
(280,378,o),
(189,376,o),
(188,376,c),
(189,278,o),
(187,162,o),
(181,32,cs),
(180,6,o),
(173,0,o),
(155,0,cs),
(88,0,ls),
(68,0,o),
(66,15,o),
(83,50,cs)
);
}
);
width = 447;
},
{
background = {
shapes = (
{
closed = 1;
nodes = (
(99,86,o),
(109,117,o),
(114,146,cs),
(124,202,o),
(130,260,o),
(130,398,cs),
(130,454,o),
(122,540,o),
(110,610,cs),
(100,668,o),
(82,716,o),
(66,749,cs),
(57,768,o),
(63,775,o),
(82,775,cs),
(101,775,o),
(105,775,o),
(130,775,cs),
(151,775,o),
(158,771,o),
(163,758,cs),
(170,737,o),
(176,663,o),
(180,609,cs),
(188,493,o),
(193,289,o),
(181,32,cs),
(180,6,o),
(173,0,o),
(155,0,cs),
(137,0,o),
(109,0,o),
(88,0,cs),
(68,0,o),
(67,14,o),
(83,50,cs)
);
},
{
closed = 1;
nodes = (
(308,726,o),
(359,765,o),
(398,785,cs),
(424,799,o),
(456,788,o),
(462,747,cs),
(467,713,o),
(464,657,o),
(460,551,cs),
(459,527,o),
(441,528,o),
(409,528,cs),
(370,527,o),
(355,535,o),
(369,557,cs),
(399,604,o),
(408,640,o),
(404,657,cs),
(399,678,o),
(385,678,o),
(368,671,cs),
(332,657,o),
(272,600,o),
(230,526,cs),
(202,476,o),
(192,438,o),
(191,411,cs),
(189,357,o),
(136,471,o),
(183,554,cs),
(201,586,o),
(208,597,o),
(244,644,cs)
);
},
{
closed = 1;
nodes = (
(394,432,o),
(400,424,o),
(400,405,c),
(400,364,l),
(400,339,o),
(384,348,o),
(365,354,cs),
(314,372,o),
(228,376,o),
(191,376,cs),
(152,376,o),
(99,362,o),
(77,353,cs),
(57,345,o),
(51,350,o),
(51,369,cs),
(51,388,o),
(51,384,o),
(51,402,cs),
(51,420,o),
(55,430,o),
(69,430,cs),
(99,430,o),
(157,432,o),
(193,432,cs),
(239,432,o),
(321,432,o),
(369,432,cs)
);
},
{
closed = 1;
nodes = (
(110,106,o),
(129,195,o),
(130,368,c),
(77,358,o),
(51,331,o),
(51,369,cs),
(51,402,ls),
(51,420,o),
(55,430,o),
(69,430,cs),
(84,430,o),
(106,431,o),
(129,431,c),
(127,485,o),
(120,553,o),
(110,610,cs),
(100,668,o),
(82,716,o),
(66,749,cs),
(57,768,o),
(63,775,o),
(82,775,cs),
(130,775,ls),
(151,775,o),
(163,768,o),
(167,745,cs),
(178,684,o),
(180,616,o),
(183,554,c),
(225,639,o),
(331,754,o),
(398,785,cs),
(425,798,o),
(456,788,o),
(462,747,cs),
(467,713,o),
(464,657,o),
(460,551,cs),
(459,527,o),
(444,528,o),
(412,528,cs),
(373,528,o),
(353,536,o),
(369,557,cs),
(387,580,o),
(407,627,o),
(404,654,cs),
(402,675,o),
(385,684,o),
(347,659,cs),
(281,615,o),
(209,512,o),
(193,432,c),
(369,432,ls),
(394,432,o),
(400,424,o),
(400,405,cs),
(400,369,ls),
(400,330,o),
(377,350,o),
(332,363,cs),
(280,378,o),
(189,376,o),
(188,376,c),
(189,278,o),
(187,162,o),
(181,32,cs),
(180,6,o),
(173,0,o),
(155,0,cs),
(88,0,ls),
(68,0,o),
(66,15,o),
(83,50,cs)
);
}
);
};
layerId = "EB85BB17-2D13-4234-8B6F-29F99969393B";
shapes = (
{
closed = 1;
nodes = (
(110,106,o),
(129,195,o),
(130,368,c),
(77,358,o),
(51,331,o),
(51,369,cs),
(51,402,ls),
(51,420,o),
(55,430,o),
(69,430,cs),
(84,430,o),
(106,431,o),
(129,431,c),
(127,485,o),
(120,553,o),
(110,610,cs),
(100,668,o),
(82,716,o),
(66,749,cs),
(57,768,o),
(63,775,o),
(82,775,cs),
(130,775,ls),
(151,775,o),
(163,768,o),
(167,745,cs),
(178,684,o),
(180,616,o),
(183,554,c),
(225,639,o),
(328.899,776.83,o),
(402.723,776.83,cs),
(440.386,776.83,o),
(459.937,778.619,o),
(462,737.234,cs),
(463.934,698.433,o),
(464,657,o),
(460,551,cs),
(459,527,o),
(444,528,o),
(412,528,cs),
(373,528,o),
(353,536,o),
(369,557,cs),
(387,580,o),
(407,627,o),
(404,654,cs),
(402,675,o),
(385,684,o),
(347,659,cs),
(281,615,o),
(209,512,o),
(193,432,c),
(369,432,ls),
(394,432,o),
(400,424,o),
(400,405,cs),
(400,369,ls),
(400,330,o),
(377,350,o),
(332,363,cs),
(280,378,o),
(189,376,o),
(188,376,c),
(189,278,o),
(187,162,o),
(181,32,cs),
(180,6,o),
(173,0,o),
(155,0,cs),
(88,0,ls),
(68,0,o),
(66,15,o),
(83,50,cs)
);
}
);
width = 447;
}
);
leftKerningGroup = f;
unicode = 102;
},
{
glyphname = r;
leftMetricsKey = n;
layers = (
{
background = {
shapes = (
{
closed = 1;
nodes = (
(166,202,o),
(176,227,o),
(210,299,c),
(255,385,o),
(280,438,o),
(300,459,cs),
(315,475,o),
(327,473,o),
(334,453,cs),
(341,432,o),
(322,366,o),
(310,336,cs),
(302,316,o),
(316,313,o),
(348,313,cs),
(374,313,o),
(398,314,o),
(398,338,cs),
(398,444,o),
(392,527,o),
(387,561,cs),
(381,602,o),
(355,616,o),
(330,599,cs),
(297,578,o),
(253,518,o),
(201,409,cs),
(180,365,o),
(164,329,o),
(140,276,cs),
(101,190,o),
(134,94,o),
(141,117,cs)
);
},
{
closed = 1;
nodes = (
(148,147,o),
(156,223,o),
(153,293,cs),
(149,363,o),
(140,403,o),
(135,415,cs),
(129,428,o),
(130,432,o),
(111,432,cs),
(93,432,o),
(91,432,o),
(70,432,cs),
(45,432,o),
(46,423,o),
(56,404,cs),
(66,386,o),
(85,339,o),
(91,299,cs),
(100,245,o),
(102,214,o),
(97,159,cs),
(94,123,o),
(85,84,o),
(72,52,cs),
(58,18,o),
(46,0,o),
(71,0,cs),
(97,0,o),
(98,-1,o),
(124,-1,cs),
(148,-1,o),
(148,16,o),
(148,31,cs)
);
}
);
};
layerId = "7BB6E1F7-E231-4E79-9496-BA3D1CB9CE3C";
shapes = (
{
closed = 1;
nodes = (
(151,75,o),
(152,114,o),
(153,149,c),
(172,210,o),
(186,242,o),
(216,303,cs),
(262,398,o),
(283,438,o),
(303,459,cs),
(322,478,o),
(335,470,o),
(337,446,cs),
(339,416,o),
(332,380,o),
(313,336,cs),
(304,316,o),
(319,313,o),
(351,313,cs),
(386,313,o),
(403,313,o),
(403,337,cs),
(403,406,o),
(395,527,o),
(390,561,cs),
(384,602,o),
(359,615,o),
(333,599,cs),
(300,578,o),
(256,518,o),
(204,409,cs),
(187,373,o),
(173,342,o),
(155,303,c),
(153,349,o),
(149,382,o),
(142,404,cs),
(136,426,o),
(133,432,o),
(114,432,cs),
(73,432,ls),
(48,432,o),
(49,423,o),
(68,387,cs),
(87,351,o),
(103,286,o),
(102,213,cs),
(101,140,o),
(88,84,o),
(75,52,cs),
(61,18,o),
(51,0,o),
(70,0,cs),
(89,0,o),
(107,0,o),
(129,0,cs),
(151,0,o),
(151,16,o),
(151,31,cs)
);
}
);
width = 446;
},
{
background = {
shapes = (
{
closed = 1;
nodes = (
(166,202,o),
(176,227,o),
(210,299,c),
(255,385,o),
(280,438,o),
(300,459,cs),
(315,475,o),
(327,473,o),
(334,453,cs),
(341,432,o),
(322,366,o),
(310,336,cs),
(302,316,o),
(316,313,o),
(348,313,cs),
(374,313,o),
(398,314,o),
(398,338,cs),
(398,444,o),
(392,527,o),
(387,561,cs),
(381,602,o),
(355,616,o),
(330,599,cs),
(297,578,o),
(253,518,o),
(201,409,cs),
(180,365,o),
(164,329,o),
(140,276,cs),
(101,190,o),
(134,94,o),
(141,117,cs)
);
},
{
closed = 1;
nodes = (
(148,147,o),
(156,223,o),
(153,293,cs),
(149,363,o),
(140,403,o),
(135,415,cs),
(129,428,o),
(130,432,o),
(111,432,cs),
(93,432,o),
(91,432,o),
(70,432,cs),
(45,432,o),
(46,423,o),
(56,404,cs),
(66,386,o),
(85,339,o),
(91,299,cs),
(100,245,o),
(102,214,o),
(97,159,cs),
(94,123,o),
(85,84,o),
(72,52,cs),
(58,18,o),
(46,0,o),
(71,0,cs),
(97,0,o),
(98,-1,o),
(124,-1,cs),
(148,-1,o),
(148,16,o),
(148,31,cs)
);
},
{
closed = 1;
nodes = (
(142,75,o),
(143,114,o),
(144,149,c),
(163,210,o),
(177,242,o),
(207,303,cs),
(253,398,o),
(274,438,o),
(294,459,cs),
(313,478,o),
(326,470,o),
(328,446,cs),
(330,416,o),
(323,380,o),
(304,336,cs),
(295,316,o),
(310,313,o),
(342,313,cs),
(377,313,o),
(394,313,o),
(394,337,cs),
(394,406,o),
(386,527,o),
(381,561,cs),
(375,602,o),
(350,615,o),
(324,599,cs),
(291,578,o),
(247,518,o),
(195,409,cs),
(178,373,o),
(164,342,o),
(146,303,c),
(144,349,o),
(144.023,407.085,o),
(135,452,cs),
(130.509,474.357,o),
(126,480,o),
(107,480,cs),
(66,480,ls),
(41,480,o),
(47.806,473.509,o),
(61,435,cs),
(75.607,392.367,o),
(94,286,o),
(93,213,cs),
(92,140,o),
(79,84,o),
(66,52,cs),
(52,18,o),
(42,0,o),
(61,0,cs),
(80,0,o),
(98,0,o),
(120,0,cs),
(142,0,o),
(142,16,o),
(142,31,cs)
);
}
);
};
layerId = "EB85BB17-2D13-4234-8B6F-29F99969393B";
shapes = (
{
closed = 1;
nodes = (
(135,75,o),
(136,114,o),
(137,149,c),
(156,210,o),
(170,242,o),
(200,303,cs),
(246,398,o),
(269.105,450.915,o),
(289.35,471.679,cs),
(308.108,490.918,o),
(321.571,482.697,o),
(323.35,458.679,cs),
(325.571,428.695,o),
(316,380,o),
(297,336,cs),
(288,316,o),
(295,313,o),
(327,313,cs),
(362,313,o),
(376.344,313.147,o),
(379,337,cs),
(387.946,417.356,o),
(389.582,499.126,o),
(386,563.68,cs),
(383.678,605.528,o),
(373.802,605.083,o),
(329.079,605.083,cs),
(289.003,605.083,o),
(240,518,o),
(188,409,cs),
(171,373,o),
(157,342,o),
(139,303,c),
(137,349,o),
(137.023,407.085,o),
(128,452,cs),
(123.509,474.357,o),
(119,480,o),
(100,480,cs),
(59,480,ls),
(34,480,o),
(40.806,473.509,o),
(54,435,cs),
(68.607,392.367,o),
(87,286,o),
(86,213,cs),
(85,140,o),
(72,84,o),
(59,52,cs),
(45,18,o),
(35,0,o),
(54,0,cs),
(73,0,o),
(91,0,o),
(113,0,cs),
(135,0,o),
(135,16,o),
(135,31,cs)
);
}
);
width = 430;
}
);
unicode = 114;
},
{
glyphname = l;
layers = (
{
background = {
shapes = (
{
closed = 1;
nodes = (
(73,59,o),
(84,87,o),
(89,116,cs),
(97,162,o),
(110,261,o),
(110,399,cs),
(110,455,o),
(107,539,o),
(89,634,cs),
(80,681,o),
(68,714,o),
(52,747,cs),
(43,766,o),
(49,773,o),
(68,773,cs),
(87,773,o),
(88,773,o),
(113,773,cs),
(134,773,o),
(141,769,o),
(146,756,cs),
(153,735,o),
(159,687,o),
(163,633,cs),
(171,517,o),
(176,289,o),
(164,32,cs),
(163,6,o),
(156,0,o),
(138,0,cs),
(120,0,o),
(90,0,o),
(69,0,cs),
(49,0,o),
(47,12,o),
(61,37,cs)
);
}
);
};
layerId = "7BB6E1F7-E231-4E79-9496-BA3D1CB9CE3C";
shapes = (
{
closed = 1;
nodes = (
(118.991,108.009,o),
(119.319,250.995,o),
(120.946,399,cs),
(122.319,523.996,o),
(106.453,663.124,o),
(68.18,747,cs),
(59.452,766.127,o),
(65.18,773,o),
(84.18,773,cs),
(103.18,773,o),
(85.241,773,o),
(99.295,773,cs),
(120.295,773,o),
(128.619,769.095,o),
(132.295,756,cs),
(144.62,712.09,o),
(155.295,556,o),
(157.295,400,cs),
(159.295,244,o),
(156.501,121.986,o),
(150.295,32,cs),
(148.501,5.985,o),
(142.295,0,o),
(124.295,0,cs),
(106.295,0,o),
(111.008,0,o),
(90.008,0,cs),
(70.008,0,o),
(68.991,12.009,o),
(82.008,37,cs)
);
}
);
width = 243;
},
{
background = {
shapes = (
{
closed = 1;
nodes = (
(73,59,o),
(84,87,o),
(89,116,cs),
(97,162,o),
(110,261,o),
(110,399,cs),
(110,455,o),
(107,539,o),
(89,634,cs),
(80,681,o),
(68,714,o),
(52,747,cs),
(43,766,o),
(49,773,o),
(68,773,cs),
(87,773,o),
(88,773,o),
(113,773,cs),
(134,773,o),
(141,769,o),
(146,756,cs),
(153,735,o),
(159,687,o),
(163,633,cs),
(171,517,o),
(176,289,o),
(164,32,cs),
(163,6,o),
(156,0,o),
(138,0,cs),
(120,0,o),
(90,0,o),
(69,0,cs),
(49,0,o),
(47,12,o),
(61,37,cs)
);
}
);
};
layerId = "EB85BB17-2D13-4234-8B6F-29F99969393B";
shapes = (
{
closed = 1;
nodes = (
(89.76,128.225,o),
(95.755,246.989,o),
(99.965,395,cs),
(103.52,519.99,o),
(87.597,644.056,o),
(52.039,747,cs),
(45.221,766.74,o),
(49.493,773,o),
(68.493,773,cs),
(87.493,773,o),
(88.493,773,o),
(113.493,773,cs),
(134.493,773,o),
(143.914,769.343,o),
(146.196,756,cs),
(155.726,700.289,o),
(161.705,552,o),
(160.982,396,cs),
(160.259,240,o),
(162.335,121.982,o),
(154.559,32,cs),
(152.31,5.981,o),
(146,0,o),
(128,0,cs),
(110,0,o),
(80,0,o),
(59,0,cs),
(39,0,o),
(45.13,16.736,o),
(56.297,44.633,cs)
);
}
);
width = 234;
}
);
rightKerningGroup = l;
unicode = 108;
},
{
glyphname = t;
layers = (
{
background = {
shapes = (
{
closed = 1;
nodes = (
(202,673,o),
(223,606,o),
(223,371,cs),
(223,223,o),
(215,125,o),
(208,71,cs),
(204,38,o),
(200,21,o),
(199,19,cs),
(197,12,o),
(191,1,o),
(183,1,cs),
(175,1,o),
(120,1,o),
(106,1,cs),
(93,1,o),
(87,13,o),
(92,23,cs),
(99,37,o),
(109,67,o),
(119,93,cs),
(121,98,o),
(123,102,o),
(124,106,cs),
(151,183,o),
(164,278,o),
(164,371,cs),
(164,470,o),
(164,510,o),
(145,576,cs),
(126,642,o),
(94,705,o),
(94,705,c),
(87,719,o),
(82,729,o),
(104,731,cs),
(121,733,o),
(133,732,o),
(148,732,c),
(171,731,o),
(180,729,o),
(184,719,cs)
);
},
{
closed = 1;
nodes = (
(380,587,o),
(388,579,o),
(388,553,cs),
(388,527,o),
(388,540,o),
(388,515,cs),
(388,490,o),
(372,500,o),
(353,505,cs),
(300,519,o),
(274,529,o),
(212,531,cs),
(150,533,o),
(79,510,o),
(60,501,cs),
(41,492,o),
(34,498,o),
(34,517,cs),
(34,536,o),
(34,533,o),
(34,551,cs),
(34,579,o),
(39,587,o),
(57,587,cs),
(75,587,o),
(107,587,o),
(225,587,cs),
(282,587,o),
(298,587,o),
(358,587,cs)
);
}
);
};
layerId = "7BB6E1F7-E231-4E79-9496-BA3D1CB9CE3C";
shapes = (
{
closed = 1;
nodes = (
(194.571,637.599,o),
(214.461,518,o),
(212.461,370,cs),
(210.461,222,o),
(202.291,124.022,o),
(195.461,70,cs),
(191.291,37.021,o),
(187.168,20.121,o),
(186.461,18,cs),
(184.158,11.093,o),
(178.461,0,o),
(170.461,0,cs),
(157.178,0,o),
(140.66,1,o),
(126.905,1,cs),
(113.905,1,o),
(111.228,7.89,o),
(126.176,35.325,cs),
(137.572,56.24,o),
(148.631,80.799,o),
(159.213,137.237,cs),
(170.342,196.593,o),
(174.331,261.146,o),
(175.492,371,cs),
(177.303,542.363,o),
(152.684,635.831,o),
(111.827,704.916,cs),
(97.683,728.832,o),
(94.492,732,o),
(116.492,732,cs),
(136.492,732,o),
(123.466,731.395,o),
(138.46,731,cs),
(161.474,730.394,o),
(165.57,729.602,o),
(178.215,689.488,cs)
);
},
{
closed = 1;
nodes = (
(380,606,o),
(388,601.406,o),
(388,587.301,cs),
(388,573.195,o),
(388,574.964,o),
(388,559.068,cs),
(388,543.172,o),
(371.997,549.322,o),
(353,554.335,cs),
(299.997,568.322,o),
(266,570.674,o),
(204,570.674,cs),
(142,570.674,o),
(83.166,564.208,o),
(52.14,552.705,cs),
(32.272,545.338,o),
(34,558.833,o),
(34,569.927,cs),
(34,581.022,o),
(34,576.073,o),
(34,588.604,cs),
(34,601.135,o),
(39,606,o),
(57,606,cs),
(157,606,o),
(258,606,o),
(358,606,cs)
);
}
);
width = 374;
},
{
background = {
shapes = (
{
closed = 1;
nodes = (
(202,673,o),
(223,606,o),
(223,371,cs),
(223,223,o),
(215,125,o),
(208,71,cs),
(204,38,o),
(200,21,o),
(199,19,cs),
(197,12,o),
(191,1,o),
(183,1,cs),
(175,1,o),
(120,1,o),
(106,1,cs),
(93,1,o),
(87,13,o),
(92,23,cs),
(99,37,o),
(109,67,o),
(119,93,cs),
(121,98,o),
(123,102,o),
(124,106,cs),
(151,183,o),
(164,278,o),
(164,371,cs),
(164,470,o),
(164,510,o),
(145,576,cs),
(126,642,o),
(94,705,o),
(94,705,cs),
(87,719,o),
(82,729,o),
(104,731,cs),
(121,733,o),
(133,732,o),
(148,732,cs),
(171,731,o),
(180,729,o),
(184,719,cs)
);
},
{
closed = 1;
nodes = (
(380,587,o),
(388,579,o),
(388,553,cs),
(388,527,o),
(388,540,o),
(388,515,cs),
(388,490,o),
(372,500,o),
(353,505,cs),
(300,519,o),
(274,529,o),
(212,531,cs),
(150,533,o),
(79,510,o),
(60,501,cs),
(41,492,o),
(34,498,o),
(34,517,cs),
(34,536,o),
(34,533,o),
(34,551,cs),
(34,579,o),
(39,587,o),
(57,587,cs),
(75,587,o),
(107,587,o),
(225,587,cs),
(282,587,o),
(298,587,o),
(358,587,cs)
);
}
);
};
layerId = "EB85BB17-2D13-4234-8B6F-29F99969393B";
shapes = (
{
closed = 1;
nodes = (
(205.084,626.915,o),
(216.632,486.954,o),
(215.084,371,cs),
(213.537,255.046,o),
(213.811,202.967,o),
(208.467,130.56,cs),
(204.3,74.097,o),
(199.791,21.121,o),
(199.084,19,cs),
(196.782,12.093,o),
(191.084,1,o),
(183.084,1,cs),
(154.084,1,o),
(130.084,1,o),
(106.084,1,cs),
(93.084,1,o),
(85.1,5.144,o),
(105.084,55,cs),
(141.403,145.606,o),
(156.084,252,o),
(156.084,371,cs),
(156.084,508,o),
(130.119,628.007,o),
(100.084,696,cs),
(88.857,721.416,o),
(84.084,732,o),
(106.084,732,cs),
(126.084,732,o),
(137.089,732.395,o),
(152.084,732,cs),
(175.098,731.394,o),
(183.464,730.167,o),
(192.084,689,cs)
);
},
{
closed = 1;
nodes = (
(354,579.439,o),
(362,575.439,o),
(362,549.439,cs),
(362,523.439,o),
(362,532.439,o),
(362,507.439,cs),
(362,482.439,o),
(345.995,492.422,o),
(327,497.439,cs),
(274,511.439,o),
(240,523.439,o),
(178,523.439,cs),
(116,523.439,o),
(54,500.439,o),
(34,493.439,cs),
(14,486.439,o),
(8,490.439,o),
(8,509.439,cs),
(8,528.439,o),
(8,530.439,o),
(8,548.439,cs),
(8,576.439,o),
(13,579.439,o),
(31,579.439,cs),
(131,579.439,o),
(232,579.439,o),
(332,579.439,cs)
);
}
);
width = 335;
}
);
unicode = 116;
},
{
glyphname = g;
layers = (
{
background = {
shapes = (
{
closed = 1;
nodes = (
(393,625,o),
(381,630,o),
(327,608,cs),
(230,568,o),
(172,532,o),
(99,481,cs),
(62,455,o),
(51,442,o),
(57,415,cs),
(68,365,o),
(69,356,o),
(70,325,cs),
(71,293,o),
(57,210,o),
(53,191,cs),
(47,167,o),
(61,167,o),
(94,167,cs),
(120,167,o),
(361,167,o),
(370,167,cs),
(392,167,o),
(391,191,o),
(393,210,cs),
(399,278,o),
(345,247,o),
(309,232,cs),
(277,219,o),
(184,214,o),
(148,238,cs),
(130,250,o),
(125,298,o),
(126,333,cs),
(127,369,o),
(128,406,o),
(138,422,cs),
(149,440,o),
(179,469,o),
(225,495,cs),
(290,531,o),
(320,530,o),
(334,498,cs),
(345,474,o),
(350,438,o),
(350,387,cs),
(350,335,o),
(345,247,o),
(309,232,cs),
(277,219,o),
(307,204,o),
(325,202,cs),
(342,200,o),
(390,183,o),
(393,210,cs),
(400,278,o),
(405,302,o),
(405,372,cs),
(405,441,o),
(402,538,o),
(398,576,cs)
);
},
{
closed = 1;
nodes = (
(467,-27,o),
(470,35,o),
(462,107,cs),
(458,143,o),
(422,158,o),
(394,141,cs),
(359,120,o),
(317,92,o),
(241,20,cs),
(169,-50,o),
(186,-50,o),
(161,-80,c),
(171,-93,o),
(219,-154,o),
(219,-118,cs),
(219,-102,o),
(213,-89,o),
(253,-48,cs),
(300,1,o),
(342,35,o),
(366,50,cs),
(390,65,o),
(402,62,o),
(407,43,cs),
(415,13,o),
(411,-77,o),
(393,-115,cs),
(375,-153,o),
(396,-200,o),
(418,-200,cs),
(457,-200,o),
(455,-191,o),
(462,-98,cs)
);
},
{
closed = 1;
nodes = (
(286,-144,o),
(220,-144,o),
(219,-118,c),
(219,-102,o),
(122,-200,o),
(144,-200,cs),
(166,-200,o),
(371,-200,o),
(415,-200,cs),
(459,-200,o),
(454,-171,o),
(454,-121,cs),
(454,-71,o),
(409,-81,o),
(393,-115,cs),
(376,-152,o),
(349,-144,o),
(314,-144,cs)
);
},
{
closed = 1;
nodes = (
(219,-93,o),
(223,-26,o),
(223,39,cs),
(223,103,o),
(220,174,o),
(215,186,cs),
(210,197,o),
(200,201,o),
(182,201,cs),
(164,201,o),
(177,201,o),
(158,201,cs),
(139,201,o),
(133,196,o),
(142,177,cs),
(150,160,o),
(158,116,o),
(162,80,cs),
(168,29,o),
(168,-26,o),
(157,-77,cs),
(150,-113,o),
(146,-132,o),
(134,-168,cs),
(129,-185,o),
(119,-200,o),
(144,-200,cs),
(191,-200,ls),
(217,-200,o),
(217,-189,o),
(217,-171,cs)
);
},
{
closed = 1;
nodes = (
(391,542,o),
(427,543,o),
(440,543,cs),
(458,543,o),
(459,549,o),
(471,571,cs),
(483,594,o),
(489,625,o),
(466,622,cs),
(457,621,o),
(394,621,o),
(376,620,cs),
(358,619,o),
(370,542,o),
(370,542,c)
);
}
);
};
layerId = "7BB6E1F7-E231-4E79-9496-BA3D1CB9CE3C";
shapes = (
{
closed = 1;
nodes = (
(467,-27,o),
(468,65,o),
(462,107,cs),
(457,143,o),
(422,158,o),
(394,141,cs),
(331,103,o),
(274,54,o),
(223,2,c),
(223,14,o),
(223,27,o),
(223,39,cs),
(223,87,o),
(221,139,o),
(218,167,c),
(366,167,ls),
(388,167,o),
(390,191,o),
(393,210,cs),
(405,297,o),
(408,407,o),
(401,542,c),
(416,543,o),
(432,543,o),
(440,543,cs),
(458,543,o),
(465,558,o),
(476,580,cs),
(485,598,o),
(491,622,o),
(466,622,cs),
(457,622,o),
(405,622,o),
(376,622,cs),
(366,622,o),
(350,618,o),
(327,608,cs),
(253,578,o),
(172,532,o),
(99,481,cs),
(62,455,o),
(51,442,o),
(57,415,cs),
(74,339,o),
(70,261,o),
(53,191,cs),
(47,167,o),
(61,167,o),
(94,167,cs),
(146,167,l),
(176,66,o),
(169,-60,o),
(134,-168,cs),
(128,-185,o),
(119,-200,o),
(144,-200,cs),
(417,-200,ls),
(457,-200,o),
(455,-191,o),
(462,-98,cs)
);
},
{
closed = 1;
nodes = (
(141,234,o),
(130,256,o),
(129,279,cs),
(126,319,o),
(127,358,o),
(128,378,cs),
(131,423,o),
(139,438,o),
(217,490,cs),
(291,539,o),
(327,525,o),
(336,496,cs),
(350,450,o),
(353,357,o),
(345,306,cs),
(339,265,o),
(323,232,o),
(287,225,cs),
(255,219,o),
(219,218,o),
(181,226,cs)
);
},
{
closed = 1;
nodes = (
(286,-144,o),
(219,-144,o),
(219,-118,cs),
(219,-90,o),
(235,-63,o),
(260,-37,cs),
(297,0,o),
(342,35,o),
(366,50,cs),
(390,65,o),
(403,62,o),
(407,43,cs),
(415,7,o),
(412,-40,o),
(403,-85,cs),
(392,-137,o),
(372,-144,o),
(314,-144,cs)
);
}
);
width = 501;
},
{
background = {
shapes = (
{
closed = 1;
nodes = (
(393,625,o),
(381,630,o),
(327,608,cs),
(230,568,o),
(172,532,o),
(99,481,cs),
(62,455,o),
(51,442,o),
(57,415,cs),
(68,365,o),
(69,356,o),
(70,325,cs),
(71,293,o),
(57,210,o),
(53,191,cs),
(47,167,o),
(61,167,o),
(94,167,cs),
(120,167,o),
(361,167,o),
(370,167,cs),
(392,167,o),
(391,191,o),
(393,210,cs),
(399,278,o),
(345,247,o),
(309,232,cs),
(277,219,o),
(184,214,o),
(148,238,cs),
(130,250,o),
(125,298,o),
(126,333,cs),
(127,369,o),
(128,406,o),
(138,422,cs),
(149,440,o),
(179,469,o),
(225,495,cs),
(290,531,o),
(320,530,o),
(334,498,cs),
(345,474,o),
(350,438,o),
(350,387,cs),
(350,335,o),
(345,247,o),
(309,232,cs),
(277,219,o),
(307,204,o),
(325,202,cs),
(342,200,o),
(390,183,o),
(393,210,cs),
(400,278,o),
(405,302,o),
(405,372,cs),
(405,441,o),
(402,538,o),
(398,576,cs)
);
},
{
closed = 1;
nodes = (
(467,-27,o),
(470,35,o),
(462,107,c),
(458,143,o),
(422,158,o),
(394,141,cs),
(359,120,o),
(317,92,o),
(241,20,cs),
(169,-50,o),
(186,-50,o),
(161,-80,c),
(171,-93,o),
(219,-154,o),
(219,-118,cs),
(219,-102,o),
(213,-89,o),
(253,-48,c),
(300,1,o),
(342,35,o),
(366,50,cs),
(390,65,o),
(402,62,o),
(407,43,cs),
(415,13,o),
(411,-77,o),
(393,-115,cs),
(375,-153,o),
(396,-200,o),
(418,-200,cs),
(457,-200,o),
(455,-191,o),
(462,-98,cs)
);
},
{
closed = 1;
nodes = (
(286,-144,o),
(220,-144,o),
(219,-118,cs),
(219,-102,o),
(122,-200,o),
(144,-200,cs),
(166,-200,o),
(371,-200,o),
(415,-200,cs),
(459,-200,o),
(454,-171,o),
(454,-121,cs),
(454,-71,o),
(409,-81,o),
(393,-115,cs),
(376,-152,o),
(349,-144,o),
(314,-144,cs)
);
},
{
closed = 1;
nodes = (
(219,-93,o),
(223,-26,o),
(223,39,cs),
(223,103,o),
(220,174,o),
(215,186,cs),
(210,197,o),
(200,201,o),
(182,201,cs),
(164,201,o),
(177,201,o),
(158,201,cs),
(139,201,o),
(133,196,o),
(142,177,cs),
(150,160,o),
(158,116,o),
(162,80,cs),
(168,29,o),
(168,-26,o),
(157,-77,cs),
(150,-113,o),
(146,-132,o),
(134,-168,cs),
(129,-185,o),
(119,-200,o),
(144,-200,c),
(191,-200,l),
(217,-200,o),
(217,-189,o),
(217,-171,cs)
);
},
{
closed = 1;
nodes = (
(391,542,o),
(427,543,o),
(440,543,cs),
(458,543,o),
(459,549,o),
(471,571,cs),
(483,594,o),
(489,625,o),
(466,622,cs),
(457,621,o),
(394,621,o),
(376,620,cs),
(358,619,o),
(370,542,o),
(370,542,c)
);
}
);
};
layerId = "EB85BB17-2D13-4234-8B6F-29F99969393B";
shapes = (
{
closed = 1;
nodes = (
(438.259,-27.024,o),
(443.812,64.993,o),
(440.089,107,cs),
(436.899,142.993,o),
(402.794,157.945,o),
(373.871,141,cs),
(308.912,102.944,o),
(249.312,54,o),
(195.586,2,c),
(196.215,14,o),
(196.897,27,o),
(197.525,39,cs),
(200.041,87,o),
(200.766,139,o),
(199.234,167,c),
(347.234,167,ls),
(369.234,167,o),
(372.791,190.939,o),
(376.487,210,cs),
(393.347,296.942,o),
(401.811,407,o),
(401.887,542,c),
(416.939,543,o),
(432.939,543,o),
(440.939,543,cs),
(458.939,543,o),
(466.725,558,o),
(478.878,580,cs),
(488.821,598,o),
(496.079,622,o),
(471.079,622,cs),
(462.079,622,o),
(410.079,622,o),
(381.079,622,cs),
(371.079,622,o),
(355.049,617.568,o),
(331.345,608,cs),
(255.947,577.566,o),
(172.318,532.066,o),
(96.69,481,cs),
(58.282,455.066,o),
(46.617,441.995,o),
(51.231,415,cs),
(64.219,338.995,o),
(56.277,260.965,o),
(35.491,191,cs),
(28.351,166.965,o),
(42.234,167,o),
(75.234,167,cs),
(127.234,167,l),
(151.94,66,o),
(138.708,-60.14,o),
(97.677,-168,cs),
(91.155,-185.145,o),
(81,-200,o),
(106,-200,cs),
(379,-200,ls),
(419,-200,o),
(417.664,-191.024,o),
(429.346,-98,cs)
);
},
{
closed = 1;
nodes = (
(125.786,234.199,o),
(116.358,256,o),
(116.103,279,cs),
(115.66,319.008,o),
(118.016,358.025,o),
(120.292,378,cs),
(125.422,423.027,o),
(134.361,438.117,o),
(215.161,490,cs),
(291.654,539.117,o),
(327.096,525.026,o),
(334.476,496,cs),
(346.165,450.025,o),
(343.962,357.047,o),
(333.518,306,cs),
(325.14,265.046,o),
(307.662,231.888,o),
(271.273,225,cs),
(238.98,218.888,o),
(202.948,218.199,o),
(165.326,226,cs)
);
},
{
closed = 1;
nodes = (
(250.935,-144,o),
(183.935,-144,o),
(185.297,-118,cs),
(186.765,-90,o),
(203.895,-62.708,o),
(230.542,-37,cs),
(269.2,0.295,o),
(316.316,35,o),
(341.102,50,cs),
(365.888,65,o),
(378.589,61.977,o),
(381.735,43,cs),
(387.707,6.976,o),
(382.646,-40.067,o),
(371.027,-85,cs),
(357.562,-137.068,o),
(336.935,-144,o),
(278.935,-144,cs)
);
}
);
width = 463;
}
);
unicode = 103;
},
{
glyphname = z;
layers = (
{
background = {
shapes = (
{
closed = 1;
nodes = (
(178,472,o),
(148,440,o),
(114,399,cs),
(91,371,o),
(89,421,o),
(89,452,cs),
(89,483,o),
(89,498,o),
(100,506,cs),
(108,512,o),
(146,531,o),
(212,556,cs),
(278,581,o),
(401,610,o),
(434,611,cs),
(468,612,o),
(455,606,o),
(464,581,cs),
(466,575,o),
(427,535,o),
(430,529,cs),
(448,494,o),
(306,450,o),
(339,494,cs),
(357,518,o),
(341,544,o),
(241,500,cs)
);
},
{
closed = 1;
nodes = (
(403,597,o),
(424,611,o),
(434,611,cs),
(463,611,o),
(470,612,o),
(484,607,cs),
(490,605,o),
(497,592,o),
(492,584,cs),
(425,488,o),
(336,373,o),
(285,292,cs),
(230,205,o),
(191,130,o),
(173,91,cs),
(150,42,o),
(131,0,o),
(114,0,cs),
(91,0,o),
(76,0,o),
(56,0,cs),
(29,0,o),
(29,17,o),
(38,28,cs),
(53,46,o),
(65,60,o),
(95,101,cs),
(139,162,o),
(194,253,o),
(235,317,cs),
(270,371,o),
(352,521,o),
(386,572,cs)
);
},
{
closed = 1;
nodes = (
(339,58,o),
(377,89,o),
(405,103,cs),
(435,118,o),
(432,82,o),
(428,41,cs),
(424,0,o),
(403,0,o),
(368,0,cs),
(104,0,ls),
(72,0,o),
(89,44,o),
(89,44,c),
(183,113,l),
(160,64,o),
(214,61,o),
(269,61,c)
);
}
);
};
layerId = "7BB6E1F7-E231-4E79-9496-BA3D1CB9CE3C";
shapes = (
{
closed = 1;
nodes = (
(240,507,o),
(169,466,o),
(127,413,cs),
(95,373,o),
(89,389,o),
(89,452,cs),
(89,483,o),
(88,501,o),
(125,520,cs),
(204,560,o),
(342,605,o),
(423,610,cs),
(462,612,o),
(513,611,o),
(486,575,cs),
(415,478,o),
(341,379,o),
(285,292,cs),
(236,215,o),
(200,150,o),
(180,106,cs),
(161,65,o),
(176,64,o),
(256,64,cs),
(312,64,o),
(365,81,o),
(392,97,cs),
(433,121,o),
(430,97,o),
(430,41,cs),
(430,0,o),
(403,0,o),
(368,0,cs),
(56,0,ls),
(29,0,o),
(29,17,o),
(38,28,cs),
(118,129,o),
(169,209,o),
(235,317,cs),
(273,378,o),
(308,439,o),
(344,503,cs),
(358,528,o),
(338,529,o),
(310,523,cs)
);
}
);
width = 493;
},
{
background = {
shapes = (
{
closed = 1;
nodes = (
(178,472,o),
(148,440,o),
(114,399,cs),
(91,371,o),
(89,421,o),
(89,452,cs),
(89,483,o),
(89,498,o),
(100,506,cs),
(108,512,o),
(146,531,o),
(212,556,cs),
(278,581,o),
(401,610,o),
(434,611,cs),
(468,612,o),
(455,606,o),
(464,581,cs),
(466,575,o),
(427,535,o),
(430,529,cs),
(448,494,o),
(306,450,o),
(339,494,cs),
(357,518,o),
(341,544,o),
(241,500,cs)
);
},
{
closed = 1;
nodes = (
(403,597,o),
(424,611,o),
(434,611,cs),
(463,611,o),
(470,612,o),
(484,607,cs),
(490,605,o),
(497,592,o),
(492,584,cs),
(425,488,o),
(336,373,o),
(285,292,cs),
(230,205,o),
(191,130,o),
(173,91,cs),
(150,42,o),
(131,0,o),
(114,0,cs),
(91,0,o),
(76,0,o),
(56,0,cs),
(29,0,o),
(29,17,o),
(38,28,cs),
(53,46,o),
(65,60,o),
(95,101,cs),
(139,162,o),
(194,253,o),
(235,317,cs),
(270,371,o),
(352,521,o),
(386,572,cs)
);
},
{
closed = 1;
nodes = (
(339,58,o),
(377,89,o),
(405,103,cs),
(435,118,o),
(432,82,o),
(428,41,cs),
(424,0,o),
(403,0,o),
(368,0,c),
(104,0,l),
(72,0,o),
(89,44,o),
(89,44,c),
(183,113,l),
(160,64,o),
(214,61,o),
(269,61,c)
);
}
);
};
layerId = "EB85BB17-2D13-4234-8B6F-29F99969393B";
shapes = (
{
closed = 1;
nodes = (
(240,507,o),
(169,466,o),
(127,413,cs),
(95,373,o),
(89,389,o),
(89,452,cs),
(89,483,o),
(88,501,o),
(125,520,cs),
(204,560,o),
(342,605,o),
(423,610,cs),
(462,612,o),
(513,611,o),
(486,575,cs),
(415,478,o),
(341,379,o),
(285,292,cs),
(236,215,o),
(200,150,o),
(180,106,cs),
(161,65,o),
(176,64,o),
(256,64,cs),
(312,64,o),
(365,81,o),
(392,97,cs),
(433,121,o),
(430,97,o),
(430,41,cs),
(430,0,o),
(403,0,o),
(368,0,cs),
(56,0,ls),
(29,0,o),
(29,17,o),
(38,28,cs),
(118,129,o),
(169,209,o),
(235,317,cs),
(273,378,o),
(308,439,o),
(344,503,cs),
(358,528,o),
(338,529,o),
(310,523,cs)
);
}
);
width = 493;
}
);
unicode = 122;
},
{
glyphname = comma;
layers = (
{
layerId = "7BB6E1F7-E231-4E79-9496-BA3D1CB9CE3C";
shapes = (
{
closed = 1;
nodes = (
(200,85,o),
(193,93,o),
(173,93,cs),
(155,93,o),
(140,93,o),
(123,93,cs),
(110,93,o),
(106,88,o),
(112,66,cs),
(118,46,o),
(114,11,o),
(99,-26,cs),
(89,-51,o),
(70,-99,o),
(61,-117,cs),
(55,-129,o),
(57,-140,o),
(70,-140,cs),
(81,-140,o),
(86,-140,o),
(101,-140,cs),
(112,-140,o),
(113,-133,o),
(133,-100,cs),
(147,-76,o),
(157,-60,o),
(171,-31,cs),
(193,12,o),
(203,37,o),
(201,63,cs)
);
}
);
width = 297;
},
{
layerId = "EB85BB17-2D13-4234-8B6F-29F99969393B";
shapes = (
{
closed = 1;
nodes = (
(200,85,o),
(193,93,o),
(173,93,cs),
(155,93,o),
(140,93,o),
(123,93,cs),
(110,93,o),
(106,88,o),
(112,66,cs),
(118,46,o),
(114,11,o),
(99,-26,cs),
(89,-51,o),
(70,-99,o),
(61,-117,cs),
(55,-129,o),
(57,-140,o),
(70,-140,cs),
(81,-140,o),
(86,-140,o),
(101,-140,cs),
(112,-140,o),
(113,-133,o),
(133,-100,cs),
(147,-76,o),
(157,-60,o),
(171,-31,cs),
(193,12,o),
(203,37,o),
(201,63,cs)
);
}
);
width = 212;
}
);
unicode = 44;
},
{
glyphname = colon;
layers = (
{
layerId = "7BB6E1F7-E231-4E79-9496-BA3D1CB9CE3C";
shapes = (
{
closed = 1;
nodes = (
(142,597,o),
(136,607,o),
(116,607,cs),
(98,607,o),
(83,607,o),
(66,607,cs),
(53,607,o),
(48,598,o),
(54,583,cs),
(62,565,o),
(69,536,o),
(63,502,cs),
(58,472,o),
(75,476,o),
(86,476,cs),
(97,476,o),
(114,477,o),
(130,477,cs),
(143,477,o),
(147,487,o),
(147,497,cs),
(147,509,o),
(147,543,o),
(144,577,cs)
);
},
{
closed = 1;
nodes = (
(142,122,o),
(136,132,o),
(116,132,cs),
(98,132,o),
(83,132,o),
(66,132,cs),
(53,132,o),
(48,123,o),
(54,108,cs),
(62,90,o),
(69,61,o),
(63,27,cs),
(58,-3,o),
(75,1,o),
(86,1,cs),
(97,1,o),
(114,2,o),
(130,2,cs),
(143,2,o),
(147,12,o),
(147,22,cs),
(147,34,o),
(147,68,o),
(144,102,cs)
);
}
);
width = 205;
},
{
layerId = "EB85BB17-2D13-4234-8B6F-29F99969393B";
shapes = (
{
closed = 1;
nodes = (
(142,597,o),
(136,607,o),
(116,607,cs),
(98,607,o),
(83,607,o),
(66,607,cs),
(53,607,o),
(48,598,o),
(54,583,cs),
(62,565,o),
(69,536,o),
(63,502,cs),
(58,472,o),
(75,476,o),
(86,476,cs),
(97,476,o),
(114,477,o),
(130,477,c),
(143,477,o),
(147,487,o),
(147,497,cs),
(147,509,o),
(147,543,o),
(144,577,cs)
);
},
{
closed = 1;
nodes = (
(142,122,o),
(136,132,o),
(116,132,cs),
(98,132,o),
(83,132,o),
(66,132,cs),
(53,132,o),
(48,123,o),
(54,108,cs),
(62,90,o),
(69,61,o),
(63,27,cs),
(58,-3,o),
(75,1,o),
(86,1,cs),
(97,1,o),
(114,2,o),
(130,2,c),
(143,2,o),
(147,12,o),
(147,22,cs),
(147,34,o),
(147,68,o),
(144,102,cs)
);
}
);
width = 212;
}
);
unicode = 58;
},
{
glyphname = period;
layers = (
{
layerId = "7BB6E1F7-E231-4E79-9496-BA3D1CB9CE3C";
shapes = (
{
closed = 1;
nodes = (
(141,83,o),
(137,93,o),
(117,93,cs),
(99,93,o),
(84,93,o),
(67,93,cs),
(54,93,o),
(47,80,o),
(53,65,cs),
(61,47,o),
(67,35,o),
(70,21,cs),
(74,6,o),
(76,-1,o),
(87,-1,cs),
(98,-1,o),
(115,0,o),
(131,0,cs),
(144,0,o),
(148,10,o),
(148,20,cs),
(148,32,o),
(149,47,o),
(145,63,cs)
);
}
);
width = 216;
},
{
layerId = "EB85BB17-2D13-4234-8B6F-29F99969393B";
shapes = (
{
closed = 1;
nodes = (
(141,83,o),
(137,93,o),
(117,93,cs),
(99,93,o),
(84,93,o),
(67,93,cs),
(54,93,o),
(47,80,o),
(53,65,cs),
(60.316,46.711,o),
(67,35,o),
(70,21,cs),
(74,6,o),
(76,-1,o),
(87,-1,cs),
(98,-1,o),
(115,0,o),
(131,0,c),
(144,0,o),
(148,10,o),
(148,20,cs),
(148,32,o),
(149,47,o),
(145,63,c)
);
}
);
width = 179;
}
);
unicode = 46;
},
{
glyphname = k;
leftMetricsKey = b;
layers = (
{
background = {
shapes = (
{
closed = 1;
nodes = (
(433,2,o),
(418,1,o),
(379,1,cs),
(342,1,o),
(311,-1,o),
(328,33,cs),
(360,96,o),
(393,304,o),
(385,334,cs),
(380,353,o),
(368,356,o),
(344,341,cs),
(320,326,o),
(278,292,o),
(231,243,cs),
(191,202,o),
(168,180,o),
(168,164,c),
(167,127,o),
(146,198,o),
(136,211,c),
(161,241,o),
(147,241,o),
(219,311,cs),
(295,383,o),
(337,411,o),
(372,432,cs),
(400,449,o),
(434,434,o),
(438,398,cs),
(446,326,o),
(437,145,o),
(435,74,cs)
);
},
{
closed = 1;
nodes = (
(79,59,o),
(87,87,o),
(92,116,cs),
(100,162,o),
(113,261,o),
(113,399,cs),
(113,455,o),
(110,515,o),
(92,610,cs),
(83,657,o),
(71,716,o),
(55,749,cs),
(46,768,o),
(52,775,o),
(71,775,cs),
(90,775,o),
(89,775,o),
(114,775,cs),
(135,775,o),
(142,772,o),
(147,758,cs),
(154,738,o),
(160,663,o),
(164,609,cs),
(172,493,o),
(171,281,o),
(165,32,cs),
(164,6,o),
(157,0,o),
(139,0,cs),
(121,0,o),
(96,0,o),
(75,0,cs),
(55,0,o),
(53,12,o),
(67,37,cs)
);
},
{
closed = 1;
nodes = (
(299,608,o),
(308,607,o),
(330,607,cs),
(352,607,o),
(372,607,o),
(389,607,cs),
(406,607,o),
(407,597,o),
(386,556,cs),
(365,515,o),
(251,310,o),
(199,239,cs),
(101,108,o),
(137,226,o),
(160,262,cs),
(253,410,o),
(286,507,o),
(296,584,cs)
);
}
);
};
layerId = "7BB6E1F7-E231-4E79-9496-BA3D1CB9CE3C";
shapes = (
{
closed = 1;
nodes = (
(434,-3,o),
(422,1,o),
(383,1,cs),
(346,1,o),
(316,0,o),
(335,33,cs),
(362,81,o),
(396,289,o),
(394,320,cs),
(392,355,o),
(374,358,o),
(351,341,cs),
(300,303,o),
(175,195,o),
(175,164,cs),
(175,120,o),
(173,76,o),
(172,32,cs),
(171,6,o),
(164,0,o),
(146,0,cs),
(82,0,ls),
(62,0,o),
(60,12,o),
(74,37,cs),
(102,87,o),
(119,248,o),
(120,399,cs),
(121,519,o),
(86,702,o),
(62,749,cs),
(52,768,o),
(59,775,o),
(78,775,cs),
(121,775,ls),
(142,775,o),
(155,779,o),
(162,727,cs),
(176,627,o),
(182,396,o),
(176,277,c),
(262,417,o),
(293,510,o),
(303,584,cs),
(306,608,o),
(315,607,o),
(337,607,cs),
(396,607,ls),
(413,607,o),
(414,597,o),
(393,556,cs),
(380,531,o),
(319,427,o),
(272,347,c),
(313,382,o),
(354,417,o),
(379,432,cs),
(407,449,o),
(441,434,o),
(445,398,cs),
(452,342,o),
(446,154,o),
(440,73,cs)
);
}
);
width = 514;
},
{
background = {
shapes = (
{
closed = 1;
nodes = (
(433,2,o),
(418,1,o),
(379,1,cs),
(342,1,o),
(311,-1,o),
(328,33,cs),
(360,96,o),
(393,304,o),
(385,334,cs),
(380,353,o),
(368,356,o),
(344,341,cs),
(320,326,o),
(278,292,o),
(231,243,cs),
(191,202,o),
(168,180,o),
(168,164,cs),
(167,127,o),
(146,198,o),
(136,211,c),
(161,241,o),
(147,241,o),
(219,311,cs),
(295,383,o),
(337,411,o),
(372,432,cs),
(400,449,o),
(434,434,o),
(438,398,c),
(446,326,o),
(437,145,o),
(435,74,cs)
);
},
{
closed = 1;
nodes = (
(79,59,o),
(87,87,o),
(92,116,cs),
(100,162,o),
(113,261,o),
(113,399,cs),
(113,455,o),
(110,515,o),
(92,610,cs),
(83,657,o),
(71,716,o),
(55,749,cs),
(46,768,o),
(52,775,o),
(71,775,cs),
(90,775,o),
(89,775,o),
(114,775,cs),
(135,775,o),
(142,772,o),
(147,758,cs),
(154,738,o),
(160,663,o),
(164,609,cs),
(172,493,o),
(171,281,o),
(165,32,cs),
(164,6,o),
(157,0,o),
(139,0,cs),
(121,0,o),
(96,0,o),
(75,0,cs),
(55,0,o),
(53,12,o),
(67,37,cs)
);
},
{
closed = 1;
nodes = (
(299,608,o),
(308,607,o),
(330,607,cs),
(352,607,o),
(372,607,o),
(389,607,cs),
(406,607,o),
(407,597,o),
(386,556,cs),
(365,515,o),
(251,310,o),
(199,239,cs),
(101,108,o),
(137,226,o),
(160,262,cs),
(253,410,o),
(286,507,o),
(296,584,cs)
);
}
);
};
layerId = "EB85BB17-2D13-4234-8B6F-29F99969393B";
shapes = (
{
closed = 1;
nodes = (
(413,-3,o),
(401,1,o),
(362,1,cs),
(325,1,o),
(295,0,o),
(314,33,cs),
(341,81,o),
(375,289,o),
(373,320,cs),
(371,355,o),
(353,358,o),
(330,341,cs),
(279,303,o),
(154,195,o),
(154,164,cs),
(154,120,o),
(152,76,o),
(151,32,cs),
(150,6,o),
(143,0,o),
(125,0,cs),
(61,0,ls),
(41,0,o),
(39,12,o),
(53,37,cs),
(81,87,o),
(98,248,o),
(99,399,cs),
(100,519,o),
(65,702,o),
(41,749,cs),
(31,768,o),
(38,775,o),
(57,775,cs),
(100,775,ls),
(121,775,o),
(134,779,o),
(141,727,cs),
(155,627,o),
(161,396,o),
(155,277,c),
(241,417,o),
(272,510,o),
(282,584,cs),
(285,608,o),
(294,607,o),
(316,607,cs),
(375,607,ls),
(392,607,o),
(393,597,o),
(372,556,cs),
(359,531,o),
(298,427,o),
(251,347,c),
(292,382,o),
(346.068,432,o),
(375.223,432,cs),
(412.168,432,o),
(427.435,427.8,o),
(430,391.67,cs),
(434.444,329.074,o),
(425,154,o),
(419,73,cs)
);
}
);
width = 493;
}
);
unicode = 107;
},
{
glyphname = acute;
layers = (
{
background = {
shapes = (
{
closed = 1;
nodes = (
(213,713,o),
(183,705,o),
(152,683,cs),
(121,661,o),
(98,641,o),
(88,629,cs),
(68,604,o),
(61,611,o),
(45,625,cs),
(28,640,o),
(5,668,o),
(14,681,cs),
(26,698,o),
(75,702,o),
(121,729,cs),
(166,756,o),
(180,769,o),
(202,787,cs),
(213,795,o),
(228,795,o),
(239,781,cs),
(245,772,o),
(257,755,o),
(262,744,cs),
(267,733,o),
(265,722,o),
(243,718,cs)
);
}
);
};
layerId = "7BB6E1F7-E231-4E79-9496-BA3D1CB9CE3C";
shapes = (
{
closed = 1;
nodes = (
(167.652,721.545,o),
(104.395,684.128,o),
(63.539,638,cs),
(42.394,614.127,o),
(34.011,637.571,o),
(20.778,654.894,cs),
(7.545,672.218,o),
(7,683,o),
(35,692,cs),
(109,717,o),
(145,744,o),
(202,787,cs),
(223,803,o),
(229.94,792.639,o),
(241.134,776.23,cs),
(252.328,759.82,o),
(260.659,745.547,o),
(231.836,738.109,cs)
);
},
{
alignment = -1;
pos = (-95,0);
ref = space;
}
);
width = 275;
},
{
background = {
shapes = (
{
closed = 1;
nodes = (
(213,713,o),
(183,705,o),
(152,683,cs),
(121,661,o),
(98,641,o),
(88,629,cs),
(68,604,o),
(61,611,o),
(45,625,cs),
(28,640,o),
(5,668,o),
(14,681,cs),
(26,698,o),
(75,702,o),
(121,729,cs),
(166,756,o),
(180,769,o),
(202,787,cs),
(213,795,o),
(228,795,o),
(239,781,cs),
(245,772,o),
(257,755,o),
(262,744,cs),
(267,733,o),
(265,722,o),
(243,718,cs)
);
}
);
};
layerId = "EB85BB17-2D13-4234-8B6F-29F99969393B";
shapes = (
{
closed = 1;
nodes = (
(178,705,o),
(125,671,o),
(84,625,cs),
(63,601,o),
(52,612,o),
(28,642,cs),
(4,672,o),
(7,683,o),
(35,692,cs),
(109,717,o),
(145,744,o),
(202,787,cs),
(223,803,o),
(234,789,o),
(249,768,cs),
(264,747,o),
(273,724,o),
(243,718,cs)
);
},
{
alignment = -1;
pos = (-95,0);
ref = space;
}
);
width = 275;
}
);
unicode = 180;
},
{
glyphname = iacute;
leftMetricsKey = i;
rightMetricsKey = i;
layers = (
{
layerId = "7BB6E1F7-E231-4E79-9496-BA3D1CB9CE3C";
shapes = (
{
closed = 1;
nodes = (
(148,213,o),
(149,312,o),
(143,417,cs),
(139,487,o),
(131,523,o),
(126,536,cs),
(121,549,o),
(111,553,o),
(93,553,cs),
(75,553,o),
(67,553,o),
(48,553,cs),
(29,553,o),
(22,546,o),
(32,527,cs),
(53,488,o),
(66,440,o),
(71,400,cs),
(85,289,o),
(88,247,o),
(71,134,cs),
(65,94,o),
(51,62,o),
(39,35,cs),
(31,17,o),
(24,0,o),
(49,0,cs),
(74,0,o),
(73,0,o),
(99,0,cs),
(125,0,o),
(135,12,o),
(136,32,cs)
);
},
{
alignment = -1;
pos = (-63,8);
ref = acute;
}
);
width = 216;
},
{
layerId = "EB85BB17-2D13-4234-8B6F-29F99969393B";
shapes = (
{
closed = 1;
nodes = (
(148,213,o),
(149,312,o),
(143,417,cs),
(139,487,o),
(131,523,o),
(126,536,cs),
(121,549,o),
(111,553,o),
(93,553,cs),
(75,553,o),
(67,553,o),
(48,553,cs),
(29,553,o),
(22,546,o),
(32,527,cs),
(53,488,o),
(66,440,o),
(71,400,cs),
(85,289,o),
(88,247,o),
(71,134,cs),
(65,94,o),
(51,62,o),
(39,35,cs),
(31,17,o),
(24,0,o),
(49,0,cs),
(74,0,o),
(73,0,o),
(99,0,cs),
(125,0,o),
(135,12,o),
(136,32,cs)
);
},
{
alignment = -1;
pos = (9,8);
ref = acute;
}
);
width = 216;
}
);
leftKerningGroup = iacute;
rightKerningGroup = iacute1;
unicode = 237;
},
{
glyphname = dieresis;
layers = (
{
guides = (
{
angle = 90;
position = "{301, 0}";
}
);
layerId = "7BB6E1F7-E231-4E79-9496-BA3D1CB9CE3C";
shapes = (
{
closed = 1;
nodes = (
(165,691,o),
(169,701,o),
(143,701,cs),
(126,701,o),
(112,701,o),
(94,701,cs),
(83,701,o),
(76,687,o),
(81,675,cs),
(89,656,o),
(94,643,o),
(97,633,cs),
(102,616,o),
(97,611,o),
(114,611,cs),
(125,611,o),
(140,612,o),
(156,612,cs),
(169,612,o),
(174,623,o),
(174,632,cs),
(174,643,o),
(174,656,o),
(170,673,cs)
);
},
{
closed = 1;
nodes = (
(316,766,o),
(320,776,o),
(294,776,cs),
(277,776,o),
(263,776,o),
(245,776,cs),
(234,776,o),
(227,762,o),
(232,750,cs),
(240,731,o),
(245,718,o),
(248,708,cs),
(253,691,o),
(248,686,o),
(265,686,cs),
(276,686,o),
(291,687,o),
(307,687,cs),
(320,687,o),
(325,698,o),
(325,707,cs),
(325,718,o),
(325,731,o),
(321,748,cs)
);
},
{
alignment = -1;
pos = (115,0);
ref = space;
}
);
width = 415;
},
{
guides = (
{
angle = 90;
position = "{301, 0}";
}
);
layerId = "EB85BB17-2D13-4234-8B6F-29F99969393B";
shapes = (
{
closed = 1;
nodes = (
(165,691,o),
(169,701,o),
(143,701,cs),
(126,701,o),
(112,701,o),
(94,701,cs),
(83,701,o),
(76,687,o),
(81,675,cs),
(89,656,o),
(94,643,o),
(97,633,cs),
(102,616,o),
(97,611,o),
(114,611,cs),
(125,611,o),
(140,612,o),
(156,612,cs),
(169,612,o),
(174,623,o),
(174,632,cs),
(174,643,o),
(174,656,o),
(170,673,cs)
);
},
{
closed = 1;
nodes = (
(316,766,o),
(320,776,o),
(294,776,cs),
(277,776,o),
(263,776,o),
(245,776,cs),
(234,776,o),
(227,762,o),
(232,750,cs),
(240,731,o),
(245,718,o),
(248,708,cs),
(253,691,o),
(248,686,o),
(265,686,cs),
(276,686,o),
(291,687,o),
(307,687,cs),
(320,687,o),
(325,698,o),
(325,707,cs),
(325,718,o),
(325,731,o),
(321,748,cs)
);
},
{
alignment = -1;
pos = (115,0);
ref = space;
}
);
width = 415;
}
);
unicode = 168;
},
{
glyphname = idieresis;
leftMetricsKey = i;
rightMetricsKey = i;
layers = (
{
layerId = "7BB6E1F7-E231-4E79-9496-BA3D1CB9CE3C";
shapes = (
{
closed = 1;
nodes = (
(148,213,o),
(149,312,o),
(143,417,cs),
(139,487,o),
(131,523,o),
(126,536,cs),
(121,549,o),
(111,553,o),
(93,553,cs),
(75,553,o),
(67,553,o),
(48,553,cs),
(29,553,o),
(22,546,o),
(32,527,cs),
(53,488,o),
(66,440,o),
(71,400,cs),
(85,289,o),
(88,247,o),
(71,134,cs),
(65,94,o),
(51,62,o),
(39,35,cs),
(31,17,o),
(24,0,o),
(49,0,cs),
(74,0,o),
(73,0,o),
(99,0,cs),
(125,0,o),
(135,12,o),
(136,32,cs)
);
},
{
alignment = -1;
pos = (-141,22);
ref = dieresis;
}
);
width = 216;
},
{
layerId = "EB85BB17-2D13-4234-8B6F-29F99969393B";
shapes = (
{
closed = 1;
nodes = (
(148,213,o),
(149,312,o),
(143,417,cs),
(139,487,o),
(131,523,o),
(126,536,cs),
(121,549,o),
(111,553,o),
(93,553,cs),
(75,553,o),
(67,553,o),
(48,553,cs),
(29,553,o),
(22,546,o),
(32,527,cs),
(53,488,o),
(66,440,o),
(71,400,cs),
(85,289,o),
(88,247,o),
(71,134,cs),
(65,94,o),
(51,62,o),
(39,35,cs),
(31,17,o),
(24,0,o),
(49,0,cs),
(74,0,o),
(73,0,o),
(99,0,cs),
(125,0,o),
(135,12,o),
(136,32,cs)
);
},
{
alignment = -1;
pos = (-141,22);
ref = dieresis;
}
);
width = 216;
}
);
leftKerningGroup = iacute;
rightKerningGroup = iacute1;
unicode = 239;
},
{
glyphname = tilde;
layers = (
{
background = {
shapes = (
{
closed = 1;
nodes = (
(-31,618,o),
(-13,621,o),
(8,621,cs),
(29,621,o),
(43,631,o),
(41,644,cs),
(39,658,o),
(25,674,o),
(33,679,cs),
(48,689,o),
(182,681,o),
(212,682,c),
(236,682,o),
(247,689,o),
(252,698,cs),
(259,711,o),
(272,773,o),
(258,784,cs),
(247,794,o),
(178,794,o),
(170,781,cs),
(166,775,o),
(191,739,o),
(180,734,cs),
(164,727,o),
(47,736,o),
(15,734,cs),
(-25,731,o),
(-34,719,o),
(-39,688,cs),
(-44,661,o),
(-43,643,o),
(-36,629,cs)
);
}
);
};
layerId = "7BB6E1F7-E231-4E79-9496-BA3D1CB9CE3C";
shapes = (
{
closed = 1;
nodes = (
(-30,617,o),
(-18,621,o),
(11,621,cs),
(34,621,o),
(49,625,o),
(41,644,cs),
(33,662,o),
(14,683,o),
(52,683,cs),
(80,683,o),
(182,681,o),
(212,682,c),
(236,682,o),
(248,689,o),
(252,698,cs),
(259,715,o),
(263,744,o),
(263,767,cs),
(263,792,o),
(249,792,o),
(214,791,cs),
(178,790,o),
(168,782,o),
(173,768,cs),
(180,747,o),
(194,731,o),
(165,731,cs),
(148,731,o),
(51,736,o),
(19,734,cs),
(-21,731,o),
(-35,719,o),
(-38,694,cs),
(-41,669,o),
(-44,647,o),
(-37,632,cs)
);
},
{
alignment = -1;
pos = (-2,0);
ref = space;
}
);
width = 232;
},
{
background = {
shapes = (
{
closed = 1;
nodes = (
(-31,618,o),
(-13,621,o),
(8,621,cs),
(29,621,o),
(43,631,o),
(41,644,cs),
(39,658,o),
(25,674,o),
(33,679,cs),
(48,689,o),
(182,681,o),
(212,682,cs),
(236,682,o),
(247,689,o),
(252,698,cs),
(259,711,o),
(272,773,o),
(258,784,cs),
(247,794,o),
(178,794,o),
(170,781,cs),
(166,775,o),
(191,739,o),
(180,734,cs),
(164,727,o),
(47,736,o),
(15,734,cs),
(-25,731,o),
(-34,719,o),
(-39,688,cs),
(-44,661,o),
(-43,643,o),
(-36,629,cs)
);
}
);
};
layerId = "EB85BB17-2D13-4234-8B6F-29F99969393B";
shapes = (
{
closed = 1;
nodes = (
(-30,617,o),
(-18,621,o),
(11,621,cs),
(34,621,o),
(49,625,o),
(41,644,cs),
(33,662,o),
(14,683,o),
(52,683,cs),
(80,683,o),
(182,681,o),
(212,682,cs),
(236,682,o),
(248,689,o),
(252,698,cs),
(259,715,o),
(263,744,o),
(263,767,cs),
(263,792,o),
(249,792,o),
(214,791,cs),
(178,790,o),
(168,782,o),
(173,768,cs),
(180,747,o),
(194,731,o),
(165,731,cs),
(148,731,o),
(51,736,o),
(19,734,cs),
(-21,731,o),
(-35,719,o),
(-38,694,cs),
(-41,669,o),
(-44,647,o),
(-37,632,cs)
);
},
{
alignment = -1;
pos = (-2,0);
ref = space;
}
);
width = 232;
}
);
unicode = 732;
},
{
glyphname = ntilde;
leftMetricsKey = n;
rightMetricsKey = n;
layers = (
{
layerId = "7BB6E1F7-E231-4E79-9496-BA3D1CB9CE3C";
shapes = (
{
closed = 1;
nodes = (
(73,548,o),
(99,551,o),
(120,551,cs),
(141,551,o),
(155,561,o),
(153,574,cs),
(151,588,o),
(126,620,o),
(145,626,cs),
(207,644,o),
(244,645,o),
(296,662,cs),
(319,669,o),
(331,679,o),
(336,688,cs),
(343,701,o),
(362,776,o),
(348,788,cs),
(337,797,o),
(273,803,o),
(254,784,cs),
(237,767,o),
(287,740,o),
(254,712,cs),
(241,701,o),
(182,696,o),
(119,678,cs),
(80,667,o),
(70,663,o),
(65,632,cs),
(60,605,o),
(61,573,o),
(68,559,cs)
);
},
{
alignment = -1;
ref = n;
}
);
width = 550;
},
{
layerId = "EB85BB17-2D13-4234-8B6F-29F99969393B";
shapes = (
{
closed = 1;
nodes = (
(66,548,o),
(92,551,o),
(113,551,cs),
(134,551,o),
(148,561,o),
(146,574,cs),
(144,588,o),
(119,620,o),
(138,626,cs),
(200,644,o),
(237,645,o),
(289,662,cs),
(312,669,o),
(324,679,o),
(329,688,cs),
(336,701,o),
(355,776,o),
(341,788,cs),
(330,797,o),
(266,803,o),
(247,784,cs),
(230,767,o),
(280,740,o),
(247,712,cs),
(234,701,o),
(175,696,o),
(112,678,cs),
(73,667,o),
(63,663,o),
(58,632,cs),
(53,605,o),
(54,573,o),
(61,559,cs)
);
},
{
alignment = -1;
ref = n;
}
);
width = 543;
}
);
rightKerningGroup = m;
unicode = 241;
},
{
glyphname = semicolon;
layers = (
{
layerId = "7BB6E1F7-E231-4E79-9496-BA3D1CB9CE3C";
shapes = (
{
closed = 1;
nodes = (
(151,119,o),
(144,127,o),
(124,127,cs),
(106,127,o),
(91,127,o),
(74,127,cs),
(61,127,o),
(57,122,o),
(63,100,cs),
(69,80,o),
(65,11,o),
(50,-26,cs),
(40,-51,o),
(21,-99,o),
(12,-117,cs),
(6,-129,o),
(8,-140,o),
(21,-140,cs),
(32,-140,o),
(37,-140,o),
(52,-140,cs),
(63,-140,o),
(64,-133,o),
(84,-100,cs),
(98,-76,o),
(108,-60,o),
(122,-31,cs),
(144,12,o),
(154,71,o),
(152,97,cs)
);
},
{
closed = 1;
nodes = (
(142,597,o),
(136,607,o),
(116,607,cs),
(98,607,o),
(83,607,o),
(66,607,cs),
(53,607,o),
(48,598,o),
(54,583,cs),
(62,565,o),
(69,536,o),
(63,502,cs),
(58,472,o),
(75,476,o),
(86,476,cs),
(97,476,o),
(114,477,o),
(130,477,cs),
(143,477,o),
(147,487,o),
(147,497,cs),
(147,509,o),
(147,543,o),
(144,577,cs)
);
}
);
width = 216;
},
{
layerId = "EB85BB17-2D13-4234-8B6F-29F99969393B";
shapes = (
{
closed = 1;
nodes = (
(158,119,o),
(151,127,o),
(131,127,cs),
(113,127,o),
(98,127,o),
(81,127,cs),
(68,127,o),
(64,122,o),
(70,100,cs),
(76,80,o),
(72,11,o),
(57,-26,cs),
(47,-51,o),
(28,-99,o),
(19,-117,cs),
(13,-129,o),
(15,-140,o),
(28,-140,cs),
(39,-140,o),
(44,-140,o),
(59,-140,cs),
(70,-140,o),
(71,-133,o),
(91,-100,cs),
(105,-76,o),
(115,-60,o),
(129,-31,cs),
(151,12,o),
(161,71,o),
(159,97,cs)
);
},
{
closed = 1;
nodes = (
(149,597,o),
(143,607,o),
(123,607,cs),
(105,607,o),
(90,607,o),
(73,607,cs),
(60,607,o),
(55,598,o),
(61,583,cs),
(69,565,o),
(76,536,o),
(70,502,cs),
(65,472,o),
(82,476,o),
(93,476,cs),
(104,476,o),
(121,477,o),
(137,477,c),
(150,477,o),
(154,487,o),
(154,497,cs),
(154,509,o),
(154,543,o),
(151,577,cs)
);
}
);
width = 225;
}
);
unicode = 59;
},
{
glyphname = A;
layers = (
{
background = {
shapes = (
{
closed = 1;
nodes = (
(21,68,o),
(36,111,o),
(49,143,cs),
(67,186,o),
(104,307,o),
(121,364,cs),
(138,421,o),
(171,534,o),
(187,630,cs),
(195,679,o),
(200,716,o),
(196,754,cs),
(194,773,o),
(196,775,o),
(206,775,cs),
(216,775,o),
(235,772,o),
(261,756,cs),
(279,745,o),
(288,740,o),
(285,727,cs),
(278,689,o),
(270,661,o),
(253,610,cs),
(216,502,o),
(152,275,o),
(80,27,cs),
(72,-1,o),
(59,0,o),
(41,0,cs),
(20,0,o),
(22,0,o),
(-5,0,cs),
(-24,0,o),
(-24,12,o),
(-3,38,cs)
);
},
{
closed = 1;
nodes = (
(393,68,o),
(399,96,o),
(394,142,cs),
(373,325,o),
(377,275,o),
(346,409,cs),
(334,464,o),
(309,542,o),
(269,631,cs),
(249,675,o),
(242,703,o),
(219,733,cs),
(206,749,o),
(192,775,o),
(206,775,cs),
(241,775,o),
(229,775,o),
(269,775,cs),
(290,775,o),
(300,776,o),
(305,763,cs),
(318,727,o),
(326,699,o),
(343,647,cs),
(382,526,o),
(425,323,o),
(481,47,cs),
(488,13,o),
(481,0,o),
(463,0,c),
(441,-1,o),
(434,0,o),
(401,0,cs),
(375,0,o),
(367,1,o),
(380,34,cs)
);
},
{
closed = 1;
nodes = (
(234,600,l),
(239,621,l),
(255,672,l),
(286,627,l),
(287,589,l),
(287,589,o),
(275,617,o),
(266,617,cs),
(257,617,o),
(252,608,o),
(246,590,c)
);
},
{
closed = 1;
nodes = (
(344,418,o),
(379,357,o),
(379,331,cs),
(379,305,o),
(395,320,o),
(395,295,cs),
(395,270,o),
(380,254,o),
(376,281,cs),
(372,304,o),
(288,307,o),
(261,307,cs),
(234,307,o),
(161,305,o),
(151,272,cs),
(141,240,o),
(117,280,o),
(117,299,cs),
(117,318,o),
(131,318,o),
(131,336,cs),
(131,364,o),
(187,396,o),
(182,378,cs),
(175,357,o),
(233,362,o),
(261,362,cs),
(289,362,o),
(357,362,o),
(351,389,cs)
);
}
);
};
layerId = "7BB6E1F7-E231-4E79-9496-BA3D1CB9CE3C";
shapes = (
{
closed = 1;
nodes = (
(248,775,o),
(269,775,o),
(284,775,cs),
(300,775,o),
(304,762,o),
(311,745,cs),
(330,699,o),
(362,593,o),
(389,476,cs),
(417,352,o),
(450,205,o),
(481,47,cs),
(491,-5,o),
(470,0,o),
(426,0,cs),
(382,0,o),
(364,0,o),
(379,34,cs),
(395,71,o),
(398,105,o),
(394,142,cs),
(388,194,o),
(380,259,o),
(377,275,cs),
(372,304,o),
(307,307,o),
(263,307,cs),
(219,307,o),
(160,304,o),
(151,272,cs),
(141,237,o),
(95,76,o),
(83,37,cs),
(72,2,o),
(53,0,o),
(22,0,cs),
(-9,0,o),
(-37,0,o),
(0,46,cs),
(41,97,o),
(88,247,o),
(121,364,cs),
(154,481,o),
(190,622,o),
(197,721,cs),
(200,758,o),
(192,775,o),
(217,775,cs)
);
},
{
closed = 1;
nodes = (
(234,554,o),
(210,472,o),
(196,425,cs),
(182,378,o),
(180,368,o),
(192,365,cs),
(224,358,o),
(307,359,o),
(330,366,cs),
(356,374,o),
(351,383,o),
(342,424,cs),
(327,490,o),
(310,537,o),
(293,578,cs),
(272,629,o),
(261,634,o),
(244,583,cs)
);
}
);
width = 528;
},
{
background = {
shapes = (
{
closed = 1;
nodes = (
(21,68,o),
(36,111,o),
(49,143,cs),
(67,186,o),
(104,307,o),
(121,364,cs),
(138,421,o),
(171,534,o),
(187,630,cs),
(195,679,o),
(200,716,o),
(196,754,cs),
(194,773,o),
(196,775,o),
(206,775,cs),
(216,775,o),
(235,772,o),
(261,756,cs),
(279,745,o),
(288,740,o),
(285,727,cs),
(278,689,o),
(270,661,o),
(253,610,cs),
(216,502,o),
(152,275,o),
(80,27,cs),
(72,-1,o),
(59,0,o),
(41,0,cs),
(20,0,o),
(22,0,o),
(-5,0,cs),
(-24,0,o),
(-24,12,o),
(-3,38,cs)
);
},
{
closed = 1;
nodes = (
(393,68,o),
(399,96,o),
(394,142,cs),
(373,325,o),
(377,275,o),
(346,409,cs),
(334,464,o),
(309,542,o),
(269,631,cs),
(249,675,o),
(242,703,o),
(219,733,cs),
(206,749,o),
(192,775,o),
(206,775,cs),
(241,775,o),
(229,775,o),
(269,775,cs),
(290,775,o),
(300,776,o),
(305,763,cs),
(318,727,o),
(326,699,o),
(343,647,cs),
(382,526,o),
(425,323,o),
(481,47,cs),
(488,13,o),
(481,0,o),
(463,0,cs),
(441,-1,o),
(434,0,o),
(401,0,cs),
(375,0,o),
(367,1,o),
(380,34,cs)
);
},
{
closed = 1;
nodes = (
(234,600,l),
(239,621,l),
(255,672,l),
(286,627,l),
(287,589,l),
(287,589,o),
(275,617,o),
(266,617,cs),
(257,617,o),
(252,608,o),
(246,590,c)
);
},
{
closed = 1;
nodes = (
(344,418,o),
(379,357,o),
(379,331,cs),
(379,305,o),
(395,320,o),
(395,295,cs),
(395,270,o),
(380,254,o),
(376,281,cs),
(372,304,o),
(288,307,o),
(261,307,cs),
(234,307,o),
(161,305,o),
(151,272,cs),
(141,240,o),
(117,280,o),
(117,299,cs),
(117,318,o),
(131,318,o),
(131,336,cs),
(131,364,o),
(187,396,o),
(182,378,cs),
(175,357,o),
(233,362,o),
(261,362,cs),
(289,362,o),
(357,362,o),
(351,389,cs)
);
}
);
};
layerId = "EB85BB17-2D13-4234-8B6F-29F99969393B";
shapes = (
{
closed = 1;
nodes = (
(248,775,o),
(269,775,o),
(284,775,cs),
(300,775,o),
(304,762,o),
(311,745,cs),
(330,699,o),
(362,593,o),
(389,476,cs),
(417,352,o),
(450,205,o),
(481,47,cs),
(491,-5,o),
(470,0,o),
(426,0,cs),
(382,0,o),
(364.166,-0.073,o),
(379,34,cs),
(399.338,80.715,o),
(389.882,192.272,o),
(378.896,254.067,cs),
(373.745,283.04,o),
(308.418,288.41,o),
(264.418,288.41,cs),
(220.418,288.41,o),
(153.285,283.594,o),
(144.216,251.614,cs),
(134.285,216.594,o),
(95,76,o),
(83,37,cs),
(72,2,o),
(53,0,o),
(22,0,cs),
(-9,0,o),
(-37,0,o),
(0,46,cs),
(41,97,o),
(88,247,o),
(121,364,cs),
(154,481,o),
(190,622,o),
(197,721,cs),
(200,758,o),
(192,775,o),
(217,775,cs)
);
},
{
closed = 1;
nodes = (
(234,554,o),
(210,472,o),
(196,425,cs),
(182,378,o),
(173.154,351.355,o),
(185.216,348.614,cs),
(217.158,341.354,o),
(314.47,343.486,o),
(337.459,350.523,cs),
(363.47,358.486,o),
(354.498,373.162,o),
(345.311,414.12,cs),
(330.497,480.163,o),
(310,537,o),
(293,578,cs),
(272,629,o),
(261,634,o),
(244,583,cs)
);
}
);
width = 528;
}
);
leftKerningGroup = A;
rightKerningGroup = A1;
unicode = 65;
},
{
glyphname = B;
layers = (
{
background = {
shapes = (
{
closed = 1;
nodes = (
(433,458,o),
(414,458,o),
(368,458,cs),
(285,457,o),
(147,435,o),
(148,477,cs),
(150,535,o),
(125,450,o),
(125,422,cs),
(125,404,o),
(125,407,o),
(125,388,cs),
(125,369,o),
(149,313,o),
(149,353,cs),
(149,393,o),
(197,389,o),
(248,397,cs),
(274,401,o),
(344,401,o),
(375,397,cs),
(409,393,o),
(423,387,o),
(475,360,cs),
(490,352,o),
(505,361,o),
(505,386,cs),
(505,411,o),
(505,398,o),
(505,424,cs),
(505,450,o),
(499,458,o),
(481,458,cs)
);
},
{
closed = 1;
nodes = (
(402,672,o),
(392,582,o),
(371,529,cs),
(356,491,o),
(341,457,o),
(312,455,c),
(410,427,l),
(430,494,o),
(436,515,o),
(450,581,cs),
(463,644,o),
(471,709,o),
(467,738,cs),
(463,763,o),
(445,757,o),
(418,757,cs),
(391,757,o),
(380,699,o),
(392,684,cs)
);
},
{
closed = 1;
nodes = (
(462,372,o),
(451,257,o),
(434,188,cs),
(417,119,o),
(395,54,o),
(357,43,c),
(447,19,l),
(483,137,o),
(504,234,o),
(510,331,cs),
(513,384,o),
(512,413,o),
(509,438,cs),
(506,463,o),
(487,457,o),
(460,457,cs),
(433,457,o),
(394,394,o),
(428,383,cs)
);
},
{
closed = 1;
nodes = (
(463,790,o),
(453,795,o),
(399,772,cs),
(297,728,o),
(206,691,o),
(118,642,cs),
(62,611,o),
(58,602,o),
(67,575,cs),
(86,521,o),
(94,417,o),
(94,331,cs),
(94,259,o),
(79,88,o),
(63,37,cs),
(51,0,o),
(63,0,o),
(113,0,cs),
(139,0,o),
(383,0,o),
(392,0,cs),
(414,0,o),
(415,26,o),
(417,45,cs),
(421,81,o),
(428,165,o),
(415,122,cs),
(402,79,o),
(324,57,o),
(270,57,cs),
(216,57,o),
(176,52,o),
(165,71,cs),
(147,101,o),
(149,263,o),
(149,333,cs),
(149,386,o),
(145,564,o),
(156,581,cs),
(168,599,o),
(225,633,o),
(281,657,cs),
(366,694,o),
(381,699,o),
(392,684,cs),
(410,657,o),
(388,583,o),
(397,591,cs),
(406,599,o),
(471,688,o),
(467,738,cs)
);
},
{
closed = 1;
nodes = (
(364,0,l),
(398,0,o),
(439,-8,o),
(447,19,cs),
(455,46,o),
(464,78,o),
(464,78,c),
(388,71,l),
(336,25,l)
);
}
);
};
layerId = "7BB6E1F7-E231-4E79-9496-BA3D1CB9CE3C";
shapes = (
{
closed = 1;
nodes = (
(191,682,o),
(351,753,o),
(399,772,cs),
(447,791,o),
(464,795,o),
(467,738,cs),
(471,666,o),
(442,523,o),
(419,458,c),
(419,458,o),
(448,458,o),
(472,458,cs),
(496,458,o),
(511,458,o),
(511,413,cs),
(511,282,o),
(488,140,o),
(458,47,cs),
(444,2,o),
(439,0,o),
(385,0,cs),
(324,0,o),
(152,0,o),
(113,0,cs),
(68,0,o),
(49,-7,o),
(65,49,cs),
(79,97,o),
(94,202,o),
(94,308,cs),
(94,405,o),
(85,516,o),
(69,569,cs),
(58,608,o),
(72,617,o),
(118,642,cs)
);
},
{
closed = 1;
nodes = (
(162,593,o),
(155,587,o),
(152,557,cs),
(150,538,o),
(149,500,o),
(149,477,cs),
(149,450,o),
(171,453,o),
(195,453,cs),
(219,453,o),
(268,455,o),
(300,455,cs),
(332,455,o),
(344,467,o),
(364,513,cs),
(380,549,o),
(393,600,o),
(395,646,cs),
(397,692,o),
(385,699,o),
(348,685,cs),
(311,671,o),
(222,633,o),
(194,614,cs)
);
},
{
closed = 1;
nodes = (
(148,386,o),
(149,374,o),
(149,309,cs),
(149,270,o),
(151,172,o),
(155,115,cs),
(159,58,o),
(173,57,o),
(207,57,cs),
(287,57,o),
(312,59,o),
(348,70,cs),
(407,88,o),
(416,116,o),
(431,177,cs),
(440,213,o),
(447,267,o),
(450,328,cs),
(453,382,o),
(416,394,o),
(375,397,cs),
(305,401,o),
(268,399,o),
(197,391,cs)
);
}
);
width = 572;
},
{
background = {
shapes = (
{
closed = 1;
nodes = (
(433,458,o),
(414,458,o),
(368,458,cs),
(285,457,o),
(147,435,o),
(148,477,cs),
(150,535,o),
(125,450,o),
(125,422,cs),
(125,404,o),
(125,407,o),
(125,388,cs),
(125,369,o),
(149,313,o),
(149,353,cs),
(149,393,o),
(197,389,o),
(248,397,cs),
(274,401,o),
(344,401,o),
(375,397,cs),
(409,393,o),
(423,387,o),
(475,360,cs),
(490,352,o),
(505,361,o),
(505,386,cs),
(505,411,o),
(505,398,o),
(505,424,cs),
(505,450,o),
(499,458,o),
(481,458,cs)
);
},
{
closed = 1;
nodes = (
(402,672,o),
(392,582,o),
(371,529,cs),
(356,491,o),
(341,457,o),
(312,455,c),
(410,427,l),
(430,494,o),
(436,515,o),
(450,581,cs),
(463,644,o),
(471,709,o),
(467,738,cs),
(463,763,o),
(445,757,o),
(418,757,cs),
(391,757,o),
(380,699,o),
(392,684,cs)
);
},
{
closed = 1;
nodes = (
(462,372,o),
(451,257,o),
(434,188,cs),
(417,119,o),
(395,54,o),
(357,43,c),
(447,19,l),
(483,137,o),
(504,234,o),
(510,331,cs),
(513,384,o),
(512,413,o),
(509,438,cs),
(506,463,o),
(487,457,o),
(460,457,cs),
(433,457,o),
(394,394,o),
(428,383,cs)
);
},
{
closed = 1;
nodes = (
(463,790,o),
(453,795,o),
(399,772,cs),
(297,728,o),
(206,691,o),
(118,642,cs),
(62,611,o),
(58,602,o),
(67,575,cs),
(86,521,o),
(94,417,o),
(94,331,cs),
(94,259,o),
(79,88,o),
(63,37,cs),
(51,0,o),
(63,0,o),
(113,0,cs),
(139,0,o),
(383,0,o),
(392,0,cs),
(414,0,o),
(415,26,o),
(417,45,cs),
(421,81,o),
(428,165,o),
(415,122,cs),
(402,79,o),
(324,57,o),
(270,57,cs),
(216,57,o),
(176,52,o),
(165,71,cs),
(147,101,o),
(149,263,o),
(149,333,cs),
(149,386,o),
(145,564,o),
(156,581,cs),
(168,599,o),
(225,633,o),
(281,657,cs),
(366,694,o),
(381,699,o),
(392,684,cs),
(410,657,o),
(388,583,o),
(397,591,cs),
(406,599,o),
(471,688,o),
(467,738,cs)
);
},
{
closed = 1;
nodes = (
(364,0,l),
(398,0,o),
(439,-8,o),
(447,19,cs),
(455,46,o),
(464,78,o),
(464,78,c),
(388,71,l),
(336,25,l)
);
}
);
};
layerId = "EB85BB17-2D13-4234-8B6F-29F99969393B";
shapes = (
{
closed = 1;
nodes = (
(191,682,o),
(351,753,o),
(399,772,cs),
(447,791,o),
(464,795,o),
(467,738,cs),
(471,666,o),
(442,499.579,o),
(419,434.579,c),
(419,434.579,o),
(448,434.579,o),
(472,434.579,cs),
(496,434.579,o),
(511,434.579,o),
(511,389.579,cs),
(511,258.579,o),
(488,140,o),
(458,47,cs),
(444,2,o),
(439,0,o),
(385,0,cs),
(324,0,o),
(152,0,o),
(113,0,cs),
(68,0,o),
(49,-7,o),
(65,49,cs),
(79,97,o),
(94,202,o),
(94,308,cs),
(94,405,o),
(85,516,o),
(69,569,cs),
(58,608,o),
(72,617,o),
(118,642,cs)
);
},
{
closed = 1;
nodes = (
(162,593,o),
(155.061,563.573,o),
(152,533.579,cs),
(150.061,514.572,o),
(149,476.579,o),
(149,453.579,cs),
(149,426.579,o),
(171,429.579,o),
(195,429.579,cs),
(219,429.579,o),
(268,431.579,o),
(300,431.579,cs),
(332,431.579,o),
(343.836,443.65,o),
(364,489.579,cs),
(379.837,525.651,o),
(393,600,o),
(395,646,cs),
(397,692,o),
(385,699,o),
(348,685,cs),
(311,671,o),
(222,633,o),
(194,614,cs)
);
},
{
closed = 1;
nodes = (
(148.032,362.274,o),
(149,350.579,o),
(149,285.579,cs),
(149,246.579,o),
(151,172,o),
(155,115,cs),
(159,58,o),
(173,57,o),
(207,57,cs),
(287,57,o),
(312,59,o),
(348,70,cs),
(407,88,o),
(416,116,o),
(431,177,cs),
(440,213,o),
(446.818,243.588,o),
(450,304.579,cs),
(452.818,358.588,o),
(416.028,370.991,o),
(375,373.579,cs),
(305.025,377.992,o),
(268.034,375.274,o),
(197,367.579,cs)
);
}
);
width = 572;
}
);
unicode = 66;
},
{
glyphname = C;
leftMetricsKey = o;
layers = (
{
background = {
shapes = (
{
closed = 1;
nodes = (
(425,793,o),
(416,798,o),
(362,775,cs),
(260,731,o),
(188,696,o),
(109,642,cs),
(71,616,o),
(61,601,o),
(67,573,cs),
(78,520,o),
(81,417,o),
(81,331,cs),
(81,259,o),
(67,46,o),
(63,26,cs),
(57,0,o),
(71,0,o),
(104,0,cs),
(130,0,o),
(394,0,o),
(403,0,cs),
(425,0,o),
(426,26,o),
(428,45,cs),
(432,81,o),
(432,184,o),
(429,198,cs),
(428,204,o),
(406,207,o),
(388,207,cs),
(361,207,o),
(342,208,o),
(346,192,cs),
(358,148,o),
(374,79,o),
(361,67,cs),
(348,55,o),
(188,53,o),
(168,63,cs),
(148,73,o),
(138,265,o),
(138,335,cs),
(138,388,o),
(140,570,o),
(151,587,cs),
(163,605,o),
(220,636,o),
(276,660,cs),
(361,697,o),
(368,697,o),
(371,661,cs),
(375,618,o),
(360,576,o),
(347,549,cs),
(338,530,o),
(345,524,o),
(363,522,cs),
(380,520,o),
(419,518,o),
(428,526,cs),
(437,534,o),
(437,662,o),
(430,741,cs)
);
}
);
};
layerId = "7BB6E1F7-E231-4E79-9496-BA3D1CB9CE3C";
shapes = (
{
closed = 1;
nodes = (
(409,795,o),
(424,808,o),
(430,735,cs),
(436,662,o),
(436,622,o),
(433,559,cs),
(431,523,o),
(433,520,o),
(383,520,cs),
(333,520,o),
(338,524,o),
(353,564,cs),
(369,607,o),
(372,630,o),
(370,661,cs),
(368,688,o),
(367,699,o),
(300,671,cs),
(243,647,o),
(211,632,o),
(180,612,cs),
(154,595,o),
(145,587,o),
(143,550,cs),
(140,501,o),
(137,429,o),
(137,331,cs),
(137,233,o),
(143,144,o),
(154,97,cs),
(162,61,o),
(163,59,o),
(201,58,cs),
(243,57,o),
(266,57,o),
(304,58,cs),
(348,59,o),
(369,57,o),
(364,98,cs),
(359,140,o),
(352,166,o),
(347,186,cs),
(343,203,o),
(348,206,o),
(387,207,cs),
(426,208,o),
(431,207,o),
(430,175,cs),
(429,134,o),
(430,92,o),
(428,63,cs),
(425,30,o),
(426,0,o),
(392,0,cs),
(354,0,o),
(143,0,o),
(105,0,cs),
(67,0,o),
(56,-5,o),
(64,40,cs),
(72,85,o),
(81,252,o),
(80,331,cs),
(79,410,o),
(75,519,o),
(66,573,cs),
(61,601,o),
(72,619,o),
(108,642,cs),
(186,691,o),
(251,728,o),
(320,757,cs)
);
}
);
width = 490;
},
{
background = {
shapes = (
{
closed = 1;
nodes = (
(425,793,o),
(416,798,o),
(362,775,cs),
(260,731,o),
(188,696,o),
(109,642,cs),
(71,616,o),
(61,601,o),
(67,573,cs),
(78,520,o),
(81,417,o),
(81,331,cs),
(81,259,o),
(67,46,o),
(63,26,cs),
(57,0,o),
(71,0,o),
(104,0,cs),
(130,0,o),
(394,0,o),
(403,0,cs),
(425,0,o),
(426,26,o),
(428,45,cs),
(432,81,o),
(432,184,o),
(429,198,cs),
(428,204,o),
(406,207,o),
(388,207,cs),
(361,207,o),
(342,208,o),
(346,192,cs),
(358,148,o),
(374,79,o),
(361,67,cs),
(348,55,o),
(188,53,o),
(168,63,cs),
(148,73,o),
(138,265,o),
(138,335,cs),
(138,388,o),
(140,570,o),
(151,587,cs),
(163,605,o),
(220,636,o),
(276,660,cs),
(361,697,o),
(368,697,o),
(371,661,cs),
(375,618,o),
(360,576,o),
(347,549,cs),
(338,530,o),
(345,524,o),
(363,522,cs),
(380,520,o),
(419,518,o),
(428,526,cs),
(437,534,o),
(437,662,o),
(430,741,cs)
);
}
);
};
layerId = "EB85BB17-2D13-4234-8B6F-29F99969393B";
shapes = (
{
closed = 1;
nodes = (
(409,795,o),
(424,808,o),
(430,735,cs),
(436,662,o),
(436,622,o),
(433,559,cs),
(431,523,o),
(433,520,o),
(383,520,cs),
(333,520,o),
(338,524,o),
(353,564,cs),
(369,607,o),
(372,630,o),
(370,661,cs),
(368,688,o),
(367,699,o),
(300,671,cs),
(243,647,o),
(211,632,o),
(180,612,cs),
(154,595,o),
(145,587,o),
(143,550,cs),
(140,501,o),
(137,429,o),
(137,331,cs),
(137,233,o),
(143,144,o),
(154,97,cs),
(162,61,o),
(163,59,o),
(201,58,cs),
(243,57,o),
(266,57,o),
(304,58,cs),
(348,59,o),
(369,57,o),
(364,98,cs),
(359,140,o),
(352,166,o),
(347,186,cs),
(343,203,o),
(348,206,o),
(387,207,cs),
(426,208,o),
(431,207,o),
(430,175,cs),
(429,134,o),
(430,92,o),
(428,63,cs),
(425,30,o),
(426,0,o),
(392,0,cs),
(354,0,o),
(143,0,o),
(105,0,cs),
(67,0,o),
(56,-5,o),
(64,40,cs),
(72,85,o),
(81,252,o),
(80,331,cs),
(79,410,o),
(75,519,o),
(66,573,cs),
(61,601,o),
(72,619,o),
(108,642,cs),
(186,691,o),
(251,728,o),
(320,757,cs)
);
}
);
width = 490;
}
);
leftKerningGroup = C;
unicode = 67;
},
{
glyphname = D;
leftMetricsKey = B;
layers = (
{
background = {
shapes = (
{
closed = 1;
nodes = (
(433,793,o),
(424,798,o),
(370,775,cs),
(268,731,o),
(198,696,o),
(119,642,cs),
(81,616,o),
(50,600,o),
(64,575,cs),
(91,525,o),
(91,417,o),
(91,331,cs),
(91,259,o),
(78,84,o),
(56,29,cs),
(43,-3,o),
(62,0,o),
(112,0,cs),
(138,0,o),
(368,0,o),
(377,0,cs),
(399,0,o),
(400,26,o),
(402,45,cs),
(406,81,o),
(434,160,o),
(432,173,cs),
(424,217,o),
(376,84,o),
(314,62,cs),
(298,56,o),
(182,51,o),
(162,61,cs),
(142,71,o),
(148,263,o),
(148,333,cs),
(148,386,o),
(146,572,o),
(157,589,cs),
(169,607,o),
(219,644,o),
(275,668,cs),
(360,705,o),
(366,699,o),
(384,667,cs),
(391,654,o),
(450,549,o),
(459,557,cs),
(468,565,o),
(445,662,o),
(438,741,cs)
);
},
{
closed = 1;
nodes = (
(387,700,o),
(445,543,o),
(439,370,cs),
(433,197,o),
(361,77,o),
(314,62,c),
(325,31,o),
(335,0,o),
(377,0,cs),
(424,0,o),
(492,198,o),
(496,375,cs),
(500,552,o),
(482,652,o),
(457,724,cs),
(436,784,o),
(432,807,o),
(377,774,cs),
(354,760,o),
(309,716,o),
(348,708,cs)
);
}
);
};
layerId = "7BB6E1F7-E231-4E79-9496-BA3D1CB9CE3C";
shapes = (
{
closed = 1;
nodes = (
(424,799,o),
(434,803,o),
(454,751,cs),
(493,653,o),
(508,510,o),
(503,375,cs),
(498,240,o),
(469,134,o),
(440,69,cs),
(413,8,o),
(399,0,o),
(375,0,cs),
(308,0,o),
(158,0,o),
(122,0,cs),
(73,0,o),
(52,-5,o),
(62,26,cs),
(81,86,o),
(98,223,o),
(98,318,cs),
(98,413,o),
(98,485,o),
(79,556,cs),
(68,599,o),
(62,598,o),
(120,638,cs),
(198,693,o),
(265,730,o),
(357,770,cs)
);
},
{
closed = 1;
nodes = (
(166,590,o),
(161,587,o),
(158,555,cs),
(156,525,o),
(157,483,o),
(157,386,cs),
(157,289,o),
(154,196,o),
(157,111,cs),
(158,68,o),
(158,56,o),
(184,56,cs),
(210,56,o),
(245,55,o),
(266,56,cs),
(311,58,o),
(335,62,o),
(368,103,cs),
(401,144,o),
(439,238,o),
(443,366,cs),
(447,494,o),
(438,568,o),
(413,646,cs),
(396,697,o),
(385,705,o),
(352,695,cs),
(296,678,o),
(233,643,o),
(191,610,cs)
);
}
);
width = 559;
},
{
background = {
shapes = (
{
closed = 1;
nodes = (
(433,793,o),
(424,798,o),
(370,775,cs),
(268,731,o),
(198,696,o),
(119,642,cs),
(81,616,o),
(50,600,o),
(64,575,cs),
(91,525,o),
(91,417,o),
(91,331,cs),
(91,259,o),
(78,84,o),
(56,29,cs),
(43,-3,o),
(62,0,o),
(112,0,cs),
(138,0,o),
(368,0,o),
(377,0,cs),
(399,0,o),
(400,26,o),
(402,45,cs),
(406,81,o),
(434,160,o),
(432,173,cs),
(424,217,o),
(376,84,o),
(314,62,cs),
(298,56,o),
(182,51,o),
(162,61,cs),
(142,71,o),
(148,263,o),
(148,333,cs),
(148,386,o),
(146,572,o),
(157,589,cs),
(169,607,o),
(219,644,o),
(275,668,cs),
(360,705,o),
(366,699,o),
(384,667,cs),
(391,654,o),
(450,549,o),
(459,557,cs),
(468,565,o),
(445,662,o),
(438,741,cs)
);
},
{
closed = 1;
nodes = (
(387,700,o),
(445,543,o),
(439,370,cs),
(433,197,o),
(361,77,o),
(314,62,c),
(325,31,o),
(335,0,o),
(377,0,cs),
(424,0,o),
(492,198,o),
(496,375,cs),
(500,552,o),
(482,652,o),
(457,724,cs),
(436,784,o),
(432,807,o),
(377,774,cs),
(354,760,o),
(309,716,o),
(348,708,cs)
);
}
);
};
layerId = "EB85BB17-2D13-4234-8B6F-29F99969393B";
shapes = (
{
closed = 1;
nodes = (
(424,799,o),
(434,803,o),
(454,751,cs),
(493,653,o),
(508,510,o),
(503,375,cs),
(498,240,o),
(469,134,o),
(440,69,cs),
(413,8,o),
(399,0,o),
(375,0,cs),
(308,0,o),
(158,0,o),
(122,0,cs),
(73,0,o),
(52,-5,o),
(62,26,cs),
(81,86,o),
(98,223,o),
(98,318,cs),
(98,413,o),
(98,485,o),
(79,556,cs),
(68,599,o),
(62,598,o),
(120,638,cs),
(198,693,o),
(265,730,o),
(357,770,cs)
);
},
{
closed = 1;
nodes = (
(166,590,o),
(161,587,o),
(158,555,cs),
(156,525,o),
(157,483,o),
(157,386,cs),
(157,289,o),
(154,196,o),
(157,111,cs),
(158,68,o),
(158,56,o),
(184,56,cs),
(210,56,o),
(245,55,o),
(266,56,cs),
(311,58,o),
(335,62,o),
(368,103,cs),
(401,144,o),
(439,238,o),
(443,366,cs),
(447,494,o),
(438,568,o),
(413,646,cs),
(396,697,o),
(385,705,o),
(352,695,cs),
(296,678,o),
(233,643,o),
(191,610,cs)
);
}
);
width = 559;
}
);
unicode = 68;
},
{
glyphname = E;
layers = (
{
background = {
shapes = (
{
closed = 1;
nodes = (
(80,129,o),
(94,194,o),
(95,322,cs),
(96,450,o),
(73,520,o),
(49,592,cs),
(42,612,o),
(46,620,o),
(65,620,cs),
(84,620,o),
(82,621,o),
(107,621,cs),
(128,621,o),
(123,626,o),
(128,613,cs),
(135,592,o),
(143,503,o),
(147,449,cs),
(152,383,o),
(152,281,o),
(146,32,cs),
(145,6,o),
(138,0,o),
(120,0,cs),
(102,0,o),
(87,0,o),
(66,0,cs),
(46,0,o),
(51,9,o),
(58,37,cs)
);
},
{
closed = 1;
nodes = (
(282,57,o),
(329,61,o),
(358,77,cs),
(395,98,o),
(419,123,o),
(420,98,cs),
(422,48,o),
(421,1,o),
(386,1,cs),
(351,1,o),
(158,1,o),
(126,1,cs),
(94,1,o),
(70,45,o),
(70,45,c),
(85,58,o),
(149,159,o),
(148,109,cs),
(147,59,o),
(198,57,o),
(240,57,cs)
);
},
{
closed = 1;
nodes = (
(174,638,o),
(131,613,o),
(136,571,cs),
(141,527,o),
(63,544,o),
(49,592,cs),
(41,619,o),
(35,625,o),
(76,653,cs),
(156,707,o),
(303,772,o),
(378,792,cs),
(420,803,o),
(414,781,o),
(414,746,cs),
(414,722,o),
(416,699,o),
(384,706,cs),
(340,716,o),
(275,702,o),
(213,663,cs)
);
},
{
closed = 1;
nodes = (
(369,440,o),
(383,444,o),
(384,417,c),
(384,406,o),
(385,394,o),
(385,371,c),
(386,348,o),
(378,339,o),
(361,344,cs),
(345,349,o),
(301,356,o),
(258,356,cs),
(204,356,o),
(151,345,o),
(151,322,cs),
(151,293,o),
(144,277,o),
(133,290,cs),
(123,303,o),
(142,481,o),
(146,446,cs),
(150,409,o),
(215,408,o),
(258,410,cs),
(301,411,o),
(323,418,o),
(346,429,cs)
);
}
);
};
layerId = "7BB6E1F7-E231-4E79-9496-BA3D1CB9CE3C";
shapes = (
{
closed = 1;
nodes = (
(412,809,o),
(412,797,o),
(412,746,cs),
(412,695,o),
(408,697,o),
(358,703,cs),
(326,707,o),
(272,696,o),
(223,670,cs),
(170,641,o),
(129,619,o),
(134,571,cs),
(139,528,o),
(142,491,o),
(144,466,cs),
(146,437,o),
(144,424,o),
(181,414,cs),
(219,403,o),
(297,408,o),
(340,427,cs),
(377,443,o),
(384,432,o),
(383,396,cs),
(382,360,o),
(386,334,o),
(340,348,cs),
(302,359,o),
(206,358,o),
(175,342,cs),
(148,328,o),
(149,275,o),
(148,231,cs),
(147,187,o),
(145,140,o),
(146,112,cs),
(147,81,o),
(154,57,o),
(238,57,cs),
(322,57,o),
(340,67,o),
(372,87,cs),
(410,111,o),
(420,127,o),
(418,61,cs),
(417,9,o),
(405,1,o),
(377,1,cs),
(349,1,o),
(123,0,o),
(83,0,cs),
(38,0,o),
(46,0,o),
(61,58,cs),
(70,94,o),
(93,183,o),
(93,322,cs),
(93,466,o),
(65,537,o),
(50,584,cs),
(34,634,o),
(49,635,o),
(74,653,cs),
(134,695,o),
(239,746,o),
(314,773,cs)
);
}
);
width = 467;
},
{
background = {
shapes = (
{
closed = 1;
nodes = (
(80,129,o),
(94,194,o),
(95,322,cs),
(96,450,o),
(73,520,o),
(49,592,cs),
(42,612,o),
(46,620,o),
(65,620,cs),
(84,620,o),
(82,621,o),
(107,621,cs),
(128,621,o),
(123,626,o),
(128,613,cs),
(135,592,o),
(143,503,o),
(147,449,cs),
(152,383,o),
(152,281,o),
(146,32,cs),
(145,6,o),
(138,0,o),
(120,0,cs),
(102,0,o),
(87,0,o),
(66,0,cs),
(46,0,o),
(51,9,o),
(58,37,cs)
);
},
{
closed = 1;
nodes = (
(282,57,o),
(329,61,o),
(358,77,cs),
(395,98,o),
(419,123,o),
(420,98,cs),
(422,48,o),
(421,1,o),
(386,1,cs),
(351,1,o),
(158,1,o),
(126,1,cs),
(94,1,o),
(70,45,o),
(70,45,c),
(85,58,o),
(149,159,o),
(148,109,cs),
(147,59,o),
(198,57,o),
(240,57,cs)
);
},
{
closed = 1;
nodes = (
(174,638,o),
(131,613,o),
(136,571,cs),
(141,527,o),
(63,544,o),
(49,592,cs),
(41,619,o),
(35,625,o),
(76,653,cs),
(156,707,o),
(303,772,o),
(378,792,cs),
(420,803,o),
(414,781,o),
(414,746,cs),
(414,722,o),
(416,699,o),
(384,706,cs),
(340,716,o),
(275,702,o),
(213,663,cs)
);
},
{
closed = 1;
nodes = (
(369,440,o),
(383,444,o),
(384,417,cs),
(384,406,o),
(385,394,o),
(385,371,cs),
(386,348,o),
(378,339,o),
(361,344,cs),
(345,349,o),
(301,356,o),
(258,356,cs),
(204,356,o),
(151,345,o),
(151,322,cs),
(151,293,o),
(144,277,o),
(133,290,cs),
(123,303,o),
(142,481,o),
(146,446,cs),
(150,409,o),
(215,408,o),
(258,410,cs),
(301,411,o),
(323,418,o),
(346,429,cs)
);
}
);
};
layerId = "A7766F88-1138-442A-AF34-AEAEAC0398D2";
name = "New Layer";
width = 449;
},
{
layerId = "EB85BB17-2D13-4234-8B6F-29F99969393B";
shapes = (
{
closed = 1;
nodes = (
(415,809,o),
(415,797,o),
(415,746,cs),
(415,695,o),
(411,697,o),
(361,703,cs),
(329,707,o),
(275,696,o),
(226,670,cs),
(173,641,o),
(131.426,618.937,o),
(137,571,cs),
(142,528,o),
(140.489,520.412,o),
(145.048,486.039,cs),
(149.204,454.708,o),
(144.722,444.742,o),
(181.63,433.501,cs),
(219.725,421.899,o),
(297.561,427.146,o),
(340.63,447.642,cs),
(377.561,465.217,o),
(384.63,453.08,o),
(383.63,413.922,cs),
(382.63,374.764,o),
(386.715,346.793,o),
(340.63,361.712,cs),
(302.713,373.986,o),
(206.616,372.619,o),
(175.63,355.185,cs),
(149.123,340.272,o),
(151.066,294.777,o),
(150.066,250.777,cs),
(149.066,206.777,o),
(148,140,o),
(149,112,cs),
(150,81,o),
(157,57,o),
(241,57,cs),
(325,57,o),
(343,67,o),
(375,87,cs),
(413,111,o),
(423,127,o),
(421,61,cs),
(420,9,o),
(408,1,o),
(380,1,cs),
(352,1,o),
(126,0,o),
(86,0,cs),
(41,0,o),
(49,0,o),
(64,58,cs),
(73,94,o),
(96,183,o),
(96,322,cs),
(96,466,o),
(68,537,o),
(53,584,cs),
(37,634,o),
(52,635,o),
(77,653,cs),
(137,695,o),
(242,746,o),
(317,773,cs)
);
}
);
width = 478;
}
);
leftKerningGroup = E;
rightKerningGroup = E1;
unicode = 69;
},
{
glyphname = F;
leftMetricsKey = D;
layers = (
{
background = {
shapes = (
{
closed = 1;
nodes = (
(90,129,o),
(104,194,o),
(105,322,cs),
(106,450,o),
(83,520,o),
(59,592,cs),
(52,612,o),
(56,620,o),
(75,620,cs),
(94,620,o),
(96,621,o),
(121,621,cs),
(142,621,o),
(142,585,o),
(145,571,cs),
(151,545,o),
(157,503,o),
(161,449,cs),
(166,383,o),
(166,281,o),
(160,32,cs),
(159,6,o),
(152,0,o),
(134,0,cs),
(116,0,o),
(97,0,o),
(76,0,cs),
(56,0,o),
(61,9,o),
(68,37,cs)
);
},
{
closed = 1;
nodes = (
(183,638,o),
(140,613,o),
(145,571,cs),
(150,527,o),
(72,544,o),
(58,592,cs),
(50,619,o),
(44,625,o),
(85,653,cs),
(165,707,o),
(312,772,o),
(387,792,cs),
(429,803,o),
(423,781,o),
(423,746,cs),
(423,722,o),
(425,699,o),
(393,706,cs),
(349,716,o),
(284,702,o),
(222,663,cs)
);
},
{
closed = 1;
nodes = (
(378,440,o),
(392,444,o),
(393,417,c),
(393,406,o),
(394,394,o),
(394,371,c),
(395,348,o),
(387,339,o),
(370,344,cs),
(354,349,o),
(310,356,o),
(267,356,cs),
(213,356,o),
(165,344,o),
(165,321,cs),
(165,292,o),
(153,277,o),
(142,290,cs),
(132,303,o),
(159,481,o),
(161,446,cs),
(163,407,o),
(224,408,o),
(267,410,cs),
(310,411,o),
(332,418,o),
(355,429,cs)
);
}
);
};
layerId = "7BB6E1F7-E231-4E79-9496-BA3D1CB9CE3C";
shapes = (
{
closed = 1;
nodes = (
(54,0,o),
(62,0,o),
(77,58,cs),
(86,94,o),
(109,183,o),
(109,322,cs),
(109,466,o),
(81,537,o),
(66,584,cs),
(50,634,o),
(65,635,o),
(90,653,cs),
(150,695,o),
(255,746,o),
(330,773,cs),
(428,809,o),
(428,797,o),
(428,746,cs),
(428,695,o),
(424,697,o),
(374,703,cs),
(342,707,o),
(288,696,o),
(239,670,cs),
(186,641,o),
(145,619,o),
(150,571,cs),
(155,528,o),
(158,491,o),
(160,466,cs),
(162,437,o),
(160,424,o),
(197,414,cs),
(235,403,o),
(313,408,o),
(356,427,cs),
(393,443,o),
(400,432,o),
(399,396,cs),
(398,360,o),
(402,334,o),
(356,348,cs),
(318,359,o),
(222,358,o),
(191,342,cs),
(164,328,o),
(165,275,o),
(164,231,cs),
(163,187,o),
(165,119,o),
(168,67,cs),
(171,7,o),
(174,0,o),
(120,0,cs)
);
}
);
width = 444;
},
{
background = {
shapes = (
{
closed = 1;
nodes = (
(90,129,o),
(104,194,o),
(105,322,cs),
(106,450,o),
(83,520,o),
(59,592,cs),
(52,612,o),
(56,620,o),
(75,620,cs),
(94,620,o),
(96,621,o),
(121,621,cs),
(142,621,o),
(142,585,o),
(145,571,cs),
(151,545,o),
(157,503,o),
(161,449,cs),
(166,383,o),
(166,281,o),
(160,32,cs),
(159,6,o),
(152,0,o),
(134,0,cs),
(116,0,o),
(97,0,o),
(76,0,cs),
(56,0,o),
(61,9,o),
(68,37,cs)
);
},
{
closed = 1;
nodes = (
(183,638,o),
(140,613,o),
(145,571,cs),
(150,527,o),
(72,544,o),
(58,592,cs),
(50,619,o),
(44,625,o),
(85,653,cs),
(165,707,o),
(312,772,o),
(387,792,cs),
(429,803,o),
(423,781,o),
(423,746,cs),
(423,722,o),
(425,699,o),
(393,706,cs),
(349,716,o),
(284,702,o),
(222,663,cs)
);
},
{
closed = 1;
nodes = (
(378,440,o),
(392,444,o),
(393,417,cs),
(393,406,o),
(394,394,o),
(394,371,cs),
(395,348,o),
(387,339,o),
(370,344,cs),
(354,349,o),
(310,356,o),
(267,356,cs),
(213,356,o),
(165,344,o),
(165,321,cs),
(165,292,o),
(153,277,o),
(142,290,cs),
(132,303,o),
(159,481,o),
(161,446,cs),
(163,407,o),
(224,408,o),
(267,410,cs),
(310,411,o),
(332,418,o),
(355,429,cs)
);
}
);
};
layerId = "EB85BB17-2D13-4234-8B6F-29F99969393B";
shapes = (
{
closed = 1;
nodes = (
(54,0,o),
(62,0,o),
(77,58,cs),
(86,94,o),
(109,183,o),
(109,322,cs),
(109,466,o),
(81,537,o),
(66,584,cs),
(50,634,o),
(65,635,o),
(90,653,cs),
(150,695,o),
(255,746,o),
(330,773,cs),
(428,809,o),
(428,797,o),
(428,746,cs),
(428,695,o),
(424,697,o),
(374,703,cs),
(342,707,o),
(288,696,o),
(239,670,cs),
(186,641,o),
(145.203,619.021,o),
(150,571,cs),
(153.235,538.613,o),
(154.481,513.632,o),
(158.624,486.793,cs),
(163.059,458.064,o),
(158.716,449.127,o),
(195.624,438.793,cs),
(233.719,428.126,o),
(311.555,432.95,o),
(354.624,451.793,cs),
(391.556,467.95,o),
(398.624,452.793,o),
(397.624,416.793,cs),
(396.624,380.793,o),
(400.71,355.077,o),
(354.624,368.793,cs),
(316.708,380.078,o),
(220.61,378.82,o),
(189.624,362.793,cs),
(162.61,348.82,o),
(165,275,o),
(164,231,cs),
(163,187,o),
(165,119,o),
(168,67,cs),
(171,7,o),
(174,0,o),
(120,0,cs)
);
}
);
width = 444;
}
);
leftKerningGroup = E;
unicode = 70;
},
{
glyphname = H;
leftMetricsKey = I;
rightMetricsKey = I;
layers = (
{
background = {
shapes = (
{
closed = 1;
nodes = (
(87,163,o),
(89,293,o),
(89,399,cs),
(89,455,o),
(85,537,o),
(77,607,cs),
(71,661,o),
(69,694,o),
(63,727,cs),
(57,758,o),
(49,775,o),
(68,775,cs),
(87,775,o),
(102,776,o),
(127,776,cs),
(146,776,o),
(149,767,o),
(146,713,cs),
(143,657,o),
(142,618,o),
(142,585,cs),
(142,519,o),
(143,329,o),
(148,80,cs),
(149,27,o),
(149,0,o),
(131,0,cs),
(113,0,o),
(84,0,o),
(63,0,cs),
(43,0,o),
(53,27,o),
(61,58,cs)
);
},
{
closed = 1;
nodes = (
(448,516,o),
(465,450,o),
(465,424,cs),
(465,398,o),
(465,411,o),
(465,386,cs),
(465,361,o),
(452,349,o),
(452,372,cs),
(452,395,o),
(354,401,o),
(293,399,cs),
(232,397,o),
(145,397,o),
(145,362,cs),
(145,335,o),
(134,369,o),
(134,388,cs),
(134,407,o),
(118,417,o),
(118,435,cs),
(118,463,o),
(143,495,o),
(143,477,cs),
(143,459,o),
(238,458,o),
(296,458,cs),
(379,458,o),
(452,456,o),
(450,486,cs)
);
},
{
closed = 1;
nodes = (
(450,163,o),
(452,293,o),
(452,399,cs),
(452,455,o),
(448,537,o),
(440,607,cs),
(434,661,o),
(432,694,o),
(426,727,cs),
(420,758,o),
(412,775,o),
(431,775,cs),
(450,775,o),
(465,776,o),
(490,776,cs),
(509,776,o),
(512,767,o),
(509,713,cs),
(506,657,o),
(505,618,o),
(505,585,cs),
(505,519,o),
(506,329,o),
(511,80,cs),
(512,27,o),
(512,0,o),
(494,0,cs),
(476,0,o),
(447,0,o),
(426,0,cs),
(406,0,o),
(416,27,o),
(424,58,cs)
);
}
);
};
layerId = "7BB6E1F7-E231-4E79-9496-BA3D1CB9CE3C";
shapes = (
{
closed = 1;
nodes = (
(145,776,o),
(153,785,o),
(150,729,cs),
(147,673,o),
(143,590,o),
(145,509,cs),
(146,474,o),
(147,467,o),
(177,463,cs),
(244,454,o),
(356,456,o),
(402,460,cs),
(449,464,o),
(453,470,o),
(451,511,cs),
(449,550,o),
(438,691,o),
(429,729,cs),
(418,776,o),
(418,776,o),
(464,776,cs),
(510,776,o),
(516,778,o),
(513,726,cs),
(500,499,o),
(503,295,o),
(514,46,cs),
(516,2,o),
(519,-2,o),
(464,0,cs),
(409,2,o),
(416,-1,o),
(427,58,cs),
(443,141,o),
(455,238,o),
(455,356,cs),
(455,390,o),
(427,392,o),
(395,395,cs),
(365,398,o),
(232,396,o),
(184,390,cs),
(151,386,o),
(147,375,o),
(147,341,cs),
(147,316,o),
(151,118,o),
(151,74,cs),
(151,9,o),
(163,0,o),
(102,0,cs),
(41,0,o),
(51,4,o),
(65,64,cs),
(84,147,o),
(92,238,o),
(92,399,cs),
(92,554,o),
(73,669,o),
(65,723,cs),
(56,781,o),
(50,776,o),
(107,776,cs)
);
}
);
width = 598;
},
{
background = {
shapes = (
{
closed = 1;
nodes = (
(87,163,o),
(89,293,o),
(89,399,cs),
(89,455,o),
(85,537,o),
(77,607,cs),
(71,661,o),
(69,694,o),
(63,727,cs),
(57,758,o),
(49,775,o),
(68,775,cs),
(87,775,o),
(102,776,o),
(127,776,cs),
(146,776,o),
(149,767,o),
(146,713,cs),
(143,657,o),
(142,618,o),
(142,585,cs),
(142,519,o),
(143,329,o),
(148,80,cs),
(149,27,o),
(149,0,o),
(131,0,cs),
(113,0,o),
(84,0,o),
(63,0,cs),
(43,0,o),
(53,27,o),
(61,58,cs)
);
},
{
closed = 1;
nodes = (
(448,516,o),
(465,450,o),
(465,424,cs),
(465,398,o),
(465,411,o),
(465,386,cs),
(465,361,o),
(452,349,o),
(452,372,cs),
(452,395,o),
(354,401,o),
(293,399,cs),
(232,397,o),
(145,397,o),
(145,362,cs),
(145,335,o),
(134,369,o),
(134,388,cs),
(134,407,o),
(118,417,o),
(118,435,cs),
(118,463,o),
(143,495,o),
(143,477,cs),
(143,459,o),
(238,458,o),
(296,458,cs),
(379,458,o),
(452,456,o),
(450,486,cs)
);
},
{
closed = 1;
nodes = (
(450,163,o),
(452,293,o),
(452,399,cs),
(452,455,o),
(448,537,o),
(440,607,cs),
(434,661,o),
(432,694,o),
(426,727,cs),
(420,758,o),
(412,775,o),
(431,775,cs),
(450,775,o),
(465,776,o),
(490,776,cs),
(509,776,o),
(512,767,o),
(509,713,cs),
(506,657,o),
(505,618,o),
(505,585,cs),
(505,519,o),
(506,329,o),
(511,80,cs),
(512,27,o),
(512,0,o),
(494,0,cs),
(476,0,o),
(447,0,o),
(426,0,cs),
(406,0,o),
(416,27,o),
(424,58,cs)
);
}
);
};
layerId = "EB85BB17-2D13-4234-8B6F-29F99969393B";
shapes = (
{
closed = 1;
nodes = (
(145,776,o),
(153,785,o),
(150,729,cs),
(147,673,o),
(142.905,610.466,o),
(145,529.468,cs),
(145.905,494.466,o),
(147.003,487.488,o),
(177,483.468,cs),
(244.003,474.488,o),
(355.996,476.511,o),
(402,480.468,cs),
(448.996,484.511,o),
(453.05,490.471,o),
(451,531.468,cs),
(449.05,570.471,o),
(438,691,o),
(429,729,cs),
(418,776,o),
(418,776,o),
(464,776,cs),
(510,776,o),
(516,778,o),
(513,726,cs),
(500,499,o),
(503,295,o),
(514,46,cs),
(516,2,o),
(519,-2,o),
(464,0,cs),
(409,2,o),
(416,-1,o),
(427,58,cs),
(443,141,o),
(455,258.468,o),
(455,376.468,cs),
(455,410.468,o),
(426.991,412.372,o),
(395,415.468,cs),
(364.991,418.372,o),
(232.009,416.395,o),
(184,410.468,cs),
(151.009,406.395,o),
(147,395.468,o),
(147,361.468,cs),
(147,336.468,o),
(151,118,o),
(151,74,cs),
(151,9,o),
(163,0,o),
(102,0,cs),
(41,0,o),
(51,4,o),
(65,64,cs),
(84,147,o),
(92,238,o),
(92,399,cs),
(92,554,o),
(73,669,o),
(65,723,cs),
(56,781,o),
(50,776,o),
(107,776,cs)
);
}
);
width = 598;
}
);
rightKerningGroup = H;
unicode = 72;
},
{
glyphname = I;
layers = (
{
background = {
shapes = (
{
closed = 1;
nodes = (
(90,163,o),
(92,293,o),
(92,399,cs),
(92,455,o),
(90,522,o),
(82,592,cs),
(76,646,o),
(72,694,o),
(66,727,cs),
(60,758,o),
(52,775,o),
(71,775,cs),
(90,775,o),
(105,776,o),
(130,776,cs),
(149,776,o),
(152,767,o),
(149,713,cs),
(146,657,o),
(145,618,o),
(145,585,cs),
(145,519,o),
(146,329,o),
(151,80,cs),
(152,27,o),
(152,0,o),
(134,0,cs),
(116,0,o),
(87,0,o),
(66,0,cs),
(46,0,o),
(56,27,o),
(64,58,cs)
);
}
);
};
layerId = "7BB6E1F7-E231-4E79-9496-BA3D1CB9CE3C";
shapes = (
{
closed = 1;
nodes = (
(145,776,o),
(152,776,o),
(150,729,cs),
(138,500,o),
(144,304,o),
(151,69,cs),
(153,4,o),
(163,0,o),
(102,0,cs),
(41,0,o),
(51,4,o),
(65,64,cs),
(84,147,o),
(92,238,o),
(92,399,cs),
(92,554,o),
(74,669,o),
(65,723,cs),
(56,776,o),
(50,776,o),
(107,776,cs)
);
}
);
width = 236;
},
{
background = {
shapes = (
{
closed = 1;
nodes = (
(90,163,o),
(92,293,o),
(92,399,cs),
(92,455,o),
(90,522,o),
(82,592,cs),
(76,646,o),
(72,694,o),
(66,727,cs),
(60,758,o),
(52,775,o),
(71,775,cs),
(90,775,o),
(105,776,o),
(130,776,cs),
(149,776,o),
(152,767,o),
(149,713,cs),
(146,657,o),
(145,618,o),
(145,585,cs),
(145,519,o),
(146,329,o),
(151,80,cs),
(152,27,o),
(152,0,o),
(134,0,cs),
(116,0,o),
(87,0,o),
(66,0,cs),
(46,0,o),
(56,27,o),
(64,58,cs)
);
}
);
};
layerId = "EB85BB17-2D13-4234-8B6F-29F99969393B";
shapes = (
{
closed = 1;
nodes = (
(145,776,o),
(152,776,o),
(150,729,cs),
(138,500,o),
(144,304,o),
(151,69,cs),
(153,4,o),
(163,0,o),
(102,0,cs),
(41,0,o),
(51,4,o),
(65,64,cs),
(84,147,o),
(92,238,o),
(92,399,cs),
(92,554,o),
(74,669,o),
(65,723,cs),
(56,776,o),
(50,776,o),
(107,776,cs)
);
}
);
width = 236;
}
);
leftKerningGroup = I;
rightKerningGroup = I1;
unicode = 73;
},
{
glyphname = L;
leftMetricsKey = H;
layers = (
{
background = {
shapes = (
{
closed = 1;
nodes = (
(305,57,o),
(365,59,o),
(397,82,cs),
(419,98,o),
(443,121,o),
(443,82,cs),
(443,33,o),
(444,1,o),
(409,1,cs),
(374,1,o),
(161,1,o),
(129,1,cs),
(97,1,o),
(72,47,o),
(72,47,c),
(87,60,o),
(152,159,o),
(151,109,cs),
(150,59,o),
(221,57,o),
(263,57,cs)
);
},
{
closed = 1;
nodes = (
(90,163,o),
(92,293,o),
(92,399,cs),
(92,454,o),
(90,522,o),
(82,592,cs),
(76,646,o),
(72,694,o),
(66,727,cs),
(60,758,o),
(52,775,o),
(71,775,cs),
(90,775,o),
(105,776,o),
(130,776,cs),
(149,776,o),
(152,767,o),
(149,713,cs),
(146,657,o),
(145,618,o),
(145,585,cs),
(145,519,o),
(146,329,o),
(151,80,cs),
(152,27,o),
(152,0,o),
(134,0,cs),
(116,0,o),
(87,0,o),
(66,0,cs),
(46,0,o),
(56,27,o),
(64,58,cs)
);
}
);
};
layerId = "7BB6E1F7-E231-4E79-9496-BA3D1CB9CE3C";
shapes = (
{
closed = 1;
nodes = (
(41,0,o),
(51,4,o),
(65,64,cs),
(84,147,o),
(92,238,o),
(92,399,cs),
(92,554,o),
(74,669,o),
(65,723,cs),
(56,776,o),
(50,776,o),
(107,776,cs),
(145,776,o),
(152,776,o),
(150,729,cs),
(140,533,o),
(150,166,o),
(150,120,cs),
(150,92,o),
(157,68,o),
(197,62,cs),
(260,53,o),
(321,53,o),
(373,72,cs),
(413,87,o),
(445,136,o),
(443,63,cs),
(441,-5,o),
(427,0,o),
(391,0,cs),
(355,0,o),
(128,0,o),
(102,0,cs)
);
}
);
width = 467;
},
{
background = {
shapes = (
{
closed = 1;
nodes = (
(305,57,o),
(365,59,o),
(397,82,cs),
(419,98,o),
(443,121,o),
(443,82,cs),
(443,33,o),
(444,1,o),
(409,1,cs),
(374,1,o),
(161,1,o),
(129,1,cs),
(97,1,o),
(72,47,o),
(72,47,c),
(87,60,o),
(152,159,o),
(151,109,cs),
(150,59,o),
(221,57,o),
(263,57,cs)
);
},
{
closed = 1;
nodes = (
(90,163,o),
(92,293,o),
(92,399,cs),
(92,454,o),
(90,522,o),
(82,592,cs),
(76,646,o),
(72,694,o),
(66,727,cs),
(60,758,o),
(52,775,o),
(71,775,cs),
(90,775,o),
(105,776,o),
(130,776,cs),
(149,776,o),
(152,767,o),
(149,713,cs),
(146,657,o),
(145,618,o),
(145,585,cs),
(145,519,o),
(146,329,o),
(151,80,cs),
(152,27,o),
(152,0,o),
(134,0,cs),
(116,0,o),
(87,0,o),
(66,0,cs),
(46,0,o),
(56,27,o),
(64,58,cs)
);
}
);
};
layerId = "EB85BB17-2D13-4234-8B6F-29F99969393B";
shapes = (
{
closed = 1;
nodes = (
(41,0,o),
(51,4,o),
(65,64,cs),
(84,147,o),
(92,238,o),
(92,399,cs),
(92,554,o),
(74,669,o),
(65,723,cs),
(56,776,o),
(50,776,o),
(107,776,cs),
(145,776,o),
(152,776,o),
(150,729,cs),
(140,533,o),
(150,166,o),
(150,120,cs),
(150,92,o),
(157,68,o),
(197,62,cs),
(260,53,o),
(321,53,o),
(373,72,cs),
(413,87,o),
(445,136,o),
(443,63,cs),
(441,-5,o),
(427,0,o),
(391,0,cs),
(355,0,o),
(128,0,o),
(102,0,c)
);
}
);
width = 467;
}
);
leftKerningGroup = L;
unicode = 76;
},
{
glyphname = O;
layers = (
{
background = {
shapes = (
{
closed = 1;
nodes = (
(436,794,o),
(425,798,o),
(370,776,cs),
(258,732,o),
(188,696,o),
(105,643,cs),
(66,619,o),
(58,602,o),
(64,574,cs),
(75,521,o),
(81,387,o),
(78,230,cs),
(77,158,o),
(64,46,o),
(60,26,cs),
(54,0,o),
(68,0,o),
(101,0,cs),
(127,0,o),
(404,0,o),
(413,0,cs),
(435,0,o),
(434,26,o),
(436,45,cs),
(442,117,o),
(391,86,o),
(355,70,cs),
(323,56,o),
(193,50,o),
(157,76,cs),
(139,88,o),
(135,341,o),
(135,411,cs),
(135,464,o),
(137,567,o),
(145,585,cs),
(152,601,o),
(217,646,o),
(268,669,cs),
(354,708,o),
(364,693,o),
(373,667,cs),
(380,646,o),
(391,563,o),
(391,470,cs),
(391,365,o),
(380,86,o),
(355,70,cs),
(325,51,o),
(350,39,o),
(368,37,cs),
(385,35,o),
(433,17,o),
(436,45,cs),
(443,117,o),
(446,356,o),
(448,470,cs),
(450,588,o),
(445,702,o),
(441,742,cs)
);
}
);
};
layerId = "7BB6E1F7-E231-4E79-9496-BA3D1CB9CE3C";
shapes = (
{
closed = 1;
nodes = (
(411,794,o),
(436,810,o),
(442,738,cs),
(455,582,o),
(446,167,o),
(441,96,cs),
(434,0,o),
(437,-2,o),
(375,0,cs),
(327,1,o),
(159,1,o),
(103,1,cs),
(49,1,o),
(56,1,o),
(64,55,cs),
(75,127,o),
(80,241,o),
(80,350,cs),
(80,459,o),
(74,523,o),
(64,576,cs),
(59,601,o),
(67,615,o),
(106,642,cs),
(156,677,o),
(269,736,o),
(333,762,cs)
);
},
{
closed = 1;
nodes = (
(280,676,o),
(200,635,o),
(163,603,cs),
(144,587,o),
(141,583,o),
(139,541,cs),
(132,415,o),
(132,256,o),
(148,116,cs),
(153,72,o),
(157,69,o),
(183,66,cs),
(252,58,o),
(292,59,o),
(329,64,cs),
(366,69,o),
(369,84,o),
(375,132,cs),
(396,305,o),
(398,450,o),
(382,624,cs),
(375,698,o),
(352,700,o),
(311,686,cs)
);
}
);
width = 516;
},
{
background = {
shapes = (
{
closed = 1;
nodes = (
(436,794,o),
(425,798,o),
(370,776,cs),
(258,732,o),
(188,696,o),
(105,643,cs),
(66,619,o),
(58,602,o),
(64,574,cs),
(75,521,o),
(81,387,o),
(78,230,cs),
(77,158,o),
(64,46,o),
(60,26,cs),
(54,0,o),
(68,0,o),
(101,0,cs),
(127,0,o),
(404,0,o),
(413,0,cs),
(435,0,o),
(434,26,o),
(436,45,cs),
(442,117,o),
(391,86,o),
(355,70,cs),
(323,56,o),
(193,50,o),
(157,76,cs),
(139,88,o),
(135,341,o),
(135,411,cs),
(135,464,o),
(137,567,o),
(145,585,cs),
(152,601,o),
(217,646,o),
(268,669,cs),
(354,708,o),
(364,693,o),
(373,667,cs),
(380,646,o),
(391,563,o),
(391,470,cs),
(391,365,o),
(380,86,o),
(355,70,cs),
(325,51,o),
(350,39,o),
(368,37,cs),
(385,35,o),
(433,17,o),
(436,45,cs),
(443,117,o),
(446,356,o),
(448,470,cs),
(450,588,o),
(445,702,o),
(441,742,cs)
);
}
);
};
layerId = "EB85BB17-2D13-4234-8B6F-29F99969393B";
shapes = (
{
closed = 1;
nodes = (
(411,794,o),
(436,810,o),
(442,738,cs),
(455,582,o),
(446,167,o),
(441,96,cs),
(434,0,o),
(437,-2,o),
(375,0,cs),
(327,1,o),
(159,1,o),
(103,1,cs),
(49,1,o),
(56,1,o),
(64,55,cs),
(75,127,o),
(80,241,o),
(80,350,cs),
(80,459,o),
(74,523,o),
(64,576,cs),
(59,601,o),
(67,615,o),
(106,642,cs),
(156,677,o),
(269,736,o),
(333,762,cs)
);
},
{
closed = 1;
nodes = (
(280,676,o),
(200,635,o),
(163,603,cs),
(144,587,o),
(141,583,o),
(139,541,cs),
(132,415,o),
(132,256,o),
(148,116,cs),
(153,72,o),
(157,69,o),
(183,66,cs),
(252,58,o),
(292,59,o),
(329,64,cs),
(366,69,o),
(369,84,o),
(375,132,cs),
(396,305,o),
(398,450,o),
(382,624,cs),
(375,698,o),
(352,700,o),
(311,686,cs)
);
}
);
width = 516;
}
);
leftKerningGroup = C;
rightKerningGroup = H;
unicode = 79;
},
{
glyphname = Q;
leftMetricsKey = O;
rightMetricsKey = O;
layers = (
{
background = {
shapes = (
{
closed = 1;
nodes = (
(323,-141,o),
(330,-149,o),
(344,-145,cs),
(351,-143,o),
(372,-132,o),
(386,-123,cs),
(400,-114,o),
(411,-113,o),
(409,-100,cs),
(407,-88,o),
(351,11,o),
(338,44,cs),
(327,73,o),
(311,131,o),
(297,165,cs),
(287,190,o),
(270,186,o),
(244,167,cs),
(218,148,o),
(209,134,o),
(224,110,cs),
(236,91,o),
(252,66,o),
(280,0,cs),
(308,-66,o),
(315,-112,o),
(321,-133,cs)
);
},
{
closed = 1;
nodes = (
(436,794,o),
(425,798,o),
(370,776,cs),
(258,732,o),
(188,696,o),
(105,643,cs),
(66,619,o),
(58,602,o),
(64,574,cs),
(75,521,o),
(81,387,o),
(78,230,cs),
(77,158,o),
(64,46,o),
(60,26,cs),
(54,0,o),
(68,0,o),
(101,0,cs),
(127,0,o),
(404,0,o),
(413,0,cs),
(435,0,o),
(434,26,o),
(436,45,cs),
(442,117,o),
(391,86,o),
(355,70,cs),
(323,56,o),
(193,50,o),
(157,76,cs),
(139,88,o),
(135,341,o),
(135,411,cs),
(135,464,o),
(137,567,o),
(145,585,cs),
(152,601,o),
(217,646,o),
(268,669,cs),
(354,708,o),
(364,693,o),
(373,667,cs),
(380,646,o),
(391,563,o),
(391,470,cs),
(391,365,o),
(380,86,o),
(355,70,cs),
(325,51,o),
(350,39,o),
(368,37,cs),
(385,35,o),
(433,17,o),
(436,45,cs),
(443,117,o),
(446,356,o),
(448,470,cs),
(450,588,o),
(445,702,o),
(441,742,cs)
);
}
);
};
layerId = "7BB6E1F7-E231-4E79-9496-BA3D1CB9CE3C";
shapes = (
{
closed = 1;
nodes = (
(411,794,o),
(436,810,o),
(442,738,cs),
(455,582,o),
(446,167,o),
(441,96,cs),
(434,0,o),
(437,-2,o),
(375,0,cs),
(327,1,o),
(159,1,o),
(103,1,cs),
(49,1,o),
(56,1,o),
(64,55,cs),
(75,127,o),
(80,241,o),
(80,350,cs),
(80,459,o),
(74,523,o),
(64,576,cs),
(59,601,o),
(67,615,o),
(106,642,cs),
(156,677,o),
(269,736,o),
(333,762,cs)
);
},
{
closed = 1;
nodes = (
(280,676,o),
(200,635,o),
(163,603,cs),
(144,587,o),
(141,583,o),
(139,541,cs),
(132,415,o),
(132,256,o),
(148,116,cs),
(153,72,o),
(157,69,o),
(183,66,cs),
(252,58,o),
(292,59,o),
(329,64,cs),
(366,69,o),
(369,84,o),
(375,132,cs),
(396,305,o),
(398,450,o),
(382,624,cs),
(375,698,o),
(352,700,o),
(311,686,cs)
);
},
{
closed = 1;
nodes = (
(290,194,o),
(294,180,o),
(308,130,cs),
(333,43,o),
(356,-6,o),
(387,-56,cs),
(418,-106,o),
(426,-114,o),
(378,-137,cs),
(330,-160,o),
(327,-167,o),
(312,-97,cs),
(296,-20,o),
(283,21,o),
(240,83,cs),
(207,131,o),
(196,134,o),
(243,164,cs)
);
}
);
width = 516;
},
{
background = {
shapes = (
{
closed = 1;
nodes = (
(323,-141,o),
(330,-149,o),
(344,-145,cs),
(351,-143,o),
(372,-132,o),
(386,-123,cs),
(400,-114,o),
(411,-113,o),
(409,-100,cs),
(407,-88,o),
(351,11,o),
(338,44,cs),
(327,73,o),
(311,131,o),
(297,165,cs),
(287,190,o),
(270,186,o),
(244,167,cs),
(218,148,o),
(209,134,o),
(224,110,cs),
(236,91,o),
(252,66,o),
(280,0,cs),
(308,-66,o),
(315,-112,o),
(321,-133,cs)
);
},
{
closed = 1;
nodes = (
(436,794,o),
(425,798,o),
(370,776,cs),
(258,732,o),
(188,696,o),
(105,643,cs),
(66,619,o),
(58,602,o),
(64,574,cs),
(75,521,o),
(81,387,o),
(78,230,cs),
(77,158,o),
(64,46,o),
(60,26,cs),
(54,0,o),
(68,0,o),
(101,0,cs),
(127,0,o),
(404,0,o),
(413,0,cs),
(435,0,o),
(434,26,o),
(436,45,cs),
(442,117,o),
(391,86,o),
(355,70,cs),
(323,56,o),
(193,50,o),
(157,76,cs),
(139,88,o),
(135,341,o),
(135,411,cs),
(135,464,o),
(137,567,o),
(145,585,cs),
(152,601,o),
(217,646,o),
(268,669,cs),
(354,708,o),
(364,693,o),
(373,667,cs),
(380,646,o),
(391,563,o),
(391,470,cs),
(391,365,o),
(380,86,o),
(355,70,cs),
(325,51,o),
(350,39,o),
(368,37,cs),
(385,35,o),
(433,17,o),
(436,45,cs),
(443,117,o),
(446,356,o),
(448,470,cs),
(450,588,o),
(445,702,o),
(441,742,cs)
);
}
);
};
layerId = "EB85BB17-2D13-4234-8B6F-29F99969393B";
shapes = (
{
closed = 1;
nodes = (
(411,794,o),
(436,810,o),
(442,738,cs),
(455,582,o),
(446,167,o),
(441,96,cs),
(434,0,o),
(437,-2,o),
(375,0,cs),
(327,1,o),
(159,1,o),
(103,1,cs),
(49,1,o),
(56,1,o),
(64,55,cs),
(75,127,o),
(80,241,o),
(80,350,cs),
(80,459,o),
(74,523,o),
(64,576,cs),
(59,601,o),
(67,615,o),
(106,642,cs),
(156,677,o),
(269,736,o),
(333,762,cs)
);
},
{
closed = 1;
nodes = (
(280,676,o),
(200,635,o),
(163,603,cs),
(144,587,o),
(141,583,o),
(139,541,cs),
(132,415,o),
(132,256,o),
(148,116,cs),
(153,72,o),
(157,69,o),
(183,66,cs),
(252,58,o),
(292,59,o),
(329,64,cs),
(366,69,o),
(369,84,o),
(375,132,cs),
(396,305,o),
(398,450,o),
(382,624,cs),
(375,698,o),
(352,700,o),
(311,686,cs)
);
},
{
closed = 1;
nodes = (
(290,194,o),
(294,180,o),
(308,130,cs),
(333,43,o),
(356,-6,o),
(387,-56,cs),
(418,-106,o),
(426,-114,o),
(378,-137,cs),
(330,-160,o),
(327,-167,o),
(312,-97,cs),
(296,-20,o),
(283,21,o),
(240,83,cs),
(207,131,o),
(196,134,o),
(243,164,cs)
);
}
);
width = 516;
}
);
rightKerningGroup = H;
unicode = 81;
},
{
glyphname = R;
leftMetricsKey = D;
rightMetricsKey = B;
layers = (
{
background = {
shapes = (
{
closed = 1;
nodes = (
(170,0,o),
(147,0,o),
(113,0,cs),
(79,0,o),
(44,-4,o),
(55,29,cs),
(72,78,o),
(90,259,o),
(90,331,cs),
(90,417,o),
(80,521,o),
(63,575,cs),
(53,607,o),
(78,620,o),
(118,642,cs),
(206,691,o),
(304,742,o),
(426,781,cs),
(482,799,o),
(495,799,o),
(494,747,cs),
(493,713,o),
(454,608,o),
(445,600,cs),
(436,592,o),
(428,618,o),
(424,670,cs),
(421,707,o),
(355,695,o),
(270,658,cs),
(214,634,o),
(166,596,o),
(154,578,cs),
(143,561,o),
(149,386,o),
(149,333,cs),
(149,263,o),
(158,68,o),
(164,34,cs)
);
},
{
closed = 1;
nodes = (
(513,444,o),
(519,436,o),
(519,410,cs),
(519,384,o),
(519,397,o),
(519,372,cs),
(519,347,o),
(504,341,o),
(489,346,cs),
(458,356,o),
(423,379,o),
(389,383,cs),
(358,387,o),
(271,390,o),
(245,387,cs),
(190,381,o),
(149,383,o),
(149,343,cs),
(149,303,o),
(121,355,o),
(121,374,cs),
(121,393,o),
(121,390,o),
(121,408,cs),
(121,436,o),
(147,530,o),
(147,473,cs),
(147,416,o),
(287,444,o),
(382,444,cs),
(428,444,o),
(447,444,o),
(495,444,cs)
);
},
{
closed = 1;
nodes = (
(406,704,o),
(417,774,o),
(444,774,cs),
(471,774,o),
(489,780,o),
(493,755,cs),
(497,726,o),
(489,651,o),
(482,622,cs),
(466,551,o),
(449,499,o),
(413,426,c),
(312,441,l),
(349,441,o),
(388,504,o),
(409,566,cs),
(430,628,o),
(428,677,o),
(417,690,cs)
);
},
{
closed = 1;
nodes = (
(392,383,o),
(441,442,o),
(468,442,cs),
(495,442,o),
(514,448,o),
(517,423,cs),
(520,398,o),
(521,369,o),
(518,316,cs),
(512,219,o),
(494,40,o),
(487,16,cs),
(482,-2,o),
(458,0,o),
(424,0,cs),
(390,0,o),
(376,1,o),
(377,16,cs),
(378,31,o),
(420,64,o),
(441,154,cs),
(462,244,o),
(460,361,o),
(426,372,cs)
);
}
);
};
layerId = "7BB6E1F7-E231-4E79-9496-BA3D1CB9CE3C";
shapes = (
{
closed = 1;
nodes = (
(475,796,o),
(502,817,o),
(497,728,cs),
(487,555,o),
(424,444,o),
(424,444,c),
(445,444,o),
(454,444,o),
(489,444,cs),
(524,444,o),
(522,429,o),
(523,382,cs),
(524,308,o),
(515,179,o),
(494,40,cs),
(489,6,o),
(484,0,o),
(434,0,cs),
(384,0,o),
(368,6,o),
(386,29,cs),
(406,55,o),
(431,99,o),
(444,156,cs),
(458,220,o),
(460,279,o),
(452,334,cs),
(446,373,o),
(420,378,o),
(385,382,cs),
(328,388,o),
(246,387,o),
(193,382,cs),
(169,380,o),
(152,364,o),
(152,349,cs),
(152,285,o),
(151,162,o),
(157,55,cs),
(160,-1,o),
(156,0,o),
(109,0,cs),
(62,0,o),
(52,4,o),
(64,47,cs),
(79,101,o),
(90,192,o),
(93,322,cs),
(96,439,o),
(82,515,o),
(68,568,cs),
(59,605,o),
(76,616,o),
(123,644,cs),
(184,681,o),
(317,742,o),
(387,766,cs)
);
},
{
closed = 1;
nodes = (
(288,666,o),
(230,639,o),
(192,610,cs),
(161,587,o),
(155,575,o),
(153,557,cs),
(151,539,o),
(150,502,o),
(150,479,cs),
(150,456,o),
(169,441,o),
(193,440,cs),
(237,438,o),
(270,440,o),
(300,441,cs),
(321,442,o),
(339,445,o),
(369,481,cs),
(393,510,o),
(417,577,o),
(426,629,cs),
(439,707,o),
(393,700,o),
(325,678,cs)
);
}
);
width = 585;
},
{
background = {
shapes = (
{
closed = 1;
nodes = (
(170,0,o),
(147,0,o),
(113,0,cs),
(79,0,o),
(44,-4,o),
(55,29,cs),
(72,78,o),
(90,259,o),
(90,331,cs),
(90,417,o),
(80,521,o),
(63,575,cs),
(53,607,o),
(78,620,o),
(118,642,cs),
(206,691,o),
(304,742,o),
(426,781,cs),
(482,799,o),
(495,799,o),
(494,747,cs),
(493,713,o),
(454,608,o),
(445,600,cs),
(436,592,o),
(428,618,o),
(424,670,cs),
(421,707,o),
(355,695,o),
(270,658,cs),
(214,634,o),
(166,596,o),
(154,578,cs),
(143,561,o),
(149,386,o),
(149,333,cs),
(149,263,o),
(158,68,o),
(164,34,cs)
);
},
{
closed = 1;
nodes = (
(513,444,o),
(519,436,o),
(519,410,cs),
(519,384,o),
(519,397,o),
(519,372,cs),
(519,347,o),
(504,341,o),
(489,346,cs),
(458,356,o),
(423,379,o),
(389,383,cs),
(358,387,o),
(271,390,o),
(245,387,cs),
(190,381,o),
(149,383,o),
(149,343,cs),
(149,303,o),
(121,355,o),
(121,374,cs),
(121,393,o),
(121,390,o),
(121,408,cs),
(121,436,o),
(147,530,o),
(147,473,cs),
(147,416,o),
(287,444,o),
(382,444,cs),
(428,444,o),
(447,444,o),
(495,444,cs)
);
},
{
closed = 1;
nodes = (
(406,704,o),
(417,774,o),
(444,774,cs),
(471,774,o),
(489,780,o),
(493,755,cs),
(497,726,o),
(489,651,o),
(482,622,cs),
(466,551,o),
(449,499,o),
(413,426,c),
(312,441,l),
(349,441,o),
(388,504,o),
(409,566,cs),
(430,628,o),
(428,677,o),
(417,690,cs)
);
},
{
closed = 1;
nodes = (
(392,383,o),
(441,442,o),
(468,442,cs),
(495,442,o),
(514,448,o),
(517,423,cs),
(520,398,o),
(521,369,o),
(518,316,cs),
(512,219,o),
(494,40,o),
(487,16,cs),
(482,-2,o),
(458,0,o),
(424,0,cs),
(390,0,o),
(376,1,o),
(377,16,cs),
(378,31,o),
(420,64,o),
(441,154,cs),
(462,244,o),
(460,361,o),
(426,372,cs)
);
}
);
};
layerId = "EB85BB17-2D13-4234-8B6F-29F99969393B";
shapes = (
{
closed = 1;
nodes = (
(475,796,o),
(502,817,o),
(497,728,cs),
(487,555,o),
(423.992,414.12,o),
(423.992,414.12,c),
(444.992,414.12,o),
(453.992,414.12,o),
(488.992,414.12,cs),
(523.992,414.12,o),
(522.215,399.125,o),
(522.992,352.12,cs),
(524.215,278.124,o),
(515,179,o),
(494,40,cs),
(489,6,o),
(484,0,o),
(434,0,cs),
(384,0,o),
(368,6,o),
(386,29,cs),
(406,55,o),
(431,99,o),
(444,156,cs),
(458,220,o),
(460.18,249.148,o),
(451.992,304.12,cs),
(446.18,343.149,o),
(420.014,348.314,o),
(384.992,352.12,cs),
(328.013,358.314,o),
(246.009,356.94,o),
(192.992,352.12,cs),
(169.008,349.94,o),
(151.992,334.12,o),
(151.992,319.12,cs),
(151.992,255.12,o),
(151,162,o),
(157,55,cs),
(160,-1,o),
(156,0,o),
(109,0,cs),
(62,0,o),
(52,4,o),
(64,47,cs),
(79,101,o),
(90,192,o),
(93,322,cs),
(96,439,o),
(82,515,o),
(68,568,cs),
(59,605,o),
(76,616,o),
(123,644,cs),
(184,681,o),
(317,742,o),
(387,766,cs)
);
},
{
closed = 1;
nodes = (
(288,666,o),
(230,639,o),
(192,610,cs),
(161,587,o),
(155,575,o),
(153,557,cs),
(151,539,o),
(149.992,472.12,o),
(149.992,449.12,cs),
(149.992,426.12,o),
(168.995,411.179,o),
(192.992,410.121,cs),
(236.995,408.179,o),
(269.999,409.944,o),
(299.992,411.121,cs),
(321,411.944,o),
(339.047,415.075,o),
(368.992,451.121,cs),
(393.047,480.075,o),
(417,577,o),
(426,629,cs),
(439,707,o),
(393,700,o),
(325,678,cs)
);
}
);
width = 585;
}
);
unicode = 82;
},
{
glyphname = T;
layers = (
{
background = {
shapes = (
{
closed = 1;
nodes = (
(478,775,o),
(486,767,o),
(486,741,cs),
(486,715,o),
(486,728,o),
(486,703,cs),
(486,678,o),
(470,688,o),
(451,693,cs),
(413,703,o),
(334,719,o),
(263,719,cs),
(192,719,o),
(105,720,o),
(40,689,cs),
(21,680,o),
(14,686,o),
(14,705,cs),
(14,724,o),
(14,721,o),
(14,739,cs),
(14,767,o),
(19,775,o),
(37,775,cs),
(55,775,o),
(158,775,o),
(276,775,cs),
(333,775,o),
(396,775,o),
(456,775,cs)
);
},
{
closed = 1;
nodes = (
(271,741,o),
(290,627,o),
(292,409,cs),
(294,191,o),
(288,125,o),
(281,71,cs),
(277,38,o),
(273,21,o),
(272,19,cs),
(270,12,o),
(264,1,o),
(256,1,cs),
(248,1,o),
(199,1,o),
(185,1,cs),
(172,1,o),
(166,13,o),
(171,23,cs),
(178,37,o),
(188,67,o),
(198,93,cs),
(200,98,o),
(202,102,o),
(203,106,cs),
(229,190,o),
(237,278,o),
(237,371,cs),
(237,470,o),
(235,535,o),
(210,622,cs),
(188,699,o),
(167,749,o),
(167,749,c),
(160,763,o),
(155,773,o),
(177,775,cs),
(194,777,o),
(206,776,o),
(221,776,c),
(244,775,o),
(251,772,o),
(257,763,cs)
);
}
);
};
layerId = "7BB6E1F7-E231-4E79-9496-BA3D1CB9CE3C";
shapes = (
{
closed = 1;
nodes = (
(480,775,o),
(486,780,o),
(486,724,cs),
(486,683,o),
(483,683,o),
(444,695,cs),
(404,708,o),
(332,718,o),
(220,718,cs),
(141,718,o),
(77,704,o),
(47,691,cs),
(20,679,o),
(13,683,o),
(14,733,cs),
(15,783,o),
(29,773,o),
(65,775,cs),
(120,777,o),
(373,775,o),
(423,775,cs)
);
},
{
closed = 1;
nodes = (
(263,748,l),
(263,748,o),
(268,743,o),
(275,688,cs),
(296,528,o),
(304,302,o),
(283,87,cs),
(275,6,o),
(275,-2,o),
(223,0,cs),
(171,2,o),
(160,3,o),
(176,35,cs),
(215,114,o),
(235,221,o),
(238,384,cs),
(240,507,o),
(224,596,o),
(174,728,c)
);
}
);
width = 500;
},
{
background = {
shapes = (
{
closed = 1;
nodes = (
(478,775,o),
(486,767,o),
(486,741,cs),
(486,715,o),
(486,728,o),
(486,703,cs),
(486,678,o),
(470,688,o),
(451,693,cs),
(413,703,o),
(334,719,o),
(263,719,cs),
(192,719,o),
(105,720,o),
(40,689,cs),
(21,680,o),
(14,686,o),
(14,705,cs),
(14,724,o),
(14,721,o),
(14,739,cs),
(14,767,o),
(19,775,o),
(37,775,cs),
(55,775,o),
(158,775,o),
(276,775,cs),
(333,775,o),
(396,775,o),
(456,775,cs)
);
},
{
closed = 1;
nodes = (
(271,741,o),
(290,627,o),
(292,409,cs),
(294,191,o),
(288,125,o),
(281,71,cs),
(277,38,o),
(273,21,o),
(272,19,cs),
(270,12,o),
(264,1,o),
(256,1,cs),
(248,1,o),
(199,1,o),
(185,1,cs),
(172,1,o),
(166,13,o),
(171,23,cs),
(178,37,o),
(188,67,o),
(198,93,cs),
(200,98,o),
(202,102,o),
(203,106,cs),
(229,190,o),
(237,278,o),
(237,371,cs),
(237,470,o),
(235,535,o),
(210,622,cs),
(188,699,o),
(167,749,o),
(167,749,cs),
(160,763,o),
(155,773,o),
(177,775,cs),
(194,777,o),
(206,776,o),
(221,776,cs),
(244,775,o),
(251,772,o),
(257,763,cs)
);
}
);
};
layerId = "EB85BB17-2D13-4234-8B6F-29F99969393B";
shapes = (
{
closed = 1;
nodes = (
(431,775,o),
(437,780,o),
(437,724,cs),
(437,683,o),
(434,683,o),
(395,695,cs),
(355,708,o),
(283,718,o),
(171,718,cs),
(92,718,o),
(28,704,o),
(-2,691,cs),
(-29,679,o),
(-36,683,o),
(-35,733,cs),
(-34,783,o),
(-20,773,o),
(16,775,cs),
(71,777,o),
(324,775,o),
(374,775,cs)
);
},
{
closed = 1;
nodes = (
(174.338,163.871,o),
(183.102,280.089,o),
(183.102,386.089,cs),
(183.102,441.089,o),
(181.007,509.078,o),
(173.102,579.089,cs),
(167.007,633.078,o),
(155.284,681.122,o),
(149.102,714.089,cs),
(143.283,745.123,o),
(135.102,762.089,o),
(154.102,762.089,cs),
(173.102,762.089,o),
(188.102,763.089,o),
(213.102,763.089,cs),
(232.102,763.089,o),
(230.484,754.148,o),
(232.102,700.089,cs),
(238.79,476.733,o),
(241.243,320.553,o),
(235.102,80.929,cs),
(233.744,27.937,o),
(236.102,0.929,o),
(218.102,0.929,cs),
(200.102,0.929,o),
(171.102,0.929,o),
(150.102,0.929,cs),
(130.102,0.929,o),
(140.337,27.869,o),
(148.102,58.929,cs)
);
}
);
width = 403;
}
);
unicode = 84;
},
{
glyphname = U;
rightMetricsKey = N;
layers = (
{
background = {
shapes = (
{
closed = 1;
nodes = (
(340,0,o),
(334,4,o),
(344,24,cs),
(354,44,o),
(370,102,o),
(382,140,cs),
(394,177,o),
(405,344,o),
(405,421,cs),
(405,490,o),
(412,622,o),
(370,734,cs),
(357,768,o),
(354,777,o),
(376,777,cs),
(395,777,o),
(401,777,o),
(421,777,cs),
(443,777,o),
(450,762,o),
(455,742,cs),
(459,724,o),
(468,569,o),
(462,416,cs),
(456,266,o),
(444,38,o),
(438,23,cs),
(432,8,o),
(426,0,o),
(383,0,cs)
);
},
{
closed = 1;
nodes = (
(113,515,o),
(110,484,o),
(108,432,cs),
(106,377,o),
(109,191,o),
(112,140,cs),
(115,89,o),
(119,58,o),
(175,77,cs),
(244,100,o),
(318,136,o),
(357,174,cs),
(391,208,o),
(397,222,o),
(401,270,cs),
(406,333,o),
(433,335,o),
(438,300,cs),
(445,252,o),
(413,125,o),
(371,100,cs),
(269,38,o),
(226,22,o),
(97,-13,cs),
(75,-19,o),
(40,-22,o),
(43,31,cs),
(46,84,o),
(49,310,o),
(49,399,cs),
(49,470,o),
(44,531,o),
(36,584,cs),
(32,608,o),
(48,609,o),
(82,608,cs),
(119,607,o),
(140,616,o),
(126,564,cs)
);
}
);
};
layerId = "7BB6E1F7-E231-4E79-9496-BA3D1CB9CE3C";
shapes = (
{
closed = 1;
nodes = (
(490,777,o),
(491,765,o),
(493,718,cs),
(500,552,o),
(503,315,o),
(476,73,cs),
(468,2,o),
(469,0,o),
(421,0,cs),
(361,0,o),
(364,9,o),
(378,34,cs),
(393,62,o),
(399,98,o),
(399,98,c),
(334,54,o),
(239,19,o),
(158,-5,cs),
(97,-23,o),
(71,-26,o),
(74,31,cs),
(80,151,o),
(80,473,o),
(71,550,cs),
(65,598,o),
(53,608,o),
(115,608,cs),
(177,608,o),
(171,602,o),
(155,555,cs),
(146,527,o),
(140,479,o),
(138,389,cs),
(136,303,o),
(138,216,o),
(145,130,cs),
(148,95,o),
(144,52,o),
(216,79,cs),
(271,100,o),
(356,144,o),
(389,174,cs),
(420,203,o),
(426,222,o),
(430,283,cs),
(436,366,o),
(439,489,o),
(430,598,cs),
(424,672,o),
(401,724,o),
(389,748,cs),
(381,763,o),
(370,779,o),
(433,778,cs)
);
}
);
width = 582;
},
{
background = {
shapes = (
{
closed = 1;
nodes = (
(340,0,o),
(334,4,o),
(344,24,cs),
(354,44,o),
(370,102,o),
(382,140,cs),
(394,177,o),
(405,344,o),
(405,421,cs),
(405,490,o),
(412,622,o),
(370,734,cs),
(357,768,o),
(354,777,o),
(376,777,cs),
(395,777,o),
(401,777,o),
(421,777,cs),
(443,777,o),
(450,762,o),
(455,742,cs),
(459,724,o),
(468,569,o),
(462,416,cs),
(456,266,o),
(444,38,o),
(438,23,cs),
(432,8,o),
(426,0,o),
(383,0,cs)
);
},
{
closed = 1;
nodes = (
(113,515,o),
(110,484,o),
(108,432,cs),
(106,377,o),
(109,191,o),
(112,140,cs),
(115,89,o),
(119,58,o),
(175,77,cs),
(244,100,o),
(318,136,o),
(357,174,cs),
(391,208,o),
(397,222,o),
(401,270,cs),
(406,333,o),
(433,335,o),
(438,300,cs),
(445,252,o),
(413,125,o),
(371,100,cs),
(269,38,o),
(226,22,o),
(97,-13,cs),
(75,-19,o),
(40,-22,o),
(43,31,cs),
(46,84,o),
(49,310,o),
(49,399,cs),
(49,470,o),
(44,531,o),
(36,584,cs),
(32,608,o),
(48,609,o),
(82,608,cs),
(119,607,o),
(140,616,o),
(126,564,cs)
);
}
);
};
layerId = "EB85BB17-2D13-4234-8B6F-29F99969393B";
shapes = (
{
closed = 1;
nodes = (
(501,777,o),
(502,765,o),
(504,718,cs),
(511,552,o),
(514,315,o),
(487,73,cs),
(479,2,o),
(480,0,o),
(432,0,cs),
(372,0,o),
(375,9,o),
(389,34,cs),
(404,62,o),
(410,98,o),
(410,98,c),
(345,54,o),
(250,19,o),
(169,-5,cs),
(108,-23,o),
(82,-26,o),
(85,31,cs),
(91,151,o),
(91,473,o),
(82,550,cs),
(76,598,o),
(64,608,o),
(126,608,cs),
(188,608,o),
(182,602,o),
(166,555,cs),
(157,527,o),
(151,479,o),
(149,389,cs),
(147,303,o),
(149,216,o),
(156,130,cs),
(159,95,o),
(155,52,o),
(227,79,cs),
(282,100,o),
(367,144,o),
(400,174,cs),
(431,203,o),
(437,222,o),
(441,283,cs),
(447,366,o),
(450,489,o),
(441,598,cs),
(435,672,o),
(412,724,o),
(400,748,cs),
(392,763,o),
(381,779,o),
(444,778,cs)
);
}
);
width = 593;
}
);
leftKerningGroup = U;
rightKerningGroup = U1;
unicode = 85;
},
